<svg width="77" height="77" viewBox="0 0 77 77" fill="none" xmlns="http://www.w3.org/2000/svg">
<g clip-path="url(#clip0_394_759)">
<path fill-rule="evenodd" clip-rule="evenodd" d="M46.5016 47.7524C44.5766 49.5875 42.0292 50.7682 39.1994 50.9479V47.438C41.7212 47.4508 44.1659 47.5599 46.5016 47.7524ZM37.7043 50.9415C34.881 50.7618 32.3272 49.5811 30.4022 47.746C32.7378 47.5535 35.1826 47.4444 37.7043 47.4315V50.9415ZM29.1637 46.36C27.8227 44.5954 26.9757 42.4394 26.8217 40.0909H37.7043V45.9429C34.7398 45.9621 31.8716 46.1033 29.1637 46.36ZM26.8217 38.5958C26.9692 36.2473 27.8162 34.0913 29.1637 32.3267C31.878 32.5834 34.7462 32.7245 37.7107 32.7502V38.6022H26.8217V38.5958ZM30.4086 30.9343C32.3336 29.0991 34.881 27.9185 37.7107 27.7388V31.2487C35.189 31.2295 32.7442 31.1204 30.4086 30.9343ZM39.2058 27.7388C42.0292 27.9185 44.583 29.0991 46.508 30.9343C44.1723 31.1268 41.7276 31.2359 39.2058 31.2487V27.7388ZM54.0027 31.5054C55.0935 33.6485 55.748 36.0548 55.8571 38.5958H39.2058V32.7438C44.5702 32.7053 49.6072 32.2625 54.0027 31.5054ZM55.8571 40.0909C55.748 42.6319 55.0935 45.0381 54.0027 47.1813C49.6072 46.4241 44.5702 45.975 39.2058 45.9365V40.0845H55.8571V40.0909ZM47.0213 22.5156C53.8358 23.2086 59.9637 24.7037 64.8853 26.7763C62.9411 27.7388 60.4065 28.5858 57.4356 29.2852C56.5886 29.4841 55.7095 29.6702 54.8047 29.8435C52.9439 26.6993 50.2746 24.1775 47.0213 22.5156ZM66.5986 27.5399C72.7201 30.453 76.5957 34.3223 77 38.5894H57.3586C57.2559 35.9585 56.6142 33.4625 55.5362 31.2166C56.3062 31.069 57.057 30.9022 57.7757 30.7354C61.3818 29.8948 64.3977 28.804 66.5986 27.5399ZM77 40.0909C76.5957 44.358 72.7137 48.2272 66.5986 51.1404C64.4041 49.8827 61.3882 48.7919 57.7757 47.9449C57.0506 47.778 56.3062 47.6112 55.5362 47.4636C56.6142 45.2178 57.2559 42.7217 57.3586 40.0909H77ZM64.8853 51.9104C59.9702 53.9765 53.8422 55.478 47.0213 56.171C50.281 54.5091 52.9439 51.9938 54.7983 48.8496C55.7095 49.0229 56.5886 49.209 57.4292 49.4079C60.4065 50.0945 62.9411 50.9479 64.8853 51.9104ZM29.8888 56.1646C23.0743 55.4716 16.94 53.9765 12.0248 51.904C13.9691 50.9415 16.5037 50.0945 19.4746 49.395C20.3216 49.1961 21.2007 49.01 22.1054 48.8368C23.9919 52.013 26.6099 54.4899 29.8888 56.1646ZM10.3116 51.1404C4.19649 48.2272 0.320823 44.358 -0.0898438 40.0909H19.5516C19.6671 42.664 20.2574 45.1408 21.3739 47.4636C20.6039 47.6112 19.8532 47.778 19.1345 47.9449C15.5283 48.7919 12.5125 49.8827 10.3116 51.1404ZM-0.0898438 38.5958C0.314406 34.3287 4.19649 30.4595 10.3116 27.5463C12.5061 28.804 15.5219 29.8948 19.1345 30.7418C19.8596 30.9086 20.6039 31.069 21.3739 31.223C20.251 33.5459 19.6671 36.0227 19.5516 38.5958H-0.0898438ZM12.0248 26.7763C16.94 24.7101 23.0743 23.2086 29.8888 22.5156C26.6612 24.1583 23.947 26.6865 22.1118 29.837C21.2007 29.6638 20.3216 29.4777 19.481 29.2852C16.5037 28.5858 13.9691 27.7388 12.0248 26.7763Z" fill="#64748B"/>
<path fill-rule="evenodd" clip-rule="evenodd" d="M2.85543 65.9115C2.14318 65.9115 1.55284 65.6741 1.08443 65.1993C0.61601 64.7245 0.38501 64.1405 0.38501 63.4411C0.38501 62.7417 0.61601 62.1514 1.08443 61.6765C1.55284 61.2081 2.14318 60.9707 2.85543 60.9707C3.28534 60.9707 3.68318 61.0734 4.04893 61.2659C4.40826 61.4712 4.69701 61.7407 4.89593 62.0872L4.08743 62.562C3.97193 62.3503 3.79868 62.1835 3.58693 62.0615C3.36876 61.946 3.12493 61.8819 2.85543 61.8819C2.39343 61.8819 2.02126 62.023 1.73893 62.3182C1.45659 62.607 1.30901 62.9791 1.30901 63.4411C1.30901 63.8967 1.45018 64.2689 1.73893 64.5576C2.01484 64.8528 2.39343 64.994 2.85543 64.994C3.12493 64.994 3.36876 64.9298 3.59334 64.8143C3.81151 64.6988 3.97193 64.5384 4.08743 64.3266L4.89593 64.795C4.69701 65.1415 4.40826 65.411 4.04893 65.61C3.68318 65.8089 3.28534 65.9115 2.85543 65.9115ZM6.46159 64.9234H8.46359V65.8217H5.52476V61.0734H8.43151V61.9653H6.46159V62.9791H8.25826V63.8582H6.46159V64.9234ZM11.7233 65.8217L10.7672 64.1726H10.0549V65.8217H9.11809V61.0734H11.0174C11.4602 61.0734 11.8323 61.2274 12.1339 61.5354C12.4419 61.8434 12.5959 62.2155 12.5959 62.6519C12.5959 62.947 12.5125 63.2165 12.3457 63.4668C12.1724 63.717 11.9543 63.9095 11.6783 64.0379L12.7307 65.8281H11.7233V65.8217ZM10.0549 61.946V63.3513H11.0174C11.1971 63.3513 11.3447 63.2807 11.473 63.1395C11.6013 63.0048 11.6655 62.838 11.6655 62.6455C11.6655 62.4465 11.6013 62.2861 11.473 62.1514C11.3447 62.0166 11.1971 61.9525 11.0174 61.9525H10.0549V61.946ZM16.4267 61.0734V61.9653H15.1433V65.8217H14.2065V61.9653H12.9296V61.0734H16.4267ZM16.9464 61.0734H17.8833V65.8217H16.9464V61.0734ZM21.6049 61.9653H19.7056V63.0946H21.5536V63.9865H19.7056V65.8217H18.7688V61.0734H21.6049V61.9653ZM22.2851 61.0734H23.2219V65.8217H22.2851V61.0734ZM25.0378 64.9234H27.0398V65.8217H24.101V61.0734H27.0078V61.9653H25.0378V62.9791H26.8345V63.8582H25.0378V64.9234ZM29.5873 61.0734C30.2418 61.0734 30.7808 61.3044 31.2235 61.76C31.6598 62.2155 31.878 62.7802 31.878 63.4475C31.878 64.1213 31.6598 64.6795 31.2235 65.1351C30.7808 65.5907 30.2418 65.8217 29.5873 65.8217H27.7008V61.0734H29.5873ZM29.5873 64.9234C29.9979 64.9234 30.3316 64.7886 30.5883 64.5127C30.8449 64.2432 30.9733 63.8903 30.9733 63.4475C30.9733 63.0048 30.8449 62.6583 30.5883 62.376C30.3316 62.1065 29.9979 61.9653 29.5873 61.9653H28.6376V64.9234H29.5873ZM38.9492 63.4411C38.9492 64.0571 38.7503 64.5897 38.3653 65.0453L38.8529 65.5522L38.1856 66.1425L37.6723 65.61C37.3065 65.8089 36.9023 65.9115 36.4788 65.9115C35.7922 65.9115 35.2147 65.6741 34.7334 65.1929C34.2522 64.718 34.0148 64.1341 34.0148 63.4411C34.0148 62.7481 34.2522 62.1642 34.7334 61.683C35.2147 61.2081 35.7922 60.9707 36.4788 60.9707C37.1653 60.9707 37.7493 61.2081 38.2305 61.683C38.7118 62.1706 38.9492 62.7545 38.9492 63.4411ZM36.4788 65.0004C36.6584 65.0004 36.8317 64.9747 37.0049 64.9105L36.2221 64.0956L36.8894 63.5053L37.7236 64.3715C37.9161 64.0956 38.0059 63.7876 38.0059 63.4411C38.0059 62.9855 37.8583 62.6134 37.5632 62.3246C37.268 62.0295 36.9023 61.8819 36.4723 61.8819C36.036 61.8819 35.6703 62.0295 35.3815 62.3246C35.0863 62.6198 34.9388 62.992 34.9388 63.4411C34.9388 63.8903 35.0863 64.2625 35.3815 64.5576C35.6767 64.8464 36.0424 65.0004 36.4788 65.0004ZM44.2878 61.0734V65.8217H43.3574V62.7417L42.0228 64.949H41.9137L40.579 62.7481V65.8217H39.6422V61.0734H40.6047L41.965 63.3192L43.3253 61.0734H44.2878ZM46.7903 65.9115C46.3219 65.9115 45.9241 65.8025 45.6033 65.5971C45.2824 65.3854 45.0514 65.103 44.9231 64.7437L45.7252 64.2753C45.9049 64.7565 46.2706 65.0004 46.816 65.0004C47.0791 65.0004 47.2716 64.9555 47.3935 64.8592C47.5154 64.763 47.5796 64.641 47.5796 64.4999C47.5796 64.333 47.5026 64.2047 47.355 64.1085C47.2074 64.0186 46.9443 63.9224 46.5529 63.8133C46.3412 63.7491 46.1615 63.685 46.0139 63.6208C45.8663 63.563 45.7188 63.4732 45.5712 63.3641C45.4236 63.2615 45.3081 63.1267 45.2311 62.9663C45.1541 62.8059 45.1156 62.6134 45.1156 62.3952C45.1156 61.9653 45.2696 61.6252 45.5776 61.3621C45.8792 61.1119 46.2513 60.9835 46.6748 60.9835C47.0598 60.9835 47.3999 61.0798 47.6951 61.2595C47.9903 61.452 48.2084 61.715 48.3753 62.0487L47.586 62.5043C47.3935 62.1 47.0919 61.8947 46.6748 61.8947C46.4759 61.8947 46.3283 61.9332 46.2193 62.023C46.1038 62.1129 46.046 62.2284 46.046 62.3695C46.046 62.5171 46.1102 62.639 46.2385 62.7289C46.3604 62.8251 46.5978 62.9278 46.9508 63.0369C47.0919 63.0818 47.2074 63.1203 47.2844 63.1395C47.355 63.1716 47.4577 63.2101 47.586 63.255C47.7143 63.3128 47.8106 63.3577 47.8812 63.4026C47.9518 63.4475 48.0288 63.5117 48.1186 63.5823C48.2084 63.6593 48.279 63.7363 48.3303 63.8197C48.3753 63.9031 48.4202 63.993 48.4523 64.1085C48.4843 64.224 48.4972 64.3523 48.4972 64.487C48.4972 64.9298 48.3368 65.2763 48.0223 65.533C47.7208 65.7832 47.3037 65.9115 46.7903 65.9115ZM49.126 64.1919V63.3513H51.6734V64.1919H49.126ZM54.2465 65.9115C53.6562 65.9115 53.1878 65.687 52.8541 65.2378C52.514 64.7886 52.3472 64.1919 52.3472 63.4475C52.3472 62.7032 52.5204 62.1065 52.8541 61.6509C53.1878 61.2017 53.6562 60.9771 54.2465 60.9771C54.8433 60.9771 55.3117 61.2017 55.6453 61.6509C55.979 62.1065 56.1458 62.7032 56.1458 63.4475C56.1458 64.1919 55.979 64.7886 55.6453 65.2378C55.3117 65.687 54.8497 65.9115 54.2465 65.9115ZM53.5278 64.5961C53.6883 64.8592 53.9257 64.994 54.2465 64.994C54.5673 64.994 54.8048 64.8592 54.9716 64.5961C55.132 64.333 55.2154 63.9416 55.2154 63.4411C55.2154 62.9342 55.132 62.5492 54.9716 62.2797C54.8048 62.0166 54.5609 61.8819 54.2465 61.8819C53.9321 61.8819 53.6883 62.0166 53.5278 62.2797C53.3674 62.5428 53.284 62.9342 53.284 63.4411C53.284 63.9545 53.3674 64.333 53.5278 64.5961ZM60.2268 64.1405V65.0068H59.7199V65.8153H58.7767V65.0068H56.5308V64.1405L58.1093 61.067H59.1104L57.5383 64.1405H58.7703V63.0112H59.7135V64.1405H60.2268ZM62.4598 65.9115C61.8695 65.9115 61.4011 65.687 61.0674 65.2378C60.7273 64.7886 60.5605 64.1919 60.5605 63.4475C60.5605 62.7032 60.7338 62.1065 61.0674 61.6509C61.4011 61.2017 61.8695 60.9771 62.4598 60.9771C63.0566 60.9771 63.525 61.2017 63.8587 61.6509C64.1923 62.1065 64.3592 62.7032 64.3592 63.4475C64.3592 64.1919 64.1923 64.7886 63.8587 65.2378C63.525 65.687 63.0566 65.9115 62.4598 65.9115ZM61.7412 64.5961C61.9016 64.8592 62.139 64.994 62.4598 64.994C62.7807 64.994 63.0181 64.8592 63.1849 64.5961C63.3453 64.333 63.4288 63.9416 63.4288 63.4411C63.4288 62.9342 63.3453 62.5492 63.1849 62.2797C63.0181 62.0166 62.7743 61.8819 62.4598 61.8819C62.139 61.8819 61.9016 62.0166 61.7412 62.2797C61.5808 62.5428 61.4973 62.9342 61.4973 63.4411C61.4973 63.9545 61.5808 64.333 61.7412 64.5961ZM68.4402 64.1405V65.0068H67.9333V65.8153H66.99V65.0068H64.7442V64.1405L66.3227 61.067H67.3237L65.7516 64.1405H66.9836V63.0112H67.9268V64.1405H68.4402ZM75.5755 65.8217L75.2932 64.9683H73.4003L73.1179 65.8217H72.1105L73.7724 61.0734H74.9338L76.6022 65.8217H75.5755ZM73.6954 64.0892H74.998L74.3435 62.1514L73.6954 64.0892Z" fill="#64748B"/>
<path fill-rule="evenodd" clip-rule="evenodd" d="M69.1396 66.4968H68.7546L71.4689 60.3945H71.8539L69.1396 66.4968Z" fill="#64748B"/>
<path fill-rule="evenodd" clip-rule="evenodd" d="M2.32275 11.2748H3.88842V19.2122H2.32275V11.2748ZM8.0785 19.3662C7.29567 19.3662 6.62834 19.1866 6.08934 18.8336C5.55675 18.4807 5.17175 18.0059 4.95359 17.4027L6.29467 16.6199C6.60267 17.422 7.21225 17.8326 8.12342 17.8326C8.56617 17.8326 8.88059 17.7492 9.08592 17.5952C9.29125 17.4348 9.39392 17.2295 9.39392 16.9921C9.39392 16.7097 9.26559 16.4916 9.01534 16.3311C8.76509 16.1836 8.32234 16.0167 7.67425 15.8306C7.32134 15.728 7.01334 15.6125 6.77592 15.5098C6.52567 15.4071 6.27542 15.2596 6.038 15.0799C5.78775 14.9066 5.59525 14.6821 5.47334 14.4126C5.345 14.1431 5.28084 13.8222 5.28084 13.4629C5.28084 12.7506 5.54392 12.1731 6.05084 11.7368C6.55775 11.3133 7.17375 11.1016 7.886 11.1016C8.53409 11.1016 9.09875 11.262 9.58642 11.57C10.0741 11.8908 10.4463 12.3271 10.7222 12.8854L9.40675 13.6426C9.08592 12.9624 8.579 12.6223 7.886 12.6223C7.55875 12.6223 7.3085 12.6929 7.12884 12.8405C6.93634 12.9881 6.84009 13.1806 6.84009 13.418C6.84009 13.6682 6.94275 13.8736 7.16092 14.0211C7.36625 14.1816 7.76409 14.3484 8.35442 14.5345C8.59184 14.6115 8.78434 14.6692 8.91267 14.7013C9.03459 14.7526 9.20784 14.8168 9.41959 14.8938C9.63775 14.9901 9.79817 15.0671 9.92009 15.1441C10.0356 15.2275 10.1703 15.3237 10.3179 15.4521C10.4655 15.5804 10.5938 15.7151 10.6708 15.8499C10.7543 15.9846 10.8184 16.1451 10.8762 16.3376C10.9339 16.5301 10.9596 16.7482 10.9596 16.9728C10.9596 17.7107 10.6965 18.2882 10.1639 18.7181C9.63134 19.1545 8.93192 19.3662 8.0785 19.3662ZM18.6724 18.1663C17.8703 18.9748 16.8886 19.3662 15.74 19.3662C14.5914 19.3662 13.6161 18.9684 12.8204 18.1663C12.0183 17.3706 11.6141 16.3953 11.6141 15.2403C11.6141 14.0853 12.0119 13.11 12.8204 12.3079C13.6161 11.5122 14.5914 11.1144 15.74 11.1144C16.8886 11.1144 17.8639 11.5122 18.6724 12.3079C19.4809 13.11 19.8788 14.0853 19.8788 15.2403C19.8788 16.3953 19.4809 17.3706 18.6724 18.1663ZM13.9177 17.1011C14.4053 17.5888 15.0213 17.8391 15.7464 17.8391C16.4715 17.8391 17.0875 17.5888 17.5752 17.1011C18.0628 16.6135 18.3131 16.0039 18.3131 15.2403C18.3131 14.4831 18.0628 13.8607 17.5752 13.3666C17.0875 12.879 16.4715 12.6287 15.7464 12.6287C15.0213 12.6287 14.4053 12.879 13.9177 13.3666C13.43 13.8543 13.1798 14.4767 13.1798 15.2403C13.1798 16.0039 13.4236 16.6135 13.9177 17.1011ZM32.9367 19.3662C31.9485 19.3662 31.1657 18.9941 30.6074 18.2369C30.0428 17.4861 29.754 16.4851 29.754 15.2403C29.754 13.9955 30.0428 12.9945 30.6074 12.2373C31.1657 11.493 31.9485 11.1144 32.9367 11.1144C33.9377 11.1144 34.7205 11.493 35.2788 12.2373C35.837 13.0009 36.1193 13.9955 36.1193 15.2403C36.1193 16.4851 35.837 17.4861 35.2788 18.2369C34.7205 18.9941 33.9377 19.3662 32.9367 19.3662ZM31.7368 17.1653C32.0127 17.6081 32.4041 17.8326 32.9431 17.8326C33.4821 17.8326 33.8799 17.6081 34.1623 17.1653C34.4318 16.7226 34.5729 16.0745 34.5729 15.2339C34.5729 14.3869 34.4318 13.7388 34.1623 13.2961C33.8799 12.8533 33.4821 12.6287 32.9431 12.6287C32.4041 12.6287 32.0127 12.8533 31.7368 13.2961C31.4673 13.7388 31.3261 14.3869 31.3261 15.2339C31.3261 16.0937 31.4673 16.7226 31.7368 17.1653ZM40.0977 19.3662C39.1095 19.3662 38.3267 18.9941 37.7684 18.2369C37.2038 17.4861 36.915 16.4851 36.915 15.2403C36.915 13.9955 37.2038 12.9945 37.7684 12.2373C38.3267 11.493 39.1095 11.1144 40.0977 11.1144C41.0987 11.1144 41.8815 11.493 42.4398 12.2373C42.998 13.0009 43.2803 13.9955 43.2803 15.2403C43.2803 16.4851 42.998 17.4861 42.4398 18.2369C41.8815 18.9941 41.0987 19.3662 40.0977 19.3662ZM38.8913 17.1653C39.1673 17.6081 39.5587 17.8326 40.0977 17.8326C40.6303 17.8326 41.0281 17.6081 41.3168 17.1653C41.5863 16.7226 41.7275 16.0745 41.7275 15.2339C41.7275 14.3869 41.5863 13.7388 41.3168 13.2961C41.0345 12.8533 40.6367 12.6287 40.0977 12.6287C39.5651 12.6287 39.1673 12.8533 38.8913 13.2961C38.6218 13.7388 38.4807 14.3869 38.4807 15.2339C38.4807 16.0937 38.6218 16.7226 38.8913 17.1653ZM50.2745 15.0157C50.082 15.2082 49.8574 15.2981 49.5943 15.2981C49.3313 15.2981 49.1067 15.2082 48.9142 15.0157C48.7217 14.8232 48.6318 14.5922 48.6318 14.3356C48.6318 14.0725 48.7217 13.8479 48.9142 13.6554C49.1067 13.4629 49.3377 13.3731 49.5943 13.3731C49.851 13.3731 50.082 13.4629 50.2745 13.6554C50.467 13.8479 50.5633 14.0789 50.5633 14.3356C50.5633 14.5922 50.467 14.8232 50.2745 15.0157ZM50.2745 19.0775C50.082 19.27 49.8574 19.3598 49.5943 19.3598C49.3313 19.3598 49.1067 19.27 48.9142 19.0775C48.7217 18.885 48.6318 18.654 48.6318 18.3973C48.6318 18.1342 48.7217 17.9096 48.9142 17.7171C49.1067 17.5246 49.3377 17.4348 49.5943 17.4348C49.851 17.4348 50.082 17.5246 50.2745 17.7171C50.467 17.9096 50.5633 18.1406 50.5633 18.3973C50.5633 18.654 50.467 18.885 50.2745 19.0775ZM51.4167 19.2122V18.0444L54.1309 15.2531C54.7341 14.6179 55.0421 14.0853 55.0421 13.6618C55.0421 13.3538 54.9458 13.1036 54.7533 12.9111C54.5608 12.7186 54.3106 12.6287 54.009 12.6287C53.4058 12.6287 52.9631 12.9367 52.6808 13.5591L51.3653 12.7891C51.6156 12.2437 51.9749 11.8266 52.4433 11.5443C52.9053 11.262 53.4315 11.1144 53.9897 11.1144C54.702 11.1144 55.3308 11.3454 55.8377 11.7817C56.3447 12.2373 56.6077 12.8469 56.6077 13.6105C56.6077 14.4382 56.1778 15.2788 55.3052 16.1515L53.7459 17.7107H56.7361V19.2186H51.4167V19.2122ZM60.7208 19.3662C59.7327 19.3662 58.9498 18.9941 58.3916 18.2369C57.8269 17.4861 57.5382 16.4851 57.5382 15.2403C57.5382 13.9955 57.8269 12.9945 58.3916 12.2373C58.9498 11.493 59.7327 11.1144 60.7208 11.1144C61.7218 11.1144 62.5047 11.493 63.0629 12.2373C63.6212 13.0009 63.9035 13.9955 63.9035 15.2403C63.9035 16.4851 63.6212 17.4861 63.0629 18.2369C62.5047 18.9941 61.7218 19.3662 60.7208 19.3662ZM59.5145 17.1653C59.7904 17.6081 60.1818 17.8326 60.7208 17.8326C61.2534 17.8326 61.6512 17.6081 61.94 17.1653C62.2095 16.7226 62.3507 16.0745 62.3507 15.2339C62.3507 14.3869 62.2095 13.7388 61.94 13.2961C61.6577 12.8533 61.2598 12.6287 60.7208 12.6287C60.1882 12.6287 59.7904 12.8533 59.5145 13.2961C59.245 13.7388 59.1038 14.3869 59.1038 15.2339C59.1103 16.0937 59.245 16.7226 59.5145 17.1653ZM71.8794 14.1623C72.6366 14.1623 73.2847 14.3933 73.8108 14.8425C74.3306 15.3045 74.5937 15.9397 74.5937 16.7611C74.5937 17.576 74.3177 18.2112 73.7788 18.6796C73.2205 19.1481 72.5532 19.3726 71.7575 19.3726C71.1094 19.3726 70.5448 19.2251 70.0571 18.9427C69.5694 18.6604 69.2037 18.2305 68.9855 17.6722L70.3266 16.8894C70.5191 17.5246 71.0003 17.8391 71.7575 17.8391C72.1553 17.8391 72.4697 17.7364 72.7008 17.5439C72.9189 17.3514 73.028 17.0883 73.028 16.7611C73.028 16.4338 72.9125 16.1707 72.7008 15.9782C72.4826 15.7857 72.181 15.6831 71.8024 15.6831H69.3962L69.717 11.2748H74.2279V12.7378H71.1736L71.0709 14.1623H71.8794Z" fill="#64748B"/>
<path fill-rule="evenodd" clip-rule="evenodd" d="M29.0995 13.866C29.0995 14.482 28.9391 15.0146 28.6247 15.4766H28.6311L26.1542 19.2111H24.364L26.135 16.6252C25.3072 16.6124 24.6335 16.3364 24.1266 15.8295C23.6004 15.3162 23.3438 14.6745 23.3438 13.866C23.3438 13.0639 23.6197 12.3966 24.1522 11.8833C24.6848 11.3699 25.365 11.1133 26.2184 11.1133C27.0654 11.1133 27.7712 11.3635 28.3102 11.8769C28.8428 12.3774 29.0995 13.0511 29.0995 13.866ZM24.8966 13.866C24.8966 14.2639 25.0249 14.5719 25.2816 14.8093C25.5318 15.0467 25.8398 15.1622 26.212 15.1622C26.597 15.1622 26.9114 15.0467 27.1681 14.8093C27.4183 14.5719 27.5402 14.2639 27.5402 13.866C27.5402 13.4682 27.4183 13.1666 27.1681 12.9292C26.9178 12.6982 26.6034 12.5891 26.212 12.5891C25.8334 12.5891 25.5318 12.7046 25.2816 12.942C25.0249 13.173 24.8966 13.481 24.8966 13.866ZM45.9112 11.2737H47.2715V19.2111H45.7058V12.9292L44.2108 13.3463L43.8258 12.0116L45.9112 11.2737ZM66.5536 11.2737H67.9139V19.2111H66.3483V12.9292L64.8532 13.3463L64.4682 12.0116L66.5536 11.2737Z" fill="#64748B"/>
</g>
<defs>
<clipPath id="clip0_394_759">
<rect width="77" height="77" fill="white"/>
</clipPath>
</defs>
</svg>
