<svg width="24" height="25" viewBox="0 0 24 25" fill="none" xmlns="http://www.w3.org/2000/svg">
<path d="M10.0376 5.81617L10.6866 6.9791C11.2723 8.02858 11.0372 9.40532 10.1147 10.3278C10.1147 10.3278 10.1147 10.3278 10.1147 10.3278C10.1146 10.3279 8.99588 11.4468 11.0245 13.4755C13.0525 15.5035 14.1714 14.3861 14.1722 14.3853C14.1722 14.3853 14.1722 14.3853 14.1722 14.3853C15.0947 13.4628 16.4714 13.2277 17.5209 13.8134L18.6838 14.4624C20.2686 15.3468 20.4557 17.5692 19.0628 18.9622C18.2258 19.7992 17.2004 20.4505 16.0669 20.4934C14.1588 20.5658 10.9183 20.0829 7.6677 16.8323C4.41713 13.5817 3.93421 10.3412 4.00655 8.43309C4.04952 7.2996 4.7008 6.27423 5.53781 5.43723C6.93076 4.04428 9.15317 4.23144 10.0376 5.81617Z" fill="#64748B"/>
<path d="M13.2595 2.37983C13.3257 1.97094 13.7122 1.69357 14.1211 1.75976C14.1464 1.76461 14.2279 1.77983 14.2705 1.78933C14.3559 1.80834 14.4749 1.83759 14.6233 1.88082C14.9201 1.96726 15.3347 2.10967 15.8323 2.3378C16.8286 2.79456 18.1544 3.59356 19.5302 4.96936C20.906 6.34516 21.705 7.67097 22.1617 8.66725C22.3899 9.16487 22.5323 9.57947 22.6187 9.87625C22.6619 10.0247 22.6912 10.1437 22.7102 10.229C22.7197 10.2717 22.7267 10.3059 22.7315 10.3313L22.7373 10.3624C22.8034 10.7713 22.5286 11.1739 22.1197 11.2401C21.712 11.3061 21.3279 11.03 21.2601 10.6231C21.258 10.6121 21.2522 10.5828 21.2461 10.5551C21.2337 10.4997 21.2124 10.4119 21.1786 10.2957C21.1109 10.0634 20.9934 9.71806 20.7982 9.29238C20.4084 8.44207 19.7074 7.26789 18.4695 6.03002C17.2317 4.79216 16.0575 4.09117 15.2072 3.70134C14.7815 3.50618 14.4362 3.38865 14.2038 3.32097C14.0877 3.28714 13.9417 3.25363 13.8863 3.2413C13.4793 3.17347 13.1935 2.78755 13.2595 2.37983Z" fill="#64748B"/>
<path fill-rule="evenodd" clip-rule="evenodd" d="M13.4857 5.8293C13.5995 5.43102 14.0146 5.2004 14.4129 5.31419L14.2069 6.03534C14.4129 5.31419 14.4129 5.31419 14.4129 5.31419L14.4144 5.31461L14.4159 5.31505L14.4192 5.31602L14.427 5.31834L14.4468 5.3245C14.4618 5.32932 14.4807 5.3356 14.5031 5.34357C14.548 5.35951 14.6074 5.38217 14.6802 5.41337C14.8259 5.47581 15.0249 5.57223 15.2695 5.71694C15.7589 6.00662 16.4271 6.4878 17.2121 7.27277C17.9971 8.05775 18.4782 8.72593 18.7679 9.2154C18.9126 9.45991 19.009 9.65897 19.0715 9.80466C19.1027 9.87746 19.1254 9.93682 19.1413 9.98173C19.1493 10.0042 19.1555 10.023 19.1604 10.0381L19.1665 10.0579L19.1688 10.0656L19.1698 10.069L19.1702 10.0705C19.1702 10.0705 19.1707 10.0719 18.4495 10.278L19.1707 10.0719C19.2845 10.4702 19.0538 10.8853 18.6556 10.9991C18.2607 11.1119 17.8492 10.8862 17.7313 10.4941L17.7276 10.4833C17.7223 10.4683 17.7113 10.4387 17.6928 10.3955C17.6558 10.3092 17.5887 10.168 17.4771 9.97938C17.2541 9.60264 16.8514 9.03339 16.1514 8.33343C15.4515 7.63348 14.8822 7.23078 14.5055 7.00781C14.3169 6.89619 14.1757 6.82909 14.0893 6.79209C14.0461 6.77358 14.0165 6.76254 14.0015 6.75721L13.9907 6.75352C13.5987 6.63564 13.3729 6.22419 13.4857 5.8293Z" fill="#64748B"/>
</svg>
