<svg width="77" height="77" viewBox="0 0 77 77" fill="none" xmlns="http://www.w3.org/2000/svg">
<g clip-path="url(#clip0_394_754)">
<path d="M19.9622 31.8393C18.942 31.6724 17.7485 31.1655 17.742 30.3249C17.742 29.9784 18.0244 29.1314 19.4489 29.125C20.9311 29.125 21.3225 29.9656 21.3225 30.4789H23.6967C23.6967 29.2983 23.3566 28.278 22.6636 27.5914C21.791 26.9113 20.7065 26.5519 19.5965 26.584C14.7519 26.6033 14.1872 30.6393 15.8812 32.898C16.2277 33.3921 17.2544 33.899 18.7751 34.2391C19.9686 34.5663 21.515 35.0925 21.5215 36.1962C21.5279 37.2934 20.1547 37.4603 19.6414 37.4603C18.7944 37.4603 18.2875 37.2934 17.941 36.9598C17.6073 36.5876 17.4212 36.1063 17.434 35.6058L14.7134 35.6187C14.7134 36.9854 15.2267 38.1597 16.0801 38.8463C18.8585 41.0408 24.255 40.2387 24.2357 35.747C24.2229 33.2445 22.4198 32.3269 19.9622 31.8393Z" fill="#64748B"/>
<path d="M49.2158 36.6384L65.3345 29.6122C65.6682 30.7672 65.8414 31.9607 65.8543 33.167C65.8158 34.3092 65.7131 35.4449 65.5334 36.5743L49.2158 36.6384ZM64.3592 41.3354L35.4649 41.4509L35.4521 37.71L53.7845 29.8239L35.5933 29.9009L35.5804 25.9932L64.1346 25.8713L64.1474 29.1053L44.4675 37.5047L64.3528 37.4213L64.3592 41.3354ZM33.9955 53.5271C18.1784 53.5913 5.06275 46.3404 2.464 36.8309C4.87667 43.4465 14.4118 48.3424 25.4549 48.2975C33.1036 48.2654 39.8796 46.026 44.2943 42.4391L62.4855 42.3621C57.2495 48.8429 46.3925 53.4758 33.9955 53.5271ZM37.6273 30.9148C37.8006 31.5885 37.807 32.4355 37.807 33.2761C37.8134 34.1103 37.807 34.9829 37.4733 35.8364L34.5923 37.017L34.6051 40.7708C32.4106 42.9845 29.1958 44.3577 25.4421 44.3769C18.6533 44.4155 13.013 39.5003 12.9873 33.3788C12.9617 27.2637 18.557 22.1432 25.3458 22.1239C29.0996 22.1111 32.5004 23.6319 34.7078 25.9932L34.727 30.9276L37.6273 30.9148ZM33.8223 12.916C39.7192 12.8904 45.3209 13.8785 50.0757 15.7137L50.0949 20.4492L54.5353 20.4299L54.5224 17.6708C58.212 19.6856 61.2343 22.1881 63.0887 25.0371L45.2439 25.1141C40.964 20.8791 33.6683 18.1905 25.3266 18.2226C14.2835 18.2675 4.78042 23.2404 2.4255 30.0549C4.96009 20.3401 18.0116 12.9802 33.8223 12.916ZM33.8223 11.5493C15.1177 11.6263 0.0320877 21.5529 0.0770043 33.4365C0.128338 45.3138 15.2973 54.9644 34.0019 54.8874C52.7065 54.8104 67.9397 45.0507 67.8948 33.1478C67.8434 21.2449 52.5012 11.4723 33.8223 11.5493Z" fill="#64748B"/>
<path d="M24.8775 29.4336L28.2783 29.4207L28.3168 39.6168L30.8771 39.604L30.8322 29.4079L34.0405 29.3951L34.0341 26.8477L24.8711 26.8862L24.8775 29.4336Z" fill="#64748B"/>
<path d="M33.9956 65.7572V57.9609H35.0287V65.7572H33.9956ZM36.5109 63.2547L37.4799 63.1648C37.5248 63.5563 37.6339 63.8771 37.8007 64.1273C37.9675 64.3776 38.2306 64.5829 38.5835 64.7369C38.9364 64.8909 39.3407 64.9679 39.777 64.9679C40.1749 64.9679 40.5214 64.9102 40.8165 64.7947C41.1181 64.6792 41.3427 64.5188 41.4903 64.3134C41.6379 64.1081 41.7084 63.8835 41.7084 63.6461C41.7084 63.4023 41.6379 63.1905 41.4967 63.0044C41.3555 62.8248 41.1181 62.6708 40.7909 62.5424C40.5855 62.4654 40.1171 62.3371 39.4049 62.1638C38.6862 61.9906 38.1857 61.8302 37.8969 61.6762C37.5248 61.4773 37.2489 61.2398 37.0692 60.9511C36.8831 60.6623 36.7933 60.3351 36.7933 59.9822C36.7933 59.5843 36.9088 59.2186 37.1269 58.8785C37.3515 58.532 37.6724 58.2753 38.1023 58.0957C38.5322 57.916 39.007 57.8262 39.5332 57.8262C40.1107 57.8262 40.6176 57.916 41.0604 58.1021C41.5031 58.2882 41.8432 58.5641 42.0806 58.9234C42.318 59.2828 42.4464 59.6934 42.4656 60.1554L41.4774 60.2324C41.4261 59.7383 41.2464 59.3662 40.9384 59.1159C40.6304 58.8657 40.1813 58.7373 39.5781 58.7373C38.9557 58.7373 38.5001 58.8528 38.2114 59.0774C37.929 59.3084 37.7814 59.5843 37.7814 59.9052C37.7814 60.1875 37.8841 60.4185 38.083 60.5982C38.2819 60.7778 38.8017 60.9639 39.6423 61.1564C40.4829 61.3489 41.0539 61.5093 41.3684 61.6505C41.8239 61.8558 42.1576 62.1253 42.3758 62.4462C42.5939 62.767 42.6966 63.1328 42.6966 63.5498C42.6966 63.9669 42.5747 64.3519 42.3437 64.7177C42.1063 65.0834 41.7662 65.3722 41.3234 65.5711C40.8807 65.7764 40.3802 65.8791 39.8219 65.8791C39.1161 65.8791 38.5258 65.7764 38.0509 65.5711C37.5761 65.3658 37.2039 65.0578 36.9344 64.6407C36.6649 64.2428 36.5238 63.7744 36.5109 63.2547ZM43.8003 61.9649C43.8003 60.6752 44.1468 59.6613 44.8462 58.9298C45.5392 58.1983 46.4375 57.8326 47.5412 57.8326C48.2599 57.8326 48.9079 58.0058 49.4854 58.3459C50.0629 58.6924 50.5057 59.1673 50.8073 59.7833C51.1089 60.3993 51.2629 61.0923 51.2629 61.8751C51.2629 62.6643 51.1024 63.3702 50.7816 63.999C50.4608 64.6214 50.0116 65.0963 49.4277 65.4171C48.8438 65.7379 48.2085 65.8983 47.5348 65.8983C46.7969 65.8983 46.1424 65.7187 45.5649 65.3658C44.9874 65.0128 44.5446 64.5316 44.2494 63.9156C43.9479 63.2932 43.8003 62.6451 43.8003 61.9649ZM44.8654 61.9778C44.8654 62.9146 45.1157 63.6525 45.6226 64.1915C46.1295 64.7305 46.7584 65 47.5219 65C48.2984 65 48.9336 64.7305 49.4405 64.1851C49.941 63.6397 50.1913 62.8697 50.1913 61.8623C50.1913 61.227 50.0822 60.6752 49.8704 60.2003C49.6587 59.7255 49.3443 59.3598 48.9272 59.1031C48.5101 58.8464 48.0481 58.7117 47.5348 58.7117C46.8033 58.7117 46.1744 58.9619 45.6483 59.4624C45.1285 59.9758 44.8654 60.8099 44.8654 61.9778ZM55.3759 63.9477L56.2935 63.8707C56.3705 64.3006 56.5181 64.615 56.7427 64.8075C56.9609 65 57.2432 65.0963 57.5897 65.0963C57.8849 65.0963 58.1415 65.0321 58.3661 64.8909C58.5907 64.7562 58.7704 64.5765 58.9115 64.3519C59.0527 64.1273 59.1682 63.8193 59.2644 63.4408C59.3607 63.0558 59.4056 62.6708 59.4056 62.2729C59.4056 62.2344 59.4056 62.1638 59.3992 62.0804C59.2067 62.382 58.95 62.6323 58.6164 62.8248C58.2827 63.0173 57.9298 63.1071 57.5384 63.1071C56.8967 63.1071 56.3513 62.8761 55.9021 62.4077C55.4594 61.9393 55.2348 61.3233 55.2348 60.5597C55.2348 59.7704 55.4658 59.1352 55.9342 58.6475C56.4026 58.1663 56.9801 57.9224 57.6859 57.9224C58.1929 57.9224 58.6549 58.0572 59.0719 58.3331C59.489 58.609 59.8099 58.994 60.028 59.5009C60.2462 60.0078 60.3553 60.7393 60.3553 61.6954C60.3553 62.69 60.2462 63.4857 60.0344 64.076C59.8163 64.6663 59.4954 65.1155 59.0719 65.4235C58.6484 65.7315 58.1479 65.8855 57.5704 65.8855C56.9609 65.8855 56.4604 65.7187 56.0754 65.3786C55.6839 65.0385 55.4529 64.5637 55.3759 63.9477ZM59.2837 60.5083C59.2837 59.9565 59.1361 59.5266 58.8474 59.2058C58.5586 58.8849 58.2057 58.7245 57.795 58.7245C57.3651 58.7245 56.9929 58.8978 56.6849 59.2443C56.3705 59.5908 56.2165 60.0399 56.2165 60.5918C56.2165 61.0858 56.3641 61.4901 56.6593 61.7981C56.9544 62.1061 57.3266 62.2665 57.7694 62.2665C58.2121 62.2665 58.5779 62.1125 58.8602 61.7981C59.1425 61.4901 59.2837 61.0602 59.2837 60.5083ZM61.2857 61.9072C61.2857 60.9896 61.3819 60.2453 61.568 59.6806C61.7605 59.1159 62.0429 58.6796 62.415 58.378C62.7872 58.0764 63.2556 57.9224 63.8267 57.9224C64.2438 57.9224 64.6095 58.0058 64.9304 58.1727C65.2448 58.3395 65.5079 58.5833 65.7132 58.9042C65.9185 59.2186 66.0789 59.61 66.1944 60.0656C66.3099 60.5212 66.3677 61.1372 66.3677 61.9072C66.3677 62.8248 66.2714 63.5627 66.0854 64.1273C65.8993 64.692 65.6169 65.1283 65.2448 65.4299C64.8726 65.7315 64.3978 65.8855 63.8331 65.8855C63.0824 65.8855 62.492 65.616 62.0621 65.0834C61.5488 64.4353 61.2857 63.3766 61.2857 61.9072ZM62.2674 61.9136C62.2674 63.1969 62.415 64.0503 62.7166 64.4738C63.0182 64.8973 63.3839 65.1091 63.8267 65.1091C64.263 65.1091 64.6352 64.8973 64.9368 64.4738C65.2384 64.0503 65.3859 63.1969 65.3859 61.92C65.3859 60.6367 65.2384 59.7833 64.9368 59.3598C64.6416 58.9363 64.263 58.7245 63.8139 58.7245C63.3775 58.7245 63.0246 58.9106 62.7615 59.2828C62.4343 59.7576 62.2674 60.6303 62.2674 61.9136ZM67.3494 61.9072C67.3494 60.9896 67.4457 60.2453 67.6318 59.6806C67.8243 59.1159 68.1066 58.6796 68.4788 58.378C68.8509 58.0764 69.3194 57.9224 69.8904 57.9224C70.3075 57.9224 70.6733 58.0058 70.9941 58.1727C71.3085 58.3395 71.5716 58.5833 71.7769 58.9042C71.9823 59.2186 72.1427 59.61 72.2582 60.0656C72.3737 60.5212 72.4314 61.1372 72.4314 61.9072C72.4314 62.8248 72.3352 63.5627 72.1491 64.1273C71.963 64.692 71.6807 65.1283 71.3085 65.4299C70.9364 65.7315 70.4615 65.8855 69.8969 65.8855C69.1461 65.8855 68.5558 65.616 68.1259 65.0834C67.6061 64.4353 67.3494 63.3766 67.3494 61.9072ZM68.3248 61.9136C68.3248 63.1969 68.4724 64.0503 68.7739 64.4738C69.0755 64.8973 69.4413 65.1091 69.884 65.1091C70.3204 65.1091 70.6925 64.8973 70.9941 64.4738C71.2957 64.0503 71.4433 63.1969 71.4433 61.92C71.4433 60.6367 71.2957 59.7833 70.9941 59.3598C70.6989 58.9363 70.3204 58.7245 69.8712 58.7245C69.4349 58.7245 69.0819 58.9106 68.8189 59.2828C68.4916 59.7576 68.3248 60.6303 68.3248 61.9136ZM77.0001 65.7572H76.044V59.6549C75.813 59.8731 75.5114 60.0977 75.1393 60.3158C74.7671 60.534 74.427 60.7008 74.1319 60.8099V59.8859C74.6709 59.6357 75.1393 59.3341 75.5371 58.9683C75.9414 58.609 76.2237 58.2625 76.3905 57.9288H77.0001V65.7572Z" fill="#64748B"/>
</g>
<defs>
<clipPath id="clip0_394_754">
<rect width="77" height="77" fill="white"/>
</clipPath>
</defs>
</svg>
