<svg width="22" height="22" viewBox="0 0 22 22" fill="none" xmlns="http://www.w3.org/2000/svg">
<path d="M11.0009 20.1673C5.93828 20.1673 1.83423 16.0632 1.83423 11.0007C1.83423 5.93804 5.93828 1.83398 11.0009 1.83398C16.0635 1.83398 20.1676 5.93804 20.1676 11.0007C20.1676 16.0632 16.0635 20.1673 11.0009 20.1673ZM8.1502 12.0739L8.1618 12.0666C8.69321 13.821 8.95892 14.6982 8.95892 14.6982C9.06183 14.9828 9.20333 15.0336 9.37502 15.0104C9.54662 14.9871 9.63774 14.8943 9.74976 14.7862C9.74976 14.7862 10.113 14.4356 10.8396 13.7344L13.1779 15.4646C13.604 15.7 13.9116 15.5786 14.0174 15.0685L15.537 7.89903C15.7048 7.2317 15.4105 6.96405 14.8931 7.1759L5.97114 10.6222C5.36246 10.8668 5.3654 11.2074 5.86032 11.3592L8.1502 12.0739Z" fill="#64748B"/>
</svg>
