<svg width="48" height="48" viewBox="0 0 48 48" fill="none" xmlns="http://www.w3.org/2000/svg">
<path d="M19.9999 21.334H10.6666C10.313 21.334 9.97382 21.1935 9.72378 20.9435C9.47373 20.6934 9.33325 20.3543 9.33325 20.0007V10.6673C9.33325 10.3137 9.47373 9.97456 9.72378 9.72451C9.97382 9.47446 10.313 9.33398 10.6666 9.33398H19.9999C20.3535 9.33398 20.6927 9.47446 20.9427 9.72451C21.1928 9.97456 21.3333 10.3137 21.3333 10.6673V20.0007C21.3333 20.3543 21.1928 20.6934 20.9427 20.9435C20.6927 21.1935 20.3535 21.334 19.9999 21.334Z" fill="#FFA155"/>
<path d="M19.9999 38.668H10.6666C10.313 38.668 9.97382 38.5275 9.72378 38.2774C9.47373 38.0274 9.33325 37.6883 9.33325 37.3346V28.0013C9.33325 27.6477 9.47373 27.3085 9.72378 27.0585C9.97382 26.8084 10.313 26.668 10.6666 26.668H19.9999C20.3535 26.668 20.6927 26.8084 20.9427 27.0585C21.1928 27.3085 21.3333 27.6477 21.3333 28.0013V37.3346C21.3333 37.6883 21.1928 38.0274 20.9427 38.2774C20.6927 38.5275 20.3535 38.668 19.9999 38.668Z" fill="#FFA155"/>
<path d="M25.3333 10.668H38.6666V13.3346H25.3333V10.668Z" fill="#193BDA"/>
<path d="M38.6666 28H25.3333V30.6667H38.6666V28Z" fill="#193BDA"/>
<path d="M38.6666 34.668H25.3333V37.3346H38.6666V34.668Z" fill="#193BDA"/>
<path d="M38.6666 17.334H25.3333V20.0007H38.6666V17.334Z" fill="#193BDA"/>
</svg>
