<svg width="48" height="48" viewBox="0 0 48 48" fill="none" xmlns="http://www.w3.org/2000/svg">
<path d="M36.0001 39.9993H24.0001C23.6465 39.9993 23.3073 39.8589 23.0573 39.6088C22.8072 39.3588 22.6667 39.0196 22.6667 38.666V35.9993C22.6667 35.6457 22.8072 35.3066 23.0573 35.0565C23.3073 34.8065 23.6465 34.666 24.0001 34.666H36.0001C36.3537 34.666 36.6928 34.8065 36.9429 35.0565C37.1929 35.3066 37.3334 35.6457 37.3334 35.9993V38.666C37.3334 39.0196 37.1929 39.3588 36.9429 39.6088C36.6928 39.8589 36.3537 39.9993 36.0001 39.9993Z" fill="#193BDA"/>
<path d="M36.0001 8H12.0001C11.6465 8 11.3073 8.14047 11.0573 8.39052C10.8072 8.64057 10.6667 8.97971 10.6667 9.33333V12C10.6667 12.3536 10.8072 12.6928 11.0573 12.9428C11.3073 13.1929 11.6465 13.3333 12.0001 13.3333H36.0001C36.3537 13.3333 36.6928 13.1929 36.9429 12.9428C37.1929 12.6928 37.3334 12.3536 37.3334 12V9.33333C37.3334 8.97971 37.1929 8.64057 36.9429 8.39052C36.6928 8.14047 36.3537 8 36.0001 8Z" fill="#193BDA"/>
<path d="M36.0001 16H12.0001C11.6465 16 11.3073 16.1405 11.0573 16.3905C10.8072 16.6406 10.6667 16.9797 10.6667 17.3333V30.6667C10.6667 31.0203 10.8072 31.3594 11.0573 31.6095C11.3073 31.8595 11.6465 32 12.0001 32H36.0001C36.3537 32 36.6928 31.8595 36.9429 31.6095C37.1929 31.3594 37.3334 31.0203 37.3334 30.6667V17.3333C37.3334 16.9797 37.1929 16.6406 36.9429 16.3905C36.6928 16.1405 36.3537 16 36.0001 16Z" fill="#FFA155"/>
</svg>
