<svg width="48" height="48" viewBox="0 0 48 48" fill="none" xmlns="http://www.w3.org/2000/svg">
<path d="M14.6666 9.33398H10.6666C10.313 9.33398 9.97382 9.47446 9.72378 9.72451C9.47373 9.97456 9.33325 10.3137 9.33325 10.6673V37.334C9.33325 37.6876 9.47373 38.0267 9.72378 38.2768C9.97382 38.5268 10.313 38.6673 10.6666 38.6673H14.6666V9.33398Z" fill="#C4B5FD"/>
<path d="M17.3333 38.6673H30.6666V9.33398H17.3333V38.6673ZM23.9999 33.334C23.6463 33.334 23.3072 33.1935 23.0571 32.9435C22.8071 32.6934 22.6666 32.3543 22.6666 32.0007C22.6666 31.647 22.8071 31.3079 23.0571 31.0578C23.3072 30.8078 23.6463 30.6673 23.9999 30.6673C24.3535 30.6673 24.6927 30.8078 24.9427 31.0578C25.1928 31.3079 25.3333 31.647 25.3333 32.0007C25.3333 32.3543 25.1928 32.6934 24.9427 32.9435C24.6927 33.1935 24.3535 33.334 23.9999 33.334ZM23.9999 14.6673C24.3535 14.6673 24.6927 14.8078 24.9427 15.0578C25.1928 15.3079 25.3333 15.647 25.3333 16.0007C25.3333 16.3543 25.1928 16.6934 24.9427 16.9435C24.6927 17.1935 24.3535 17.334 23.9999 17.334C23.6463 17.334 23.3072 17.1935 23.0571 16.9435C22.8071 16.6934 22.6666 16.3543 22.6666 16.0007C22.6666 15.647 22.8071 15.3079 23.0571 15.0578C23.3072 14.8078 23.6463 14.6673 23.9999 14.6673ZM23.9999 22.6673C24.3535 22.6673 24.6927 22.8078 24.9427 23.0578C25.1928 23.3079 25.3333 23.647 25.3333 24.0007C25.3333 24.3543 25.1928 24.6934 24.9427 24.9435C24.6927 25.1935 24.3535 25.334 23.9999 25.334C23.6463 25.334 23.3072 25.1935 23.0571 24.9435C22.8071 24.6934 22.6666 24.3543 22.6666 24.0007C22.6666 23.647 22.8071 23.3079 23.0571 23.0578C23.3072 22.8078 23.6463 22.6673 23.9999 22.6673Z" fill="#FFA155"/>
<path d="M37.3333 9.33398H33.3333V38.6673H37.3333C37.6869 38.6673 38.026 38.5268 38.2761 38.2768C38.5261 38.0267 38.6666 37.6876 38.6666 37.334V10.6673C38.6666 10.3137 38.5261 9.97456 38.2761 9.72451C38.026 9.47446 37.6869 9.33398 37.3333 9.33398Z" fill="#193BDA"/>
</svg>
