<svg width="31" height="29" viewBox="0 0 31 29" fill="none" xmlns="http://www.w3.org/2000/svg">
<g filter="url(#filter0_dii_379_440)">
<rect x="3" y="2" width="24" height="24" rx="12" fill="white"/>
<path d="M10.5648 10.1336C10.4363 10.1637 10.5184 10.1582 10.4117 10.1719C9.95508 10.2703 10.2941 10.3578 10.5648 10.1336ZM18.5957 10.3168C18.6285 10.2949 18.7434 10.1828 18.3852 10.0734C18.407 10.1855 18.3113 10.1746 18.3113 10.2375C18.5766 10.4781 18.6859 10.8965 19.025 10.984C19.0906 10.6832 18.7242 10.5355 18.5957 10.3168ZM10.3215 10.0461C10.3625 10.2895 10.5457 9.78906 10.5484 9.61133C10.4773 9.65234 10.4062 9.69336 10.3324 9.72617C10.5047 9.81367 10.3543 9.90664 10.1684 10.0461C9.79102 10.5164 10.5211 9.67969 10.3215 10.0461ZM15 7C11.1336 7 8 10.1336 8 14C8 17.8637 11.1336 21 15 21C18.8664 21 22 17.8637 22 14C22 10.1336 18.8664 7 15 7ZM15.1859 9.34609L15.2188 9.35703C15.0875 9.52656 15.9023 10.0215 15.3172 10.0625C14.7703 10.2184 15.5469 9.92031 15.123 9.97227C15.3473 9.66055 14.9453 9.65508 15.1859 9.34609ZM11.8664 9.79453C11.6695 9.63047 11.0516 10.0187 11.2676 9.92578C11.8035 9.71523 11.3031 9.94766 11.4289 10.1992C11.3141 10.4371 11.3906 9.96406 11.1063 10.2457C10.9012 10.2922 10.398 10.757 10.4609 10.6148C10.4445 10.8363 9.86211 11.0988 9.78281 11.468C9.59141 11.9793 9.73633 11.4488 9.70078 11.2492C9.42734 10.902 8.92969 11.8371 9.07734 12.2062C9.32617 11.7687 9.30703 12.1598 9.12656 12.3539C9.30977 12.6902 8.95977 13.1277 9.30703 13.3766C9.46016 13.4121 9.76641 12.8625 9.63242 13.434C9.72539 12.9391 9.88945 13.5516 10.1547 13.4148C10.1711 13.6746 10.3324 13.5543 10.368 13.8688C10.8109 13.8359 11.2156 14.5852 10.6879 14.7273C10.7672 14.7055 10.923 14.8449 11.1035 14.7383C11.4098 14.9816 12.2164 15.0117 12.2383 15.6133C11.6832 15.8785 12.1016 16.6059 11.6203 16.8656C11.068 16.7836 11.4316 17.5465 11.1992 17.459C11.2922 18.0086 10.6414 17.3879 10.893 17.6914C11.3551 17.9758 10.6906 17.9184 10.8984 18.1262C10.666 18.077 11.0434 18.5582 11.1063 18.7359C11.4398 19.2773 10.8191 18.6156 10.6359 18.4352C10.4609 18.0852 10.048 17.4152 9.9332 16.8656C9.86758 16.0672 9.24961 15.5312 9.10742 14.752C8.96523 14.3172 9.49844 13.6199 9.21133 13.3766C8.9625 13.1824 9.06367 12.518 8.91602 12.168C9.28516 10.5684 10.4582 9.22031 11.8664 8.42188C11.7215 8.52852 12.6949 8.1457 12.5828 8.23867C12.5527 8.30703 13.1516 7.97891 13.5125 7.92969C13.4742 7.93516 12.5746 8.25781 12.8234 8.21406C12.4379 8.40273 12.7852 8.29609 12.9766 8.20039C12.5938 8.48203 12.2984 8.40273 11.8637 8.65156C11.4262 8.76641 11.5164 9.22031 11.2047 9.44727C11.3879 9.48008 11.8473 8.97422 12.1152 8.79648C12.7305 8.49844 11.8035 9.33789 12.3887 8.97695C12.1918 9.16016 12.2328 9.45273 12.1125 9.53477C12.0523 9.51836 12.3504 9.67695 11.8664 9.79453ZM12.8234 8.53672C12.7605 8.62148 12.673 8.80469 12.6211 8.69258C12.55 8.72813 12.5227 8.88125 12.3887 8.7582C12.468 8.70078 12.55 8.56406 12.3941 8.64883C12.4652 8.57227 13.0996 8.35625 13.0641 8.27422C13.1762 8.20312 13.1652 8.16758 13.0367 8.21133C12.9711 8.18945 13.1926 8.00352 13.4879 7.97891C13.5289 7.97891 13.5453 8.00625 13.4715 7.99805C13.0258 8.13477 13.2172 8.09648 13.518 7.99805C13.4031 8.06367 13.3238 8.08281 13.3047 8.11289C13.6055 8.00352 13.2883 8.19219 13.3566 8.17852C13.2719 8.22227 13.3703 8.23594 13.2062 8.29883C13.2363 8.27422 12.9383 8.47656 13.116 8.41641C12.9438 8.58047 12.8672 8.5832 12.8234 8.53672ZM13.0859 8.92773C13.0914 8.66523 13.4688 8.49844 13.4223 8.48477C13.8871 8.26602 13.2609 8.49297 13.6273 8.29609C13.7641 8.28242 14.0539 7.84492 14.4559 7.81758C14.8988 7.68359 14.6937 7.82578 15.0219 7.7L14.9562 7.75469C14.8988 7.76289 14.9699 7.86406 14.7621 8.01719C14.7402 8.25508 14.3656 8.1457 14.5516 8.4C14.4313 8.22773 14.2508 8.39453 14.4777 8.41094C14.2344 8.59687 13.6684 8.62969 13.3977 8.93867C13.2227 9.19023 13.0613 9.11094 13.0859 8.92773ZM15.0301 9.80273C14.8441 10.2512 14.6637 9.73711 14.9918 9.65508C15.0738 9.69883 15.1066 9.7125 15.0301 9.80273ZM14.3301 8.90586C14.2754 8.70352 14.3191 8.81016 14.6445 8.71445C14.8688 8.87578 14.4449 8.98242 14.3301 8.90586ZM19.4215 16.9313C19.1645 16.4883 19.7332 16.0781 19.9246 15.7063C19.9 16.141 19.8453 16.5703 19.4215 16.9313ZM20.3895 11.8699C20.1105 11.8918 19.859 11.9574 19.6074 11.7988C19.0277 11.1645 19.7141 12.5152 19.9055 11.9629C20.5945 12.2254 19.8945 13.3574 19.4598 13.2398C19.2164 12.7148 18.9156 12.1379 18.3852 11.8809C18.7926 12.332 18.9949 12.8871 19.4324 13.2945C19.4625 13.8633 20.0395 13.0867 20.0039 13.527C20.0586 14.2844 19.148 14.7383 19.3066 15.4984C19.6457 16.1902 18.6531 16.316 18.7652 16.9367C18.366 17.3824 17.9395 17.984 17.223 17.8883C17.223 17.5109 17.0316 17.191 16.9879 16.8027C16.5996 16.3105 17.398 15.7828 16.9031 15.2688C16.3316 15.1402 17.0207 14.3527 16.4328 14.4266C16.0801 14.0738 15.5633 14.4156 15.0574 14.4184C14.423 14.4785 13.7695 13.6391 14.0512 13.0457C13.827 12.4277 14.7621 12.2473 14.7867 11.7031C15.2352 11.3285 15.8723 11.375 16.4793 11.2875C16.4355 11.7223 16.8949 11.725 17.2422 11.8699C17.4363 11.3996 18.0406 11.9465 18.4535 11.6484C18.5957 10.9539 18.0516 11.3723 17.7398 11.1508C17.3625 10.5984 18.5465 10.8664 18.4234 10.5766C17.9641 10.5738 18.2238 10.0105 17.8984 10.325C18.191 10.377 17.8465 10.6066 17.8547 10.3441C17.4117 10.2156 17.8383 10.8473 17.6141 10.9074C17.2723 10.7652 17.4336 11.0687 17.4691 11.1152C17.3215 11.4352 17.141 10.6449 16.7227 10.6668C16.307 10.2867 16.5586 10.8391 16.9195 10.9293C16.843 10.9512 16.9633 11.2656 16.8676 11.1316C16.5695 10.7215 16.0035 10.448 15.6672 10.9512C15.6316 11.4215 14.6746 11.5555 14.8277 11.0059C14.6035 10.4371 15.5223 10.9895 15.4375 10.5355C14.8469 10.1445 15.5988 10.2703 15.7984 9.90391C16.2523 9.91758 15.8176 9.53203 16.0309 9.41992C16.009 9.83828 16.3781 9.75898 16.6707 9.67969C16.5996 9.43906 16.8457 9.44727 16.6953 9.24766C17.3734 8.97695 16.1785 9.37344 16.4191 8.78008C16.1266 8.57773 16.2961 9.22578 16.4191 9.29414C16.4273 9.49375 16.2578 9.73984 16.0254 9.32148C15.6863 9.54297 15.7219 9.09727 15.7 9.14375C15.6617 8.97148 15.957 8.96328 15.9598 8.6625C15.9352 8.47109 15.9406 8.36992 16.0773 8.35898C16.0883 8.38633 16.6379 8.39453 16.832 8.62148C16.3016 8.51484 16.7527 8.70898 16.9906 8.81836C16.7363 8.61875 17.0918 8.81836 16.884 8.59141C16.966 8.60781 16.657 8.27969 16.9742 8.5668C16.802 8.36172 17.3105 8.42188 17.0098 8.26875C17.45 8.3918 17.1902 8.27969 16.9305 8.16758C16.2141 7.74102 18.1965 8.74453 17.3871 8.29883C17.9039 8.41094 16.2824 7.89961 17.0207 8.12383C16.7391 8.00078 17.0125 8.06914 17.2668 8.14844C16.8102 8.00625 16.1266 7.74102 16.1539 7.73008C16.3125 7.74102 16.4684 7.77656 16.6188 7.82031C17.0863 7.95977 16.4848 7.7875 16.6133 7.79023C18.2211 8.20312 19.6293 9.28047 20.4852 10.6887C20.6848 10.8992 21.2289 12.291 20.9445 11.673C21.073 12.1652 21.0922 12.6957 21.1605 13.1988C21.0184 13.0402 20.8598 12.4551 20.723 12.1297C20.6656 12.2555 20.6 11.952 20.3895 11.8699Z" fill="#969AA1"/>
</g>
<defs>
<filter id="filter0_dii_379_440" x="-1" y="0" width="32" height="32" filterUnits="userSpaceOnUse" color-interpolation-filters="sRGB">
<feFlood flood-opacity="0" result="BackgroundImageFix"/>
<feColorMatrix in="SourceAlpha" type="matrix" values="0 0 0 0 0 0 0 0 0 0 0 0 0 0 0 0 0 0 127 0" result="hardAlpha"/>
<feOffset dy="2"/>
<feGaussianBlur stdDeviation="2"/>
<feComposite in2="hardAlpha" operator="out"/>
<feColorMatrix type="matrix" values="0 0 0 0 0 0 0 0 0 0 0 0 0 0 0 0 0 0 0.2 0"/>
<feBlend mode="multiply" in2="BackgroundImageFix" result="effect1_dropShadow_379_440"/>
<feBlend mode="normal" in="SourceGraphic" in2="effect1_dropShadow_379_440" result="shape"/>
<feColorMatrix in="SourceAlpha" type="matrix" values="0 0 0 0 0 0 0 0 0 0 0 0 0 0 0 0 0 0 127 0" result="hardAlpha"/>
<feOffset dy="-1"/>
<feGaussianBlur stdDeviation="0.5"/>
<feComposite in2="hardAlpha" operator="arithmetic" k2="-1" k3="1"/>
<feColorMatrix type="matrix" values="0 0 0 0 0 0 0 0 0 0 0 0 0 0 0 0 0 0 0.1 0"/>
<feBlend mode="multiply" in2="shape" result="effect2_innerShadow_379_440"/>
<feColorMatrix in="SourceAlpha" type="matrix" values="0 0 0 0 0 0 0 0 0 0 0 0 0 0 0 0 0 0 127 0" result="hardAlpha"/>
<feOffset dy="2"/>
<feGaussianBlur stdDeviation="1"/>
<feComposite in2="hardAlpha" operator="arithmetic" k2="-1" k3="1"/>
<feColorMatrix type="matrix" values="0 0 0 0 1 0 0 0 0 1 0 0 0 0 1 0 0 0 1 0"/>
<feBlend mode="normal" in2="effect2_innerShadow_379_440" result="effect3_innerShadow_379_440"/>
</filter>
</defs>
</svg>
