<?xml version="1.0" encoding="UTF-8"?>
<!DOCTYPE svg PUBLIC "-//W3C//DTD SVG 1.1//EN" "http://www.w3.org/Graphics/SVG/1.1/DTD/svg11.dtd">
<!-- Creator: CorelDRAW -->
<svg xmlns="http://www.w3.org/2000/svg" xml:space="preserve" width="199.955mm" height="199.955mm" version="1.1" style="shape-rendering:geometricPrecision; text-rendering:geometricPrecision; image-rendering:optimizeQuality; fill-rule:evenodd; clip-rule:evenodd"
viewBox="0 0 19995.46 19995.46"
 xmlns:xlink="http://www.w3.org/1999/xlink"
 xmlns:xodm="http://www.corel.com/coreldraw/odm/2003">
 <defs>
  <style type="text/css">
   <![CDATA[
    .fil0 {fill:black;fill-rule:nonzero}
   ]]>
  </style>
 </defs>
 <g id="Слой_x0020_1">
  <metadata id="CorelCorpID_0Corel-Layer"/>
  <g id="_1952032989280">
   <path class="fil0" d="M8944.14 4680.17c30.92,-23.95 64.28,-50.25 18.9,-16.11 -5.31,3.83 -12.19,10.1 -18.9,16.11z"/>
   <path class="fil0" d="M8939.79 4684.09c1.39,-1.65 2.79,-2.79 4.35,-4.18 -30.13,23.69 -57.39,44.94 -4.35,4.18z"/>
   <path class="fil0" d="M8725.98 1272.77c65.67,2.78 104.6,12.19 44.24,-2.79 -17.07,-4.35 -31.35,-3.05 -44.24,2.79z"/>
   <path class="fil0" d="M14854.06 8703.5c-189.42,0 -431.8,-76.99 -538.05,-171.23 -106.26,-94.06 -236.63,-170.96 -289.67,-170.96 -53.22,0 -90.58,74.2 -82.74,165.48 7.84,91.27 -85.52,132.03 -206.93,90.75 -121.23,-41.29 -269.38,-74.9 -329.3,-74.9 -59.66,0 -146.57,52.08 -193.34,116.35 -46.51,64.28 -171.49,55.74 -277.48,-18.2 0,0 0,0 55.04,-98.15 55.04,-98.59 193.09,-43.29 110.35,-181.16 -82.48,-138.04 -82.48,-138.04 -82.48,-138.04 -136.91,-91.27 -297.94,-165.65 -358.99,-165.65 -60.62,0 -271.91,-86.83 -468.91,-192.91 0,0 0,0 -82.74,192.91 -82.73,192.91 -138.04,444.96 -275.82,484.85 -137.78,39.88 -634.82,426.05 -386.43,370.57 248.39,-55.04 248.39,-55.04 248.39,-55.04 75.77,-60.61 349.07,-122.8 606.95,-137.78 0,0 0,0 83,27.44 82.47,27.43 496.34,82.47 524.03,165.47 27.7,83 27.7,82.74 27.7,82.74 199.09,167.3 429.71,334.35 512.01,372.84 82.48,37.54 218.43,24.91 302.13,-28.13 83.69,-53.04 207.63,-90.14 275.82,-82.74 68.45,7.84 235.76,14.29 372.41,14.29 136.64,0 409.68,-44.51 607.21,-99.29 0,0 0,0 55.04,-102.07 55.04,-102.07 55.04,-102.07 55.04,-102.07 45.38,-146.06 -72.11,-265.37 -262.24,-265.37z"/>
   <path class="fil0" d="M14826.63 7973.23c53.04,-0.96 196.13,-1.14 317.1,-0.96 121.67,0.96 258.06,-35.97 303.7,-81.09 45.37,-45.37 -53.65,-144.05 -220.78,-220.08 0,0 0,0 -27.7,-82.3 -27.69,-82.74 -27.69,-82.74 -27.69,-82.74 -83.44,-152.06 -185.77,-192.65 -227.4,-90.31 -41.98,102.07 -150.24,141.7 -241.51,88.22 0,0 0,0 -82.74,97.46 -82.47,97.72 -82.47,97.72 -82.47,97.72 -106.43,45.37 -156.25,125.32 -110.61,177.66 45.46,52.43 346.89,97.37 400.1,96.42z"/>
   <path class="fil0" d="M15530.16 10114.39c-54.86,-180.63 -54.86,-180.63 -54.86,-180.63 -76.04,-105.99 -176.98,-192.91 -224.44,-192.91 -47.03,0 -177.41,273.04 -161.99,606.95 0,0 0,0 110.34,82.48 110.35,82.74 358.82,331.56 441.47,469.6 82.65,138.04 82.74,138.04 82.74,138.04 136.65,166.87 273.3,208.07 303.52,91.45 0,0 0,0 -55.3,-266.59 -55.05,-266.33 -386.17,-567.93 -441.48,-748.39z"/>
   <path class="fil0" d="M9990.82 0.52c-5512.86,0 -9997.95,4485.18 -9997.95,9997.52 0,5513.13 4485.17,9997.95 9997.95,9997.95 5512.61,0 9997.52,-4484.91 9997.52,-9997.95 0,-5512.43 -4484.91,-9997.52 -9997.52,-9997.52zm-8919.14 10429.85c-27.43,110.6 -27.43,110.6 -27.43,110.6 14.54,29.7 26.3,53.48 -153.02,-22.38 -9.93,-172.36 -15.25,-345.67 -15.25,-520.81 0,-76.47 1.14,-152.76 2.97,-229.06 30.39,75.77 55.04,138.31 110.34,358.56 55.31,220.26 0,0 110.35,192.91 110.34,192.91 -0.26,0 -27.96,110.18zm7422.72 3973.33c0,193.34 27.43,165.65 82.48,441.47 55.04,276.26 0,0 27.69,110.61 27.43,110.17 -55.04,192.91 -193.34,276.08 -137.79,82.74 -137.79,82.74 -137.79,82.74 75.6,45.2 38.5,168.87 -82.99,275.56 0,0 0,0 -82.74,55.04 -82.48,55.04 -82.48,55.04 -82.48,55.04 -45.37,30.23 -70.28,129.77 -55.3,220.78 0,0 0,0 -27.44,110.35 -27.43,110.35 -27.43,110.35 -27.43,110.35 14.98,45.37 27.43,126.28 27.43,179.49 0,53.04 0,133.43 0,179.07 0,45.37 -43.28,120.01 -96.58,165.47 -53.04,45.64 -121.41,194.74 -151.89,331.39 0,0 0,0 -82.74,192.91 -82.48,193.08 0,0 -54.87,82.74 -55.3,82.73 -55.3,82.73 -55.3,82.73 -75.77,60.62 -138.04,110.35 -138.04,275.83 0,165.47 0,0 110.34,54.86 110.35,55.05 110.35,55.05 110.35,55.05 -60.88,76.03 -110.35,181.85 -110.35,235.06 0,53.21 18.47,127.68 41.46,165.47 22.82,38.06 41.46,69.16 41.46,69.16 0,0 0,0 82.47,82.73 82.74,83 82.74,83 82.74,83 -30.4,91.01 6.71,289.67 82.74,441.3 5.31,10.8 9.67,21.69 14.54,32.22 -201.36,-49.55 -400.45,-105.55 -596.58,-168.17 -13.59,-14.55 -26.48,-29.53 -38.76,-43.29 -98.85,-113.56 -216.6,-293.76 -262.23,-399.84 0,0 0,0 -110.35,-193.34 -110.35,-193.35 0,0 -193.08,-193.35 -193.09,-192.91 -193.09,-192.91 -193.09,-192.91 106.26,-91.27 155.99,-240.11 110.35,-331.38 0,0 0,0 -55.04,-82.74 -55.05,-82.74 -55.05,-82.74 -55.05,-82.74 30.4,-91.01 5.58,-264.5 -55.04,-385.99 -60.88,-121.93 -147.71,-382.08 -193.08,-580.04 0,0 0,0 -55.31,-82.48 -55.04,-82.73 27.7,-165.65 0,-248.38 -27.43,-82.74 -27.43,-82.74 -27.43,-82.74 -91.01,-75.34 -140.57,-187.34 -110.35,-247.95 0,0 0,0 -55.04,-220.52 -55.3,-221.22 -55.3,-221.22 -55.3,-221.22 -60.62,121.67 -110.35,196.13 -110.35,166.17 0,-30.91 -49.55,-117.74 -110.34,-193.78 0,0 0,0 -82.74,-138.04 -82.48,-137.78 -82.48,-137.78 -82.48,-137.78 -106.43,76.03 -193.61,113.14 -193.61,82.74 0,-30.66 -68.19,-117.49 -151.36,-193.35 -83.44,-75.77 -151.89,-138.04 -151.89,-138.04 0,0 0,0 -220.78,-193.34 -220.78,-193.09 0,0 -82.48,-55.04 -83,-55.05 -83,-55.05 -83,-55.05 -91.01,-105.99 -165.47,-236.45 -165.47,-289.84 0,-52.78 0,-139.87 0,-193.08 0,-53.22 -37.37,-146.32 -83,-206.68 -45.38,-60.61 -82.74,-110.34 -82.74,-110.34 0,0 0,0 27.87,-165.48 27.43,-165.91 0,0 0,-193.34 0,-193.35 0,-193.35 0,-193.35 75.77,106.43 138.04,149.8 138.04,97.02 0,-53.04 -49.82,-159.03 -110.34,-235.06 -60.62,-75.33 -110.35,-137.78 -110.35,-137.78 0,0 -18.64,-31.09 -41.46,-68.89 -22.81,-38.23 -66.36,-69.15 -96.58,-69.15 -30.4,0 -111.04,-37.1 -179.24,-82.74 -68.45,-45.37 -124.19,-82.48 -124.19,-82.48 0,0 0,0 -138.04,-165.47 -138.31,-166.17 0,0 -138.31,-110.87 -137.78,-110.17 -137.78,-110.17 -137.78,-110.17 -15.24,-45.64 -114.52,-95.37 -220.78,-110.35 0,0 0,0 -165.65,-165.65 -165.65,-165.65 -165.65,-165.65 -165.65,-165.65 -14.98,91.28 -89.61,128.38 -165.65,82.74 0,0 0,0 -248.21,-165.65 -248.21,-165.48 0,0 -82.74,-165.48 -82.74,-165.47 -110.34,55.31 -193.08,0 -82.74,-55.04 -193.35,-27.43 -386.43,-192.91 -192.91,-165.65 0,0 -138.04,-82.73 -138.04,-82.74 27.87,-110.35 0,-220.78 -27.44,-110.35 -27.44,-110.35 -27.44,-110.35 -60.87,-61.31 -110.34,-110.87 -193.34,-165.91 -82.48,-55.04 -82.48,-55.04 -82.48,-55.04 -80.21,-182.29 -191.51,-467.51 -248.39,-634.65 0,0 0,0 -82.73,0 -72.12,0 -81.61,0 -82.48,0 80.39,-3233.39 1853.33,-6053.88 4464.19,-7608.13 101.37,43.28 205.97,75.16 254.13,75.16 60.62,0 302.56,93.1 537.8,206.93 235.23,113.57 545.63,206.93 689.94,206.93 144.32,0 299.34,68.2 344.98,151.37 45.37,83.43 82.73,201.62 82.73,262.5 0,60.87 0,171.48 0,245.6 0,74.46 24.65,179.49 55.05,234.36 30.39,54.87 55.04,99.29 55.04,99.29 0,0 0,0 -27.7,110.34 -27.43,110.35 -27.43,110.35 -27.43,110.35 0,45.38 12.45,138.74 27.43,207.19 15.25,68.2 -9.66,204.84 -55.04,303.26 -45.63,98.59 -138.74,179.5 -206.67,179.5 -68.45,0 -124.19,49.55 -124.19,110.34 0,60.79 -74.64,166.35 -165.65,234.37 -91.28,68.45 -252.57,24.65 -358.82,-96.33 0,0 0,0 -110.35,-82.73 -110.35,-82.74 -110.35,-82.74 -110.35,-82.74 -75.77,-15.24 -119.4,-83.17 -96.58,-151.89 23.08,-68.19 97.46,-123.93 165.65,-123.93 68.19,0 192.39,-136.39 275.82,-303.52 83.44,-167.04 64.71,-415.43 -41.46,-551.91 0,0 0,0 -82.73,-55.3 -82.74,-55.04 -82.74,-55.04 -82.74,-55.04 -91.01,212.42 -202.75,485.54 -248.21,607.21 -45.64,121.4 -151.2,257.88 -234.81,303.25 -83.6,45.38 -139.17,138.92 -123.93,206.93 14.98,68.63 -53.04,136.39 -151.89,151.89 -98.85,14.98 -166.87,-78.12 -151.63,-207.19 14.98,-128.81 -59.22,-184.55 -165.65,-123.93 0,0 0,0 -82.73,55.56 -82.74,54.87 -358.56,275.56 -468.91,386 -110.35,110.34 -248.39,276.08 -248.39,358.99 0,82.3 0,82.3 0,82.3 -60.87,121.67 -91.71,295.42 -68.89,386.7 22.82,91.27 202.75,314.75 400.02,496.6 0,0 0,0 0,82.73 0,82.48 0,82.48 0,82.48 30.22,227.92 92.14,339.4 138.04,248.21 45.38,-91.01 157.38,-239.67 248.21,-330.86 91.28,-91.27 190.56,-227.66 220.96,-303.69 30.22,-75.77 55.04,-180.89 55.04,-234.37 0,-53.47 31.09,-164.95 69.15,-248.38 37.54,-83 105.99,-251.44 151.37,-372.59 0,0 0,0 55.3,-82.73 54.87,-82.74 54.87,-82.74 54.87,-82.74 182.28,121.23 399.58,276.52 483.19,345.15 83.43,68.19 89.62,160.86 13.85,206.67 0,0 0,0 -27.44,82.73 -27.69,82.74 -27.69,82.74 -27.69,82.74 121.23,14.98 288.97,-34.14 372.4,-110.34 83.44,-75.77 151.89,-50.95 151.89,55.3 0,106.25 37.11,329.99 82.48,496.6 0,0 0,0 82.74,-54.87 83,-55.3 138.04,303 138.04,441.3 0,138.04 0,138.04 0,138.04 0,141.53 18.64,336 41.46,432.07 23.08,96.32 28.82,261.8 14.02,367.96 0,0 0,0 -55.31,82.74 -54.86,83 -54.86,83 -54.86,83 -136.91,-30.66 -297.95,-92.67 -359,-138.3 -60.88,-45.64 26.04,-256.66 193.08,-469.43 0,0 0,0 27.7,-82.48 27.43,-82.74 27.43,-82.74 27.43,-82.74 -212.41,121.41 -473.08,239.68 -579.34,262.24 -106.25,22.82 -300.29,216.6 -262.23,262.23 38.06,45.64 118.71,144.75 179.24,220.96 60.61,75.59 54.34,138.04 -13.85,138.04 -68.46,0 -211.29,43.29 -317.54,96.06 -106.25,53.22 -242.9,97.02 -303.26,97.02 -60.87,0 -141.52,30.92 -179.23,69.16 -38.06,37.53 -112.7,124.62 -165.65,192.91 -53.04,68.45 -146.32,161.29 -206.93,206.93 -60.62,45.37 -209.72,256.48 -331.13,469.16 0,0 0,0 -55.04,82.48 -55.31,82.74 -110.35,165.65 -220.78,331.39 -110.35,165.65 -165.91,193.08 -206.93,275.56 -41.46,82.74 -41.46,82.74 -41.46,82.74 -75.77,121.23 -88.22,295.15 -27.7,386.43 0,0 0,0 69.16,82.47 69.15,82.48 69.15,82.48 69.15,82.48 -167.05,106.43 -359.69,125.15 -427.71,41.72 -68.2,-83.18 -192.39,-238.46 -275.83,-344.72 -83.43,-106.25 -220.08,-162.25 -303.51,-124.19 -83.18,38.06 -213.81,68.63 -289.85,68.63 -75.77,0 -243.59,74.46 -372.4,165.65 -128.81,91.18 -309.01,327.2 -400.02,524.47 0,0 0,0 0,82.48 0,83 27.7,221.21 165.65,358.99 138.04,138.04 275.82,193.35 358.82,220.78 83,27.43 82.74,27.43 82.74,27.43 45.64,-30.22 157.38,-141.96 248.39,-248.21 0,0 0,0 110.34,-55.04 110.35,-55.04 110.35,-55.04 110.35,-55.04 60.62,75.59 85.52,212.24 55.04,303.51 -30.39,91.02 43.98,239.68 165.48,330.87 0,0 0,0 83,55.04 82.47,55.04 82.47,55.04 82.47,55.04 15.24,76.3 58.53,206.5 96.59,289.85 38.06,83.34 124.89,182.72 193.34,220.78 68.2,38.06 204.85,74.9 303.26,82.47 98.85,7.84 222.87,1.4 275.82,-13.85 52.95,-15.24 183.68,-89.44 289.85,-165.65 0,0 0,0 110.34,-54.86 110.35,-55.05 110.35,-55.05 110.35,-55.05 76.03,0 237.15,86.84 358.82,192.91 0,0 0,0 248.21,27.87 248.39,27.18 248.39,27.18 248.39,27.18 45.37,-45.2 95.19,-51.39 110.35,-13.85 14.98,37.8 126.72,155.98 248.21,262.67 0,0 0,0 82.74,82.74 82.47,82.47 138.04,110.17 386.43,192.91 248.38,82.74 248.38,82.74 248.38,82.74 14.72,0 151.37,174.01 303.26,386.16 0,0 0,0 82.48,27.44 83,27.69 83,27.69 83,27.69 105.99,45.38 366.83,144.75 579.34,220.96 0,0 0,0 138.04,55.04 138.04,55.04 220.78,110.34 303.69,138.04 82.47,27.43 82.47,27.43 82.47,27.43 106.26,114.1 118.71,350.03 27.7,524.21 0,0 0,0 -110.35,165.48 -111.04,167.3 -0.43,1.65 -0.43,194.74zm-3587.43 -3421.26c0,0 0,0 138.04,-82.47 138.05,-82.74 138.05,-82.74 138.05,-82.74 15.24,45.2 83.6,126.02 151.62,179.06 68.46,53.04 124.46,152.33 124.46,220.78 0,68.2 -56,123.93 -124.46,123.93 -68.02,0 -310.13,0 -537.79,0 0,0 0,0 -165.65,0 -276.09,0 -276.09,0 -276.09,0 151.81,-131.33 400.19,-292.63 551.82,-358.56zm-793.15 -179.49c-64.53,-52.78 -191.69,-96.07 -282.7,-96.07 -91.27,0 -116.18,-62.44 -55.3,-138.3 60.87,-76.29 188.03,-76.29 282.96,0 94.67,75.6 262.5,138.3 372.41,138.3 109.91,0 200.05,43.29 200.05,96.07 0,53.04 -90.14,97.02 -200.05,97.02 -109.91,0 -252.83,-43.81 -317.37,-97.02zm5814.99 -6718.75c0,0 0,0 -275.82,82.74 -275.82,82.73 0,0 -220.52,138.04 -220.95,138.3 0,0 -358.82,276.08 -67.32,51.82 -67.32,51.82 -67.32,51.82 -36.84,28.13 -272.17,304.39 -522.82,613.92 0,0 0,0 -155.28,51.64 -165.48,55.04 -110.35,165.65 -193.09,0 -82.74,-165.21 0,0 -191.69,-165.21 -191.95,-165.65 26.04,-138.31 0,-276.26 -26.47,-137.78 -166.87,-220.52 0,-330.86 166.87,-110.35 166.87,-110.35 166.87,-110.35 59.22,-273.3 107.65,-497.04 107.65,-580.04 0,-82.47 165.91,-524.03 165.91,-606.68 0,-82.74 27.43,-331.39 27.43,-413.87 0,-82.73 0,-82.73 0,-82.73 0,-30.92 -12.45,-117.32 -27.43,-193.61 0,0 0,0 -82.74,-137.78 -83,-138.48 -83,-138.48 -83,-138.48 -60.62,-114.26 -60.62,-337.83 0,-496.34 0,0 0,0 220.95,-165.47 186.91,-140.13 186.91,-140.13 186.91,-140.13 54.86,-103.47 43.11,-188.04 -26.31,-188.04 0,0 0,0 -49.99,25.09 -110.34,54.86 -496.77,275.56 -552.08,358.55 -55.04,82.48 -275.82,358.56 -386.43,386.17 -110.34,27.44 -110.34,27.44 -110.34,27.44 -83.44,-14.98 -210.85,-127.25 -282.97,-248.22 -72.11,-121.23 -130.9,-303.95 -130.9,-406.02 0,-14.02 -7.4,-32.05 -19.85,-51.65 918.04,-311.53 1901.31,-480.66 2923.69,-480.66 464.99,0 921.96,35.01 1368.31,102.77 -23.95,57.39 15.68,-31.09 -50.69,147.97 -82.73,222.35 -55.04,80.38 -193.08,163.65 -138.04,82.47 -138.04,82.47 -138.04,82.47 75.77,75.6 94.23,199.79 41.45,275.82 -53.04,75.34 -96.58,138.05 -96.58,138.05 0,0 0,0 -165.65,110.17 -165.48,110.34 -165.48,110.34 -165.48,110.34 91.01,61.06 128.12,172.36 82.48,247.96 0,0 0,0 -121.93,303.95 -121.67,303.69 66.8,137.78 0,248.39 -66.36,110.34 -16.11,110.34 -126.55,386.16 -110.43,275.83 0,0 82.74,110.35 83,110.35 27.44,110.35 0,193.35 -27.69,82.73 -27.69,82.73 -27.69,82.73 -120.63,182.72 -369.28,405.59 -551.3,496.78zm1304.21 2414.46c3.66,68.2 -173.31,306.92 -241.68,344.54 0,0 0,0 -68.89,14.02 -68.89,14.02 0,-317.1 0,-399.84 0,-82.74 96.58,-110.34 193.08,-165.47 96.59,-55.31 96.59,-55.31 96.59,-55.31 7.58,75.69 16.81,193.87 20.9,262.06zm5249.24 8043.25c0,0 0,0 -14.02,55.05 -13.85,54.86 -206.67,372.4 -220.52,483.19 -14.02,110.17 -41.72,123.75 -69.15,192.91 -27.7,69.15 -55.05,82.73 -82.74,96.76 -27.7,13.32 -27.7,13.32 -27.7,13.32 -39.62,-7.14 -93.1,-13.32 -118.7,-13.32 -25.78,0 -109.22,-87.1 -184.81,-193.35 0,0 0,0 27.43,-54.87 27.43,-55.56 27.43,-55.56 27.43,-55.56 97.29,-159.03 205.28,-316.85 240.12,-350.03 34.84,-33.18 231.14,-279.48 436.24,-546.59 0,0 0,0 110.35,-179.24 110.35,-179.49 110.35,-179.49 110.35,-179.49 -60.53,174.27 -166,503.39 -234.28,731.22zm2552.33 -3724.68c0,0 0,0 -110.35,-152.06 -110.34,-151.89 -331.12,-482.76 -413.86,-550.78 -82.74,-68.19 -551.9,-401.4 -634.38,-373.54 -83,27.7 -83,27.7 -83,27.7 -258.05,-15.24 -804.21,-164.26 -1214.16,-331.39 0,0 0,0 -193.08,-27.43 -193.35,-27.7 -193.35,-27.7 -193.35,-27.7 303.52,197.27 601.47,402.37 662.26,455.58 60.87,52.78 222.17,108.78 358.82,123.76 0,0 0,0 82.73,27.7 82.48,27.43 82.48,27.43 82.48,27.43 76.03,53.91 138.04,193.78 138.04,311.1 0,117.48 -148.84,387.56 -330.86,600.06 0,0 0,0 -248.39,174.45 -248.39,175.14 -689.68,266.85 -800.29,239.16 -110.35,-27.44 -110.35,-27.44 -110.35,-27.44 136.65,197.27 397.23,283.92 579.52,193.09 0,0 0,0 82.47,-55.05 82.74,-55.3 27.7,331.39 0,414.13 -27.69,82.47 -386.17,524.03 -441.3,634.64 -55.3,110.35 -414.12,496.34 -524.21,606.69 -110.34,110.34 -110.34,110.34 -110.34,110.34 30.39,106.43 92.4,503.75 138.04,883.21 0,0 0,0 -27.43,110.17 -27.7,110.35 -275.83,441.3 -386.43,579.77 -110.35,137.78 -248.22,275.56 -353.25,358.56 -104.86,83.18 -115.66,386.69 -225.83,662.52 -110.35,275.56 -248.39,413.6 -414.3,468.73 -165.48,55.3 -165.48,55.3 -165.48,55.3 -273.29,91.01 -546.15,60.18 -607.2,-68.89 -60.62,-128.81 -135,-358.99 -165.48,-510.62 0,0 0,0 -95.19,-82.48 -95.19,-82.74 -125.59,-469.43 -180.63,-634.64 -55.31,-165.65 -55.31,-165.65 -55.31,-165.65 30.4,-151.63 61.49,-313.36 69.16,-359 7.66,-45.63 43.28,-150.67 79.51,-234.54 36.14,-83.43 65.67,-269.63 65.67,-414.12 0,-144.05 -58.96,-311.79 -131.08,-372.15 0,0 0,0 -82.99,0 -82.48,0 -275.83,-276.08 -358.83,-386.69 -82.47,-110.34 -82.47,-110.34 -82.47,-110.34 30.22,-273.56 -6.88,-522.12 -82.74,-553.04 -76.03,-31.09 -212.68,-93.36 -303.52,-138.04 -91.01,-44.68 -264.76,-43.98 -386.17,1.65 0,0 0,0 -82.73,55.31 -82.74,54.86 -138.04,0 -220.96,0 -82.47,0 -82.47,0 -82.47,0 -167.05,0 -303.52,0 -386.43,-82.74 -82.91,-82.74 -82.74,-82.74 -82.74,-82.74 -136.65,45.38 -248.21,82.74 -358.82,-55.04 -110.35,-138.3 -138.04,-220.96 -193.09,-303.69 -55.3,-82.74 -55.3,-82.74 -55.3,-82.74 -112.44,-227.66 -211.98,-562.71 -220.52,-744.99 0,0 0,0 15.42,-110.17 15.41,-110.35 -98.15,-165.65 0,-235.06 98.59,-68.63 149.97,-317.28 315.45,-550.78 165.65,-233.67 165.65,-345.84 386.43,-621.66 220.78,-276.09 0,0 220.78,-358.82 220.51,-359 0,0 27.69,-429.28 27.44,-429.11 27.44,-429.11 27.44,-429.11 -74.56,235.85 -129.86,357.78 -122.98,270.69 6.45,-86.84 -12.89,-269.64 -43.28,-406.29 0,0 0,0 55.3,-167.31 55.04,-167.3 110.35,29.27 317.8,-1.65 207.37,-30.4 207.37,-30.4 207.37,-30.4 29.7,-57.56 29.26,-157.63 -1.13,-221.91 -30.4,-64.71 -80.22,-210.85 -110.35,-323.98 0,0 0,0 55.04,-165.22 55.04,-165.65 55.04,-165.65 55.04,-165.65 151.89,91.02 276.09,78.39 276.09,-27.86 0,-106 -31.36,-174.45 -69.15,-151.37 -38.06,22.38 -118.71,66.1 -179.07,96.06 -61.05,30.66 -248.21,208.07 -264.76,159.03 -16.81,-49.29 -30.65,-151.89 -30.65,-227.66 0,-75.77 70.71,-243.77 157.37,-372.4 0,0 0,0 0,-7.15 0,-6.7 0,-6.7 0,-6.7 -52.78,-113.83 -133.69,-318.5 -179.5,-455.15 0,0 0,0 27.7,-41.98 27.7,-41.02 41.46,-193.08 55.74,-193.08 14.28,0 14.54,0 14.54,0 67.76,0 166.61,92.84 219.82,207.19 0,0 0,0 6.88,82.74 7.15,82.74 89.45,193.08 117.06,248.21 27.43,55.05 124.19,193.09 124.19,248.22 0,55.13 0,55.04 0,55.04 0,91.27 173.75,-8.54 386.17,-220.52 0,0 0,0 193.34,-110.34 193.09,-110.35 193.09,-110.35 193.09,-110.35 166.87,60.62 382.77,110.35 479.53,110.35 96.59,0 365.27,-210.86 596.58,-469.17 0,0 0,0 27.44,-82.74 27.69,-82.48 275.82,-247.95 413.86,-408.99 138.3,-160.59 138.3,-160.59 138.3,-160.59 -182.28,88.22 -436.94,116.18 -565.75,61.74 -129.07,-54.17 -147.97,-372.14 -41.46,-705.79 0,0 0,0 -82.73,-82.74 -82.74,-82.48 -165.65,331.39 -300.04,414.12 -134.38,82.48 -31.09,468.74 -10.1,473.53 20.99,4.87 20.99,4.87 20.99,4.87 -174.88,373.8 -404.63,618.27 -511.06,542.41 -106.25,-76.03 -193.08,-138.3 -193.08,-138.3 0,0 0,0 -82.74,55.31 -82.48,55.3 -303.52,-220.78 -386.17,-331.13 -83,-110.35 55.04,-331.39 165.48,-441.73 110.34,-110.17 441.47,-523.78 469.16,-634.38 27.44,-110.35 110.35,-303.52 165.65,-496.61 55.05,-193.34 386.17,-276.08 496.34,-386.69 110.35,-110.34 110.35,-110.34 110.35,-110.34 136.65,45.37 322.85,144.92 414.12,220.78 0,0 0,0 137.79,55.04 138.04,55.04 138.04,55.04 138.04,55.04 60.87,61.05 222.17,135.52 358.82,165.91 0,0 0,0 27.69,110.35 27.7,110.35 27.7,110.35 27.7,110.35 185.07,-60.62 483.01,-185.08 662.25,-276.09 0,0 0,0 180.46,-82.74 180.45,-82.47 180.45,-82.47 180.45,-82.47 14.02,-14.98 26.48,-29.27 28.13,-31.53 1.66,-2.53 -60.61,-109.21 -149.97,-218.43 0,0 0,0 -58.53,-25.78 -125.32,-55.04 -125.32,-55.04 -125.32,-55.04 -209.46,-166.87 -403.24,-377.72 -430.68,-468.73 0,0 0,0 49.82,-110.35 49.56,-109.91 -157.38,-329.03 -2.26,-439.9 46.5,30.92 92.66,61.49 138.47,92.67 -1.13,5.31 -2.26,10.62 -3.65,15.93 0,0 0,0 82.73,82.74 82.74,82.74 82.74,82.74 82.74,82.74 136.65,363.87 309.01,712.76 382.77,774.95 64.1,53.47 210.59,-61.75 346.37,-263.63 1896.26,1671.3 3094.22,4116.86 3094.22,6836.93 0,289.85 -14.02,576.55 -40.76,859.26 -10.45,-13.24 -20.55,-27.53 -30.22,-39.98z"/>
  </g>
 </g>
</svg>
