<?xml version="1.0" encoding="UTF-8"?>
<!DOCTYPE svg PUBLIC "-//W3C//DTD SVG 1.1//EN" "http://www.w3.org/Graphics/SVG/1.1/DTD/svg11.dtd">
<!-- Creator: CorelDRAW -->
<svg xmlns="http://www.w3.org/2000/svg" xml:space="preserve" width="20.9972mm" height="3.81mm" version="1.1" style="shape-rendering:geometricPrecision; text-rendering:geometricPrecision; image-rendering:optimizeQuality; fill-rule:evenodd; clip-rule:evenodd"
viewBox="0 0 2099.72 381"
 xmlns:xlink="http://www.w3.org/1999/xlink"
 xmlns:xodm="http://www.corel.com/coreldraw/odm/2003">
 <defs>
  <style type="text/css">
   <![CDATA[
    .fil0 {fill:#1E5194}
    .fil1 {fill:#1E5194;fill-rule:nonzero}
   ]]>
  </style>
 </defs>
 <g id="Слой_x0020_1">
  <metadata id="CorelCorpID_0Corel-Layer"/>
  <g id="_2247623118576">
   <path class="fil0" d="M1875.48 109.85c5.93,7.16 11.09,16.11 16.13,24.14l48.12 74.74 23.07 -0.12 32.38 -50.29c5.41,-8.37 10.81,-16.76 16.2,-25.07 3.97,-6.12 11.45,-19.2 15.99,-23.6l0.26 99.08 37.56 -0.13 -0.2 -151.9 -49.8 0.08c-1.94,4.41 -5.69,9.6 -7.95,13.46l-47.9 77.08c-2.27,3.74 -5.48,9.58 -7.99,12.28 -3.88,-3.83 -27.07,-42.82 -32.24,-51.02l-31.79 -51.89 -49.97 -0.01 0.22 152.13 37.72 -0.24 0.19 -98.72zm-204.5 34.64c-0.91,-10.91 -0.38,-34.98 2.24,-44.79 2.25,-8.45 6.13,-7.58 14.83,-8.7 18.79,-2.41 51.24,-2.35 69.22,-0.29 7.35,0.84 14.92,0.06 17.34,6.42 1.92,5.05 2.77,14.58 2.99,20.5 0.52,13.68 0.82,32.91 -2.34,44.81 -2.14,8.03 -6.97,7.65 -15.2,8.52 -7.38,0.78 -14.5,1.3 -22.49,1.52 -15.7,0.43 -41.04,0.52 -56.34,-2.7 -9.47,-1.99 -8.91,-9.13 -10.25,-25.29zm-677.82 -51.62l108.17 -0.21 -0.02 -35.98 -146.31 0.4 0.14 151.16c8.73,1.46 138.37,0.67 146.21,0.31l-0.16 -35.95 -108.06 -0.33 0.25 -22.39 104.22 -0.16 -0.39 -36.02 -104.14 -0.19 0.09 -20.64zm-330.65 79.41c2.45,-4.03 19.74,-17.11 24.75,-21.55 18.45,-16.36 44.28,-36.09 61.94,-51.73 4.51,-3.99 7.83,-7.14 12.69,-10.16l-0.1 -32.12 -17.73 -0.04c-37.33,-0.06 -103.95,-1.43 -138.08,0.47l0.09 35.68c29.96,-0.02 67.49,-0.83 96.59,0.36l-101.12 83.97 0.01 31.53 160.38 -0.1 -0.4 -35.96 -99.02 -0.35zm763.47 35.45l-0.73 -35.13 -107.84 -0.3 0.29 -22.42 104.3 -0.1 -0.54 -36.07 -104.07 -0.26 0.08 -20.58 108.23 -0.24 -0.15 -35.94 -145.22 -0.02c-1.94,1.68 -1.68,-2.97 -1.8,3.14l0.52 148.71c6.78,2.42 126.67,0.78 144.74,1.05l2.19 -1.84zm149.76 -65.28c-0.33,6.62 0.17,12.49 -1.1,18.66 -1.34,6.52 -2,9.16 -8.5,10.07 -16.63,2.31 -54.95,2.02 -71.27,-0.96 -7.03,-1.29 -8.29,-1.95 -9.94,-8.52 -2.83,-11.32 -2.43,-40.85 -1.25,-52.22 1.66,-15.94 2.16,-17.27 17.55,-19.27 15.62,-2.03 57.85,-1.53 71.41,2.5 3.89,8.86 2.6,16.07 3.09,26.99l37.98 -0.14c0.34,-25.31 -1.39,-48.84 -19.96,-58.48 -15.02,-7.8 -50,-8.56 -69.96,-8.1 -22.63,0.53 -50.03,1.47 -63.41,14.66 -22.65,22.33 -19.71,108.93 -0.57,126.38 13.47,12.28 40.97,14.21 63.98,14.73 72.79,1.61 90.01,-5.1 90,-66.64l-38.05 0.34zm-1158.03 -87.58c-1.2,10.58 -0.58,107.44 0.8,118.55 2.42,19.43 10.6,28.09 28.16,31.93 24.24,5.3 87.34,4.75 111.32,-1.07 18.17,-4.41 24.98,-11.99 27.21,-31.84 1.19,-10.6 1.6,-107.69 0.44,-117.59l-37.48 0.08c-1.88,16.25 -0.42,41.38 -0.42,58.58 0,8.43 2.33,52.14 -3,55.93 -4.18,2.97 -82.42,7.75 -87.79,-2.22 -3.06,-5.68 0.15,-97.03 -1.48,-112.35l-37.76 0zm361.89 37.97l59.81 0.05 0.11 115.77 38.01 -0.07 0.12 -115.69 59.74 -0.17 -0.12 -36.06 -157.9 0.39 0.23 35.78zm342.3 115.94l140.47 -0.46 -0.19 -35.73 -102.49 -0.01 0.06 -115.8 -38.05 0.03 0.2 151.97zm693.74 -58.09c3.91,-75.47 -2.24,-93.84 -70.1,-97.56 -21.55,-1.18 -59.63,-0.56 -78.97,4.76 -25.66,7.05 -32.19,21.93 -33.47,51.48 -3.32,77.17 0.02,95.44 70.39,99.1 24.74,1.28 58.1,1.22 79.74,-4.88 25.85,-7.29 30.87,-23.09 32.41,-52.9z"/>
   <path class="fil1" d="M65.69 111.66c-3.42,0 -6.83,0.2 -10.16,0.61 41.04,5.05 72.87,40.02 72.87,82.43 0,42.47 -31.83,77.44 -72.87,82.48 3.33,0.41 6.74,0.62 10.16,0.62 45.88,0 83.09,-37.22 83.09,-83.1 0,-45.89 -37.21,-83.04 -83.09,-83.04zm-31.16 48.68c10.43,7.91 17.11,20.38 17.11,34.36 0,14.04 -6.68,26.51 -17.11,34.42 14.93,-4.36 25.84,-18.13 25.84,-34.42 0,-16.23 -10.91,-30 -25.84,-34.36zm149.23 -118.42c-6.41,0 -12.61,0.41 -18.81,1.16 75.53,9.27 134.09,73.63 134.09,151.62 0,78.05 -58.56,142.41 -134.09,151.68 6.2,0.75 12.4,1.16 18.81,1.16 84.33,0 152.78,-68.44 152.78,-152.84 0,-84.34 -68.45,-152.78 -152.78,-152.78zm-91.42 41.11c-4.63,0 -9.2,0.27 -13.7,0.82 55.22,6.75 97.96,53.85 97.96,110.85 0,57.05 -42.74,104.09 -97.96,110.92 4.5,0.54 9.07,0.81 13.7,0.81 61.7,0 111.74,-50.03 111.74,-111.73 0,-61.63 -50.04,-111.67 -111.74,-111.67zm37.43 -24.88c-5.66,0 -11.25,0.41 -16.77,1.09 67.49,8.24 119.77,65.78 119.77,135.46 0,69.74 -52.28,127.27 -119.77,135.52 5.52,0.69 11.11,1.03 16.77,1.03 75.4,0 136.55,-61.15 136.55,-136.55 0,-75.4 -61.15,-136.55 -136.55,-136.55zm-82.56 83.92c-2.18,0 -4.29,0.2 -6.41,0.41 25.98,3.2 46.16,25.36 46.16,52.22 0,26.92 -20.18,49.08 -46.16,52.22 2.12,0.27 4.23,0.41 6.41,0.41 29.11,0 52.63,-23.52 52.63,-52.63 0,-29.04 -23.52,-52.63 -52.63,-52.63z"/>
   <path class="fil1" d="M943.93 309.13c2.26,2.25 5.03,3.38 8.34,3.38l47.47 0c3.31,0 6.08,-1.13 8.34,-3.38 2.25,-2.25 3.37,-5.03 3.37,-8.33l0 -12.88 -9.45 0 0 15.76 -51.98 0 0 -45.13 51.98 0 0 15.85 9.45 0 0 -12.97c0,-3.3 -1.12,-6.08 -3.37,-8.33 -2.26,-2.25 -5.03,-3.38 -8.34,-3.38l-47.47 0c-3.31,0 -6.08,1.13 -8.34,3.38 -2.25,2.25 -3.37,5.03 -3.37,8.33l0 39.37c0,3.3 1.12,6.08 3.37,8.33zm88.38 0c2.25,2.25 5.03,3.38 8.33,3.38l47.48 0c3.3,0 6.08,-1.13 8.33,-3.38 2.25,-2.25 3.38,-5.03 3.38,-8.33l0 -39.37c0,-3.3 -1.13,-6.08 -3.38,-8.33 -2.25,-2.25 -5.03,-3.38 -8.33,-3.38l-47.48 0c-3.3,0 -6.08,1.13 -8.33,3.38 -2.25,2.25 -3.38,5.03 -3.38,8.33l0 39.37c0,3.3 1.13,6.08 3.38,8.33zm58.06 -5.45l-51.98 0 0 -45.13 51.98 0 0 45.13zm87.83 -53.96l-59.18 0 0 62.79 9.46 0 0 -53.96 51.98 0 0 53.96 9.45 0 0 -51.08c0,-3.3 -1.12,-6.08 -3.37,-8.33 -2.26,-2.25 -5.03,-3.38 -8.34,-3.38zm56.31 8.83l0 53.96 9.46 0 0 -53.96 30.63 0 0 -8.83 -70.81 0 0 8.83 30.72 0zm57.7 -5.45c-2.26,2.25 -3.38,5.03 -3.38,8.33l0 51.08 9.46 0 0 -20.81 51.98 0 0 20.81 9.46 0 0 -51.08c0,-3.3 -1.13,-6.08 -3.38,-8.33 -2.25,-2.25 -5.03,-3.38 -8.33,-3.38l-47.48 0c-3.3,0 -6.08,1.13 -8.33,3.38zm58.06 29.77l-51.98 0 0 -24.32 51.98 0 0 24.32zm32.02 26.26c2.25,2.25 5.03,3.38 8.34,3.38l47.47 0c3.3,0 6.08,-1.13 8.33,-3.38 2.26,-2.25 3.38,-5.03 3.38,-8.33l0 -12.88 -9.46 0 0 15.76 -51.98 0 0 -45.13 51.98 0 0 15.85 9.46 0 0 -12.97c0,-3.3 -1.12,-6.08 -3.38,-8.33 -2.25,-2.25 -5.03,-3.38 -8.33,-3.38l-47.47 0c-3.31,0 -6.09,1.13 -8.34,3.38 -2.25,2.25 -3.38,5.03 -3.38,8.33l0 39.37c0,3.3 1.13,6.08 3.38,8.33zm111.3 -50.58l0 53.96 9.46 0 0 -53.96 30.63 0 0 -8.83 -70.81 0 0 8.83 30.72 0zm80.77 50.58c2.25,2.25 5.03,3.38 8.33,3.38l47.47 0c3.31,0 6.08,-1.13 8.34,-3.38 2.25,-2.25 3.38,-5.03 3.38,-8.33l0 -12.88 -9.46 0 0 15.76 -51.98 0 0 -45.13 51.98 0 0 15.85 9.46 0 0 -12.97c0,-3.3 -1.13,-6.08 -3.38,-8.33 -2.26,-2.25 -5.03,-3.38 -8.34,-3.38l-47.47 0c-3.3,0 -6.08,1.13 -8.33,3.38 -2.26,2.25 -3.38,5.03 -3.38,8.33l0 39.37c0,3.3 1.12,6.08 3.38,8.33zm86.52 -59.41l0 62.79 62.52 0 0 -8.83 -53.06 0 0 -18.11 52.34 0 0 -8.82 -52.34 0 0 -18.2 53.06 0 0 -8.83 -62.52 0zm140 0l-59.19 0 0 62.79 9.46 0 0 -53.96 51.98 0 0 53.96 9.46 0 0 -51.08c0,-3.3 -1.13,-6.08 -3.38,-8.33 -2.25,-2.25 -5.03,-3.38 -8.33,-3.38zm56.3 8.83l0 53.96 9.46 0 0 -53.96 30.63 0 0 -8.83 -70.81 0 0 8.83 30.72 0zm54.5 -8.83l0 62.79 62.52 0 0 -8.83 -53.06 0 0 -18.11 52.34 0 0 -8.82 -52.34 0 0 -18.2 53.06 0 0 -8.83 -62.52 0zm143.15 62.79l10.36 0 -13.96 -24.86 0.45 0c3.36,0 6.15,-1.13 8.37,-3.38 2.23,-2.25 3.34,-5.03 3.34,-8.33l0 -14.51c0,-3.3 -1.13,-6.08 -3.38,-8.33 -2.25,-2.25 -5.03,-3.38 -8.33,-3.38l-59.19 0 0 62.79 9.46 0 0 -24.86 39.28 0 13.6 24.86zm-52.88 -53.96l51.98 0 0 20.27 -51.98 0 0 -20.27z"/>
  </g>
 </g>
</svg>
