<?xml version="1.0" encoding="UTF-8"?>
<!DOCTYPE svg PUBLIC "-//W3C//DTD SVG 1.1//EN" "http://www.w3.org/Graphics/SVG/1.1/DTD/svg11.dtd">
<!-- Creator: CorelDRAW -->
<svg xmlns="http://www.w3.org/2000/svg" xml:space="preserve" width="354.322mm" height="354.322mm" version="1.1" style="shape-rendering:geometricPrecision; text-rendering:geometricPrecision; image-rendering:optimizeQuality; fill-rule:evenodd; clip-rule:evenodd"
viewBox="0 0 35432.22 35432.22"
 xmlns:xlink="http://www.w3.org/1999/xlink"
 xmlns:xodm="http://www.corel.com/coreldraw/odm/2003">
 <defs>
  <style type="text/css">
   <![CDATA[
    .fil0 {fill:#FEFEFE}
    .fil1 {fill:#373435}
   ]]>
  </style>
 </defs>
 <g id="Слой_x0020_1">
  <metadata id="CorelCorpID_0Corel-Layer"/>
  <g id="_1784613798432">
   <polygon class="fil0" points="-3.47,3.46 35428.76,3.46 35428.76,35435.69 -3.47,35435.69 "/>
   <g>
    <g>
     <path class="fil1" d="M11980.96 3129.83c0,-287.73 -233.33,-521.06 -521.06,-521.06 -287.73,0 -521.06,233.33 -521.06,521.06 0,287.73 233.33,521.07 521.06,521.07 287.73,0 521.06,-233.34 521.06,-521.07z"/>
     <path class="fil1" d="M14065.21 3129.83c0,-287.73 -233.33,-521.06 -521.06,-521.06 -287.73,0 -521.07,233.33 -521.07,521.06 0,287.73 233.34,521.07 521.07,521.07 287.73,0 521.06,-233.34 521.06,-521.07z"/>
     <path class="fil1" d="M16149.46 3129.83c0,-287.73 -233.33,-521.06 -521.06,-521.06 -287.73,0 -521.07,233.33 -521.07,521.06 0,287.73 233.34,521.07 521.07,521.07 287.73,0 521.06,-233.34 521.06,-521.07z"/>
     <path class="fil1" d="M19275.83 3129.83c0,-287.73 -233.33,-521.06 -521.06,-521.06 -287.73,0 -521.06,233.33 -521.06,521.06 0,287.73 233.33,521.07 521.06,521.07 287.73,0 521.06,-233.34 521.06,-521.07z"/>
     <path class="fil1" d="M20317.96 3129.83c0,-287.73 -233.34,-521.06 -521.07,-521.06 -287.73,0 -521.06,233.33 -521.06,521.06 0,287.73 233.33,521.07 521.06,521.07 287.73,0 521.07,-233.34 521.07,-521.07z"/>
     <path class="fil1" d="M21360.08 3129.83c0,-287.73 -233.33,-521.06 -521.06,-521.06 -287.73,0 -521.06,233.33 -521.06,521.06 0,287.73 233.33,521.07 521.06,521.07 287.73,0 521.06,-233.34 521.06,-521.07z"/>
     <path class="fil1" d="M22402.2 3129.83c0,-287.73 -233.33,-521.06 -521.06,-521.06 -287.73,0 -521.06,233.33 -521.06,521.06 0,287.73 233.33,521.07 521.06,521.07 287.73,0 521.06,-233.34 521.06,-521.07z"/>
     <path class="fil1" d="M24486.45 3129.83c0,-287.73 -233.33,-521.06 -521.06,-521.06 -287.73,0 -521.06,233.33 -521.06,521.06 0,287.73 233.33,521.07 521.06,521.07 287.73,0 521.06,-233.34 521.06,-521.07z"/>
     <path class="fil1" d="M11980.96 4171.96c0,-287.73 -233.33,-521.06 -521.06,-521.06 -287.73,0 -521.06,233.33 -521.06,521.06 0,287.73 233.33,521.06 521.06,521.06 287.73,0 521.06,-233.33 521.06,-521.06z"/>
     <path class="fil1" d="M14065.21 4171.96c0,-287.73 -233.33,-521.06 -521.06,-521.06 -287.73,0 -521.07,233.33 -521.07,521.06 0,287.73 233.34,521.06 521.07,521.06 287.73,0 521.06,-233.33 521.06,-521.06z"/>
     <path class="fil1" d="M15107.33 4171.96c0,-287.73 -233.33,-521.06 -521.06,-521.06 -287.73,0 -521.06,233.33 -521.06,521.06 0,287.73 233.33,521.06 521.06,521.06 287.73,0 521.06,-233.33 521.06,-521.06z"/>
     <path class="fil1" d="M18233.71 4171.96c0,-287.73 -233.33,-521.06 -521.07,-521.06 -287.73,0 -521.06,233.33 -521.06,521.06 0,287.73 233.33,521.06 521.06,521.06 287.74,0 521.07,-233.33 521.07,-521.06z"/>
     <path class="fil1" d="M19275.83 4171.96c0,-287.73 -233.33,-521.06 -521.06,-521.06 -287.73,0 -521.06,233.33 -521.06,521.06 0,287.73 233.33,521.06 521.06,521.06 287.73,0 521.06,-233.33 521.06,-521.06z"/>
     <path class="fil1" d="M20317.96 4171.96c0,-287.73 -233.34,-521.06 -521.07,-521.06 -287.73,0 -521.06,233.33 -521.06,521.06 0,287.73 233.33,521.06 521.06,521.06 287.73,0 521.07,-233.33 521.07,-521.06z"/>
     <path class="fil1" d="M21360.08 4171.96c0,-287.73 -233.33,-521.06 -521.06,-521.06 -287.73,0 -521.06,233.33 -521.06,521.06 0,287.73 233.33,521.06 521.06,521.06 287.73,0 521.06,-233.33 521.06,-521.06z"/>
     <path class="fil1" d="M22402.2 4171.96c0,-287.73 -233.33,-521.06 -521.06,-521.06 -287.73,0 -521.06,233.33 -521.06,521.06 0,287.73 233.33,521.06 521.06,521.06 287.73,0 521.06,-233.33 521.06,-521.06z"/>
     <path class="fil1" d="M13023.08 5214.08c0,-287.73 -233.33,-521.06 -521.06,-521.06 -287.73,0 -521.06,233.33 -521.06,521.06 0,287.73 233.33,521.06 521.06,521.06 287.73,0 521.06,-233.33 521.06,-521.06z"/>
     <path class="fil1" d="M16149.46 5214.08c0,-287.73 -233.33,-521.06 -521.06,-521.06 -287.73,0 -521.07,233.33 -521.07,521.06 0,287.73 233.34,521.06 521.07,521.06 287.73,0 521.06,-233.33 521.06,-521.06z"/>
     <path class="fil1" d="M17191.58 5214.08c0,-287.73 -233.33,-521.06 -521.06,-521.06 -287.73,0 -521.06,233.33 -521.06,521.06 0,287.73 233.33,521.06 521.06,521.06 287.73,0 521.06,-233.33 521.06,-521.06z"/>
     <path class="fil1" d="M18233.71 5214.08c0,-287.73 -233.33,-521.06 -521.07,-521.06 -287.73,0 -521.06,233.33 -521.06,521.06 0,287.73 233.33,521.06 521.06,521.06 287.74,0 521.07,-233.33 521.07,-521.06z"/>
     <path class="fil1" d="M19275.83 5214.08c0,-287.73 -233.33,-521.06 -521.06,-521.06 -287.73,0 -521.06,233.33 -521.06,521.06 0,287.73 233.33,521.06 521.06,521.06 287.73,0 521.06,-233.33 521.06,-521.06z"/>
     <path class="fil1" d="M21360.08 5214.08c0,-287.73 -233.33,-521.06 -521.06,-521.06 -287.73,0 -521.06,233.33 -521.06,521.06 0,287.73 233.33,521.06 521.06,521.06 287.73,0 521.06,-233.33 521.06,-521.06z"/>
     <path class="fil1" d="M24486.45 5214.08c0,-287.73 -233.33,-521.06 -521.06,-521.06 -287.73,0 -521.06,233.33 -521.06,521.06 0,287.73 233.33,521.06 521.06,521.06 287.73,0 521.06,-233.33 521.06,-521.06z"/>
     <path class="fil1" d="M11980.96 6256.21c0,-287.73 -233.33,-521.07 -521.06,-521.07 -287.73,0 -521.06,233.34 -521.06,521.07 0,287.73 233.33,521.06 521.06,521.06 287.73,0 521.06,-233.33 521.06,-521.06z"/>
     <path class="fil1" d="M13023.08 6256.21c0,-287.73 -233.33,-521.07 -521.06,-521.07 -287.73,0 -521.06,233.34 -521.06,521.07 0,287.73 233.33,521.06 521.06,521.06 287.73,0 521.06,-233.33 521.06,-521.06z"/>
     <path class="fil1" d="M16149.46 6256.21c0,-287.73 -233.33,-521.07 -521.06,-521.07 -287.73,0 -521.07,233.34 -521.07,521.07 0,287.73 233.34,521.06 521.07,521.06 287.73,0 521.06,-233.33 521.06,-521.06z"/>
     <path class="fil1" d="M22402.2 6256.21c0,-287.73 -233.33,-521.07 -521.06,-521.07 -287.73,0 -521.06,233.34 -521.06,521.07 0,287.73 233.33,521.06 521.06,521.06 287.73,0 521.06,-233.33 521.06,-521.06z"/>
     <path class="fil1" d="M23444.33 6256.21c0,-287.73 -233.33,-521.07 -521.06,-521.07 -287.73,0 -521.07,233.34 -521.07,521.07 0,287.73 233.34,521.06 521.07,521.06 287.73,0 521.06,-233.33 521.06,-521.06z"/>
     <path class="fil1" d="M11980.96 7298.33c0,-287.73 -233.33,-521.06 -521.06,-521.06 -287.73,0 -521.06,233.33 -521.06,521.06 0,287.73 233.33,521.06 521.06,521.06 287.73,0 521.06,-233.33 521.06,-521.06z"/>
     <path class="fil1" d="M14065.21 7298.33c0,-287.73 -233.33,-521.06 -521.06,-521.06 -287.73,0 -521.07,233.33 -521.07,521.06 0,287.73 233.34,521.06 521.07,521.06 287.73,0 521.06,-233.33 521.06,-521.06z"/>
     <path class="fil1" d="M15107.33 7298.33c0,-287.73 -233.33,-521.06 -521.06,-521.06 -287.73,0 -521.06,233.33 -521.06,521.06 0,287.73 233.33,521.06 521.06,521.06 287.73,0 521.06,-233.33 521.06,-521.06z"/>
     <path class="fil1" d="M17191.58 7298.33c0,-287.73 -233.33,-521.06 -521.06,-521.06 -287.73,0 -521.06,233.33 -521.06,521.06 0,287.73 233.33,521.06 521.06,521.06 287.73,0 521.06,-233.33 521.06,-521.06z"/>
     <path class="fil1" d="M18233.71 7298.33c0,-287.73 -233.33,-521.06 -521.07,-521.06 -287.73,0 -521.06,233.33 -521.06,521.06 0,287.73 233.33,521.06 521.06,521.06 287.74,0 521.07,-233.33 521.07,-521.06z"/>
     <path class="fil1" d="M19275.83 7298.33c0,-287.73 -233.33,-521.06 -521.06,-521.06 -287.73,0 -521.06,233.33 -521.06,521.06 0,287.73 233.33,521.06 521.06,521.06 287.73,0 521.06,-233.33 521.06,-521.06z"/>
     <path class="fil1" d="M21360.08 7298.33c0,-287.73 -233.33,-521.06 -521.06,-521.06 -287.73,0 -521.06,233.33 -521.06,521.06 0,287.73 233.33,521.06 521.06,521.06 287.73,0 521.06,-233.33 521.06,-521.06z"/>
     <path class="fil1" d="M22402.2 7298.33c0,-287.73 -233.33,-521.06 -521.06,-521.06 -287.73,0 -521.06,233.33 -521.06,521.06 0,287.73 233.33,521.06 521.06,521.06 287.73,0 521.06,-233.33 521.06,-521.06z"/>
     <path class="fil1" d="M11980.96 8340.46c0,-287.74 -233.33,-521.07 -521.06,-521.07 -287.73,0 -521.06,233.33 -521.06,521.07 0,287.73 233.33,521.06 521.06,521.06 287.73,0 521.06,-233.33 521.06,-521.06z"/>
     <path class="fil1" d="M14065.21 8340.46c0,-287.74 -233.33,-521.07 -521.06,-521.07 -287.73,0 -521.07,233.33 -521.07,521.07 0,287.73 233.34,521.06 521.07,521.06 287.73,0 521.06,-233.33 521.06,-521.06z"/>
     <path class="fil1" d="M16149.46 8340.46c0,-287.74 -233.33,-521.07 -521.06,-521.07 -287.73,0 -521.07,233.33 -521.07,521.07 0,287.73 233.34,521.06 521.07,521.06 287.73,0 521.06,-233.33 521.06,-521.06z"/>
     <path class="fil1" d="M19275.83 8340.46c0,-287.74 -233.33,-521.07 -521.06,-521.07 -287.73,0 -521.06,233.33 -521.06,521.07 0,287.73 233.33,521.06 521.06,521.06 287.73,0 521.06,-233.33 521.06,-521.06z"/>
     <path class="fil1" d="M20317.96 8340.46c0,-287.74 -233.34,-521.07 -521.07,-521.07 -287.73,0 -521.06,233.33 -521.06,521.07 0,287.73 233.33,521.06 521.06,521.06 287.73,0 521.07,-233.33 521.07,-521.06z"/>
     <path class="fil1" d="M21360.08 8340.46c0,-287.74 -233.33,-521.07 -521.06,-521.07 -287.73,0 -521.06,233.33 -521.06,521.07 0,287.73 233.33,521.06 521.06,521.06 287.73,0 521.06,-233.33 521.06,-521.06z"/>
     <path class="fil1" d="M22402.2 8340.46c0,-287.74 -233.33,-521.07 -521.06,-521.07 -287.73,0 -521.06,233.33 -521.06,521.07 0,287.73 233.33,521.06 521.06,521.06 287.73,0 521.06,-233.33 521.06,-521.06z"/>
     <path class="fil1" d="M23444.33 8340.46c0,-287.74 -233.33,-521.07 -521.06,-521.07 -287.73,0 -521.07,233.33 -521.07,521.07 0,287.73 233.34,521.06 521.07,521.06 287.73,0 521.06,-233.33 521.06,-521.06z"/>
     <path class="fil1" d="M24486.45 8340.46c0,-287.74 -233.33,-521.07 -521.06,-521.07 -287.73,0 -521.06,233.33 -521.06,521.07 0,287.73 233.33,521.06 521.06,521.06 287.73,0 521.06,-233.33 521.06,-521.06z"/>
     <path class="fil1" d="M11980.96 9382.58c0,-287.73 -233.33,-521.06 -521.06,-521.06 -287.73,0 -521.06,233.33 -521.06,521.06 0,287.73 233.33,521.06 521.06,521.06 287.73,0 521.06,-233.33 521.06,-521.06z"/>
     <path class="fil1" d="M14065.21 9382.58c0,-287.73 -233.33,-521.06 -521.06,-521.06 -287.73,0 -521.07,233.33 -521.07,521.06 0,287.73 233.34,521.06 521.07,521.06 287.73,0 521.06,-233.33 521.06,-521.06z"/>
     <path class="fil1" d="M16149.46 9382.58c0,-287.73 -233.33,-521.06 -521.06,-521.06 -287.73,0 -521.07,233.33 -521.07,521.06 0,287.73 233.34,521.06 521.07,521.06 287.73,0 521.06,-233.33 521.06,-521.06z"/>
     <path class="fil1" d="M18233.71 9382.58c0,-287.73 -233.33,-521.06 -521.07,-521.06 -287.73,0 -521.06,233.33 -521.06,521.06 0,287.73 233.33,521.06 521.06,521.06 287.74,0 521.07,-233.33 521.07,-521.06z"/>
     <path class="fil1" d="M20317.96 9382.58c0,-287.73 -233.34,-521.06 -521.07,-521.06 -287.73,0 -521.06,233.33 -521.06,521.06 0,287.73 233.33,521.06 521.06,521.06 287.73,0 521.07,-233.33 521.07,-521.06z"/>
     <path class="fil1" d="M22402.2 9382.58c0,-287.73 -233.33,-521.06 -521.06,-521.06 -287.73,0 -521.06,233.33 -521.06,521.06 0,287.73 233.33,521.06 521.06,521.06 287.73,0 521.06,-233.33 521.06,-521.06z"/>
     <path class="fil1" d="M24486.45 9382.58c0,-287.73 -233.33,-521.06 -521.06,-521.06 -287.73,0 -521.06,233.33 -521.06,521.06 0,287.73 233.33,521.06 521.06,521.06 287.73,0 521.06,-233.33 521.06,-521.06z"/>
     <path class="fil1" d="M14065.21 10424.7c0,-287.73 -233.33,-521.06 -521.06,-521.06 -287.73,0 -521.07,233.33 -521.07,521.06 0,287.73 233.34,521.07 521.07,521.07 287.73,0 521.06,-233.34 521.06,-521.07z"/>
     <path class="fil1" d="M16149.46 10424.7c0,-287.73 -233.33,-521.06 -521.06,-521.06 -287.73,0 -521.07,233.33 -521.07,521.06 0,287.73 233.34,521.07 521.07,521.07 287.73,0 521.06,-233.34 521.06,-521.07z"/>
     <path class="fil1" d="M17191.58 10424.7c0,-287.73 -233.33,-521.06 -521.06,-521.06 -287.73,0 -521.06,233.33 -521.06,521.06 0,287.73 233.33,521.07 521.06,521.07 287.73,0 521.06,-233.34 521.06,-521.07z"/>
     <path class="fil1" d="M18233.71 10424.7c0,-287.73 -233.33,-521.06 -521.07,-521.06 -287.73,0 -521.06,233.33 -521.06,521.06 0,287.73 233.33,521.07 521.06,521.07 287.74,0 521.07,-233.34 521.07,-521.07z"/>
     <path class="fil1" d="M20317.96 10424.7c0,-287.73 -233.34,-521.06 -521.07,-521.06 -287.73,0 -521.06,233.33 -521.06,521.06 0,287.73 233.33,521.07 521.06,521.07 287.73,0 521.07,-233.34 521.07,-521.07z"/>
     <path class="fil1" d="M23444.33 10424.7c0,-287.73 -233.33,-521.06 -521.06,-521.06 -287.73,0 -521.07,233.33 -521.07,521.06 0,287.73 233.34,521.07 521.07,521.07 287.73,0 521.06,-233.34 521.06,-521.07z"/>
     <path class="fil1" d="M24486.45 10424.7c0,-287.73 -233.33,-521.06 -521.06,-521.06 -287.73,0 -521.06,233.33 -521.06,521.06 0,287.73 233.33,521.07 521.06,521.07 287.73,0 521.06,-233.34 521.06,-521.07z"/>
     <path class="fil1" d="M6770.34 11466.83c0,-287.73 -233.33,-521.06 -521.06,-521.06 -287.73,0 -521.07,233.33 -521.07,521.06 0,287.73 233.34,521.06 521.07,521.06 287.73,0 521.06,-233.33 521.06,-521.06z"/>
     <path class="fil1" d="M9896.71 11466.83c0,-287.73 -233.33,-521.06 -521.06,-521.06 -287.73,0 -521.06,233.33 -521.06,521.06 0,287.73 233.33,521.06 521.06,521.06 287.73,0 521.06,-233.33 521.06,-521.06z"/>
     <path class="fil1" d="M13023.08 11466.83c0,-287.73 -233.33,-521.06 -521.06,-521.06 -287.73,0 -521.06,233.33 -521.06,521.06 0,287.73 233.33,521.06 521.06,521.06 287.73,0 521.06,-233.33 521.06,-521.06z"/>
     <path class="fil1" d="M16149.46 11466.83c0,-287.73 -233.33,-521.06 -521.06,-521.06 -287.73,0 -521.07,233.33 -521.07,521.06 0,287.73 233.34,521.06 521.07,521.06 287.73,0 521.06,-233.33 521.06,-521.06z"/>
     <path class="fil1" d="M18233.71 11466.83c0,-287.73 -233.33,-521.06 -521.07,-521.06 -287.73,0 -521.06,233.33 -521.06,521.06 0,287.73 233.33,521.06 521.06,521.06 287.74,0 521.07,-233.33 521.07,-521.06z"/>
     <path class="fil1" d="M19275.83 11466.83c0,-287.73 -233.33,-521.06 -521.06,-521.06 -287.73,0 -521.06,233.33 -521.06,521.06 0,287.73 233.33,521.06 521.06,521.06 287.73,0 521.06,-233.33 521.06,-521.06z"/>
     <path class="fil1" d="M21360.08 11466.83c0,-287.73 -233.33,-521.06 -521.06,-521.06 -287.73,0 -521.06,233.33 -521.06,521.06 0,287.73 233.33,521.06 521.06,521.06 287.73,0 521.06,-233.33 521.06,-521.06z"/>
     <path class="fil1" d="M23444.33 11466.83c0,-287.73 -233.33,-521.06 -521.06,-521.06 -287.73,0 -521.07,233.33 -521.07,521.06 0,287.73 233.34,521.06 521.07,521.06 287.73,0 521.06,-233.33 521.06,-521.06z"/>
     <path class="fil1" d="M24486.45 11466.83c0,-287.73 -233.33,-521.06 -521.06,-521.06 -287.73,0 -521.06,233.33 -521.06,521.06 0,287.73 233.33,521.06 521.06,521.06 287.73,0 521.06,-233.33 521.06,-521.06z"/>
     <path class="fil1" d="M27612.83 11466.83c0,-287.73 -233.33,-521.06 -521.07,-521.06 -287.73,0 -521.06,233.33 -521.06,521.06 0,287.73 233.33,521.06 521.06,521.06 287.74,0 521.07,-233.33 521.07,-521.06z"/>
     <path class="fil1" d="M28654.95 11466.83c0,-287.73 -233.33,-521.06 -521.06,-521.06 -287.73,0 -521.06,233.33 -521.06,521.06 0,287.73 233.33,521.06 521.06,521.06 287.73,0 521.06,-233.33 521.06,-521.06z"/>
     <path class="fil1" d="M29697.08 11466.83c0,-287.73 -233.34,-521.06 -521.07,-521.06 -287.73,0 -521.06,233.33 -521.06,521.06 0,287.73 233.33,521.06 521.06,521.06 287.73,0 521.07,-233.33 521.07,-521.06z"/>
     <path class="fil1" d="M31781.32 11466.83c0,-287.73 -233.33,-521.06 -521.06,-521.06 -287.73,0 -521.06,233.33 -521.06,521.06 0,287.73 233.33,521.06 521.06,521.06 287.73,0 521.06,-233.33 521.06,-521.06z"/>
     <path class="fil1" d="M32823.45 11466.83c0,-287.73 -233.33,-521.06 -521.06,-521.06 -287.73,0 -521.07,233.33 -521.07,521.06 0,287.73 233.34,521.06 521.07,521.06 287.73,0 521.06,-233.33 521.06,-521.06z"/>
     <path class="fil1" d="M3643.97 12508.95c0,-287.73 -233.34,-521.06 -521.07,-521.06 -287.73,0 -521.06,233.33 -521.06,521.06 0,287.73 233.33,521.07 521.06,521.07 287.73,0 521.07,-233.34 521.07,-521.07z"/>
     <path class="fil1" d="M6770.34 12508.95c0,-287.73 -233.33,-521.06 -521.06,-521.06 -287.73,0 -521.07,233.33 -521.07,521.06 0,287.73 233.34,521.07 521.07,521.07 287.73,0 521.06,-233.34 521.06,-521.07z"/>
     <path class="fil1" d="M10938.84 12508.95c0,-287.73 -233.34,-521.06 -521.07,-521.06 -287.73,0 -521.06,233.33 -521.06,521.06 0,287.73 233.33,521.07 521.06,521.07 287.73,0 521.07,-233.34 521.07,-521.07z"/>
     <path class="fil1" d="M16149.46 12508.95c0,-287.73 -233.33,-521.06 -521.06,-521.06 -287.73,0 -521.07,233.33 -521.07,521.06 0,287.73 233.34,521.07 521.07,521.07 287.73,0 521.06,-233.34 521.06,-521.07z"/>
     <path class="fil1" d="M17191.58 12508.95c0,-287.73 -233.33,-521.06 -521.06,-521.06 -287.73,0 -521.06,233.33 -521.06,521.06 0,287.73 233.33,521.07 521.06,521.07 287.73,0 521.06,-233.34 521.06,-521.07z"/>
     <path class="fil1" d="M18233.71 12508.95c0,-287.73 -233.33,-521.06 -521.07,-521.06 -287.73,0 -521.06,233.33 -521.06,521.06 0,287.73 233.33,521.07 521.06,521.07 287.74,0 521.07,-233.34 521.07,-521.07z"/>
     <path class="fil1" d="M20317.96 12508.95c0,-287.73 -233.34,-521.06 -521.07,-521.06 -287.73,0 -521.06,233.33 -521.06,521.06 0,287.73 233.33,521.07 521.06,521.07 287.73,0 521.07,-233.34 521.07,-521.07z"/>
     <path class="fil1" d="M21360.08 12508.95c0,-287.73 -233.33,-521.06 -521.06,-521.06 -287.73,0 -521.06,233.33 -521.06,521.06 0,287.73 233.33,521.07 521.06,521.07 287.73,0 521.06,-233.34 521.06,-521.07z"/>
     <path class="fil1" d="M24486.45 12508.95c0,-287.73 -233.33,-521.06 -521.06,-521.06 -287.73,0 -521.06,233.33 -521.06,521.06 0,287.73 233.33,521.07 521.06,521.07 287.73,0 521.06,-233.34 521.06,-521.07z"/>
     <path class="fil1" d="M26570.7 12508.95c0,-287.73 -233.33,-521.06 -521.06,-521.06 -287.73,0 -521.06,233.33 -521.06,521.06 0,287.73 233.33,521.07 521.06,521.07 287.73,0 521.06,-233.34 521.06,-521.07z"/>
     <path class="fil1" d="M32823.45 12508.95c0,-287.73 -233.33,-521.06 -521.06,-521.06 -287.73,0 -521.07,233.33 -521.07,521.06 0,287.73 233.34,521.07 521.07,521.07 287.73,0 521.06,-233.34 521.06,-521.07z"/>
     <path class="fil1" d="M3643.97 13551.08c0,-287.73 -233.34,-521.06 -521.07,-521.06 -287.73,0 -521.06,233.33 -521.06,521.06 0,287.73 233.33,521.06 521.06,521.06 287.73,0 521.07,-233.33 521.07,-521.06z"/>
     <path class="fil1" d="M6770.34 13551.08c0,-287.73 -233.33,-521.06 -521.06,-521.06 -287.73,0 -521.07,233.33 -521.07,521.06 0,287.73 233.34,521.06 521.07,521.06 287.73,0 521.06,-233.33 521.06,-521.06z"/>
     <path class="fil1" d="M8854.59 13551.08c0,-287.73 -233.33,-521.06 -521.06,-521.06 -287.74,0 -521.07,233.33 -521.07,521.06 0,287.73 233.33,521.06 521.07,521.06 287.73,0 521.06,-233.33 521.06,-521.06z"/>
     <path class="fil1" d="M9896.71 13551.08c0,-287.73 -233.33,-521.06 -521.06,-521.06 -287.73,0 -521.06,233.33 -521.06,521.06 0,287.73 233.33,521.06 521.06,521.06 287.73,0 521.06,-233.33 521.06,-521.06z"/>
     <path class="fil1" d="M11980.96 13551.08c0,-287.73 -233.33,-521.06 -521.06,-521.06 -287.73,0 -521.06,233.33 -521.06,521.06 0,287.73 233.33,521.06 521.06,521.06 287.73,0 521.06,-233.33 521.06,-521.06z"/>
     <path class="fil1" d="M13023.08 13551.08c0,-287.73 -233.33,-521.06 -521.06,-521.06 -287.73,0 -521.06,233.33 -521.06,521.06 0,287.73 233.33,521.06 521.06,521.06 287.73,0 521.06,-233.33 521.06,-521.06z"/>
     <path class="fil1" d="M17191.58 13551.08c0,-287.73 -233.33,-521.06 -521.06,-521.06 -287.73,0 -521.06,233.33 -521.06,521.06 0,287.73 233.33,521.06 521.06,521.06 287.73,0 521.06,-233.33 521.06,-521.06z"/>
     <path class="fil1" d="M20317.96 13551.08c0,-287.73 -233.34,-521.06 -521.07,-521.06 -287.73,0 -521.06,233.33 -521.06,521.06 0,287.73 233.33,521.06 521.06,521.06 287.73,0 521.07,-233.33 521.07,-521.06z"/>
     <path class="fil1" d="M22402.2 13551.08c0,-287.73 -233.33,-521.06 -521.06,-521.06 -287.73,0 -521.06,233.33 -521.06,521.06 0,287.73 233.33,521.06 521.06,521.06 287.73,0 521.06,-233.33 521.06,-521.06z"/>
     <path class="fil1" d="M23444.33 13551.08c0,-287.73 -233.33,-521.06 -521.06,-521.06 -287.73,0 -521.07,233.33 -521.07,521.06 0,287.73 233.34,521.06 521.07,521.06 287.73,0 521.06,-233.33 521.06,-521.06z"/>
     <path class="fil1" d="M26570.7 13551.08c0,-287.73 -233.33,-521.06 -521.06,-521.06 -287.73,0 -521.06,233.33 -521.06,521.06 0,287.73 233.33,521.06 521.06,521.06 287.73,0 521.06,-233.33 521.06,-521.06z"/>
     <path class="fil1" d="M28654.95 13551.08c0,-287.73 -233.33,-521.06 -521.06,-521.06 -287.73,0 -521.06,233.33 -521.06,521.06 0,287.73 233.33,521.06 521.06,521.06 287.73,0 521.06,-233.33 521.06,-521.06z"/>
     <path class="fil1" d="M30739.2 13551.08c0,-287.73 -233.33,-521.06 -521.06,-521.06 -287.73,0 -521.06,233.33 -521.06,521.06 0,287.73 233.33,521.06 521.06,521.06 287.73,0 521.06,-233.33 521.06,-521.06z"/>
     <path class="fil1" d="M31781.32 13551.08c0,-287.73 -233.33,-521.06 -521.06,-521.06 -287.73,0 -521.06,233.33 -521.06,521.06 0,287.73 233.33,521.06 521.06,521.06 287.73,0 521.06,-233.33 521.06,-521.06z"/>
     <path class="fil1" d="M4686.09 14593.2c0,-287.73 -233.33,-521.06 -521.06,-521.06 -287.73,0 -521.06,233.33 -521.06,521.06 0,287.73 233.33,521.06 521.06,521.06 287.73,0 521.06,-233.33 521.06,-521.06z"/>
     <path class="fil1" d="M7812.46 14593.2c0,-287.73 -233.33,-521.06 -521.06,-521.06 -287.73,0 -521.06,233.33 -521.06,521.06 0,287.73 233.33,521.06 521.06,521.06 287.73,0 521.06,-233.33 521.06,-521.06z"/>
     <path class="fil1" d="M11980.96 14593.2c0,-287.73 -233.33,-521.06 -521.06,-521.06 -287.73,0 -521.06,233.33 -521.06,521.06 0,287.73 233.33,521.06 521.06,521.06 287.73,0 521.06,-233.33 521.06,-521.06z"/>
     <path class="fil1" d="M13023.08 14593.2c0,-287.73 -233.33,-521.06 -521.06,-521.06 -287.73,0 -521.06,233.33 -521.06,521.06 0,287.73 233.33,521.06 521.06,521.06 287.73,0 521.06,-233.33 521.06,-521.06z"/>
     <path class="fil1" d="M14065.21 14593.2c0,-287.73 -233.33,-521.06 -521.06,-521.06 -287.73,0 -521.07,233.33 -521.07,521.06 0,287.73 233.34,521.06 521.07,521.06 287.73,0 521.06,-233.33 521.06,-521.06z"/>
     <path class="fil1" d="M15107.33 14593.2c0,-287.73 -233.33,-521.06 -521.06,-521.06 -287.73,0 -521.06,233.33 -521.06,521.06 0,287.73 233.33,521.06 521.06,521.06 287.73,0 521.06,-233.33 521.06,-521.06z"/>
     <path class="fil1" d="M18233.71 14593.2c0,-287.73 -233.33,-521.06 -521.07,-521.06 -287.73,0 -521.06,233.33 -521.06,521.06 0,287.73 233.33,521.06 521.06,521.06 287.74,0 521.07,-233.33 521.07,-521.06z"/>
     <path class="fil1" d="M25528.58 14593.2c0,-287.73 -233.33,-521.06 -521.06,-521.06 -287.73,0 -521.07,233.33 -521.07,521.06 0,287.73 233.34,521.06 521.07,521.06 287.73,0 521.06,-233.33 521.06,-521.06z"/>
     <path class="fil1" d="M26570.7 14593.2c0,-287.73 -233.33,-521.06 -521.06,-521.06 -287.73,0 -521.06,233.33 -521.06,521.06 0,287.73 233.33,521.06 521.06,521.06 287.73,0 521.06,-233.33 521.06,-521.06z"/>
     <path class="fil1" d="M28654.95 14593.2c0,-287.73 -233.33,-521.06 -521.06,-521.06 -287.73,0 -521.06,233.33 -521.06,521.06 0,287.73 233.33,521.06 521.06,521.06 287.73,0 521.06,-233.33 521.06,-521.06z"/>
     <path class="fil1" d="M30739.2 14593.2c0,-287.73 -233.33,-521.06 -521.06,-521.06 -287.73,0 -521.06,233.33 -521.06,521.06 0,287.73 233.33,521.06 521.06,521.06 287.73,0 521.06,-233.33 521.06,-521.06z"/>
     <path class="fil1" d="M31781.32 14593.2c0,-287.73 -233.33,-521.06 -521.06,-521.06 -287.73,0 -521.06,233.33 -521.06,521.06 0,287.73 233.33,521.06 521.06,521.06 287.73,0 521.06,-233.33 521.06,-521.06z"/>
     <path class="fil1" d="M3643.97 15635.33c0,-287.73 -233.34,-521.07 -521.07,-521.07 -287.73,0 -521.06,233.34 -521.06,521.07 0,287.73 233.33,521.06 521.06,521.06 287.73,0 521.07,-233.33 521.07,-521.06z"/>
     <path class="fil1" d="M5728.21 15635.33c0,-287.73 -233.33,-521.07 -521.06,-521.07 -287.73,0 -521.06,233.34 -521.06,521.07 0,287.73 233.33,521.06 521.06,521.06 287.73,0 521.06,-233.33 521.06,-521.06z"/>
     <path class="fil1" d="M6770.34 15635.33c0,-287.73 -233.33,-521.07 -521.06,-521.07 -287.73,0 -521.07,233.34 -521.07,521.07 0,287.73 233.34,521.06 521.07,521.06 287.73,0 521.06,-233.33 521.06,-521.06z"/>
     <path class="fil1" d="M7812.46 15635.33c0,-287.73 -233.33,-521.07 -521.06,-521.07 -287.73,0 -521.06,233.34 -521.06,521.07 0,287.73 233.33,521.06 521.06,521.06 287.73,0 521.06,-233.33 521.06,-521.06z"/>
     <path class="fil1" d="M8854.59 15635.33c0,-287.73 -233.33,-521.07 -521.06,-521.07 -287.74,0 -521.07,233.34 -521.07,521.07 0,287.73 233.33,521.06 521.07,521.06 287.73,0 521.06,-233.33 521.06,-521.06z"/>
     <path class="fil1" d="M9896.71 15635.33c0,-287.73 -233.33,-521.07 -521.06,-521.07 -287.73,0 -521.06,233.34 -521.06,521.07 0,287.73 233.33,521.06 521.06,521.06 287.73,0 521.06,-233.33 521.06,-521.06z"/>
     <path class="fil1" d="M10938.84 15635.33c0,-287.73 -233.34,-521.07 -521.07,-521.07 -287.73,0 -521.06,233.34 -521.06,521.07 0,287.73 233.33,521.06 521.06,521.06 287.73,0 521.07,-233.33 521.07,-521.06z"/>
     <path class="fil1" d="M11980.96 15635.33c0,-287.73 -233.33,-521.07 -521.06,-521.07 -287.73,0 -521.06,233.34 -521.06,521.07 0,287.73 233.33,521.06 521.06,521.06 287.73,0 521.06,-233.33 521.06,-521.06z"/>
     <path class="fil1" d="M14065.21 15635.33c0,-287.73 -233.33,-521.07 -521.06,-521.07 -287.73,0 -521.07,233.34 -521.07,521.07 0,287.73 233.34,521.06 521.07,521.06 287.73,0 521.06,-233.33 521.06,-521.06z"/>
     <path class="fil1" d="M16149.46 15635.33c0,-287.73 -233.33,-521.07 -521.06,-521.07 -287.73,0 -521.07,233.34 -521.07,521.07 0,287.73 233.34,521.06 521.07,521.06 287.73,0 521.06,-233.33 521.06,-521.06z"/>
     <path class="fil1" d="M20317.96 15635.33c0,-287.73 -233.34,-521.07 -521.07,-521.07 -287.73,0 -521.06,233.34 -521.06,521.07 0,287.73 233.33,521.06 521.06,521.06 287.73,0 521.07,-233.33 521.07,-521.06z"/>
     <path class="fil1" d="M21360.08 15635.33c0,-287.73 -233.33,-521.07 -521.06,-521.07 -287.73,0 -521.06,233.34 -521.06,521.07 0,287.73 233.33,521.06 521.06,521.06 287.73,0 521.06,-233.33 521.06,-521.06z"/>
     <path class="fil1" d="M22402.2 15635.33c0,-287.73 -233.33,-521.07 -521.06,-521.07 -287.73,0 -521.06,233.34 -521.06,521.07 0,287.73 233.33,521.06 521.06,521.06 287.73,0 521.06,-233.33 521.06,-521.06z"/>
     <path class="fil1" d="M23444.33 15635.33c0,-287.73 -233.33,-521.07 -521.06,-521.07 -287.73,0 -521.07,233.34 -521.07,521.07 0,287.73 233.34,521.06 521.07,521.06 287.73,0 521.06,-233.33 521.06,-521.06z"/>
     <path class="fil1" d="M24486.45 15635.33c0,-287.73 -233.33,-521.07 -521.06,-521.07 -287.73,0 -521.06,233.34 -521.06,521.07 0,287.73 233.33,521.06 521.06,521.06 287.73,0 521.06,-233.33 521.06,-521.06z"/>
     <path class="fil1" d="M26570.7 15635.33c0,-287.73 -233.33,-521.07 -521.06,-521.07 -287.73,0 -521.06,233.34 -521.06,521.07 0,287.73 233.33,521.06 521.06,521.06 287.73,0 521.06,-233.33 521.06,-521.06z"/>
     <path class="fil1" d="M27612.83 15635.33c0,-287.73 -233.33,-521.07 -521.07,-521.07 -287.73,0 -521.06,233.34 -521.06,521.07 0,287.73 233.33,521.06 521.06,521.06 287.74,0 521.07,-233.33 521.07,-521.06z"/>
     <path class="fil1" d="M4686.09 16677.45c0,-287.73 -233.33,-521.06 -521.06,-521.06 -287.73,0 -521.06,233.33 -521.06,521.06 0,287.73 233.33,521.06 521.06,521.06 287.73,0 521.06,-233.33 521.06,-521.06z"/>
     <path class="fil1" d="M5728.21 16677.45c0,-287.73 -233.33,-521.06 -521.06,-521.06 -287.73,0 -521.06,233.33 -521.06,521.06 0,287.73 233.33,521.06 521.06,521.06 287.73,0 521.06,-233.33 521.06,-521.06z"/>
     <path class="fil1" d="M6770.34 16677.45c0,-287.73 -233.33,-521.06 -521.06,-521.06 -287.73,0 -521.07,233.33 -521.07,521.06 0,287.73 233.34,521.06 521.07,521.06 287.73,0 521.06,-233.33 521.06,-521.06z"/>
     <path class="fil1" d="M7812.46 16677.45c0,-287.73 -233.33,-521.06 -521.06,-521.06 -287.73,0 -521.06,233.33 -521.06,521.06 0,287.73 233.33,521.06 521.06,521.06 287.73,0 521.06,-233.33 521.06,-521.06z"/>
     <path class="fil1" d="M8854.59 16677.45c0,-287.73 -233.33,-521.06 -521.06,-521.06 -287.74,0 -521.07,233.33 -521.07,521.06 0,287.73 233.33,521.06 521.07,521.06 287.73,0 521.06,-233.33 521.06,-521.06z"/>
     <path class="fil1" d="M11980.96 16677.45c0,-287.73 -233.33,-521.06 -521.06,-521.06 -287.73,0 -521.06,233.33 -521.06,521.06 0,287.73 233.33,521.06 521.06,521.06 287.73,0 521.06,-233.33 521.06,-521.06z"/>
     <path class="fil1" d="M13023.08 16677.45c0,-287.73 -233.33,-521.06 -521.06,-521.06 -287.73,0 -521.06,233.33 -521.06,521.06 0,287.73 233.33,521.06 521.06,521.06 287.73,0 521.06,-233.33 521.06,-521.06z"/>
     <path class="fil1" d="M16149.46 16677.45c0,-287.73 -233.33,-521.06 -521.06,-521.06 -287.73,0 -521.07,233.33 -521.07,521.06 0,287.73 233.34,521.06 521.07,521.06 287.73,0 521.06,-233.33 521.06,-521.06z"/>
     <path class="fil1" d="M17191.58 16677.45c0,-287.73 -233.33,-521.06 -521.06,-521.06 -287.73,0 -521.06,233.33 -521.06,521.06 0,287.73 233.33,521.06 521.06,521.06 287.73,0 521.06,-233.33 521.06,-521.06z"/>
     <path class="fil1" d="M18233.71 16677.45c0,-287.73 -233.33,-521.06 -521.07,-521.06 -287.73,0 -521.06,233.33 -521.06,521.06 0,287.73 233.33,521.06 521.06,521.06 287.74,0 521.07,-233.33 521.07,-521.06z"/>
     <path class="fil1" d="M19275.83 16677.45c0,-287.73 -233.33,-521.06 -521.06,-521.06 -287.73,0 -521.06,233.33 -521.06,521.06 0,287.73 233.33,521.06 521.06,521.06 287.73,0 521.06,-233.33 521.06,-521.06z"/>
     <path class="fil1" d="M21360.08 16677.45c0,-287.73 -233.33,-521.06 -521.06,-521.06 -287.73,0 -521.06,233.33 -521.06,521.06 0,287.73 233.33,521.06 521.06,521.06 287.73,0 521.06,-233.33 521.06,-521.06z"/>
     <path class="fil1" d="M23444.33 16677.45c0,-287.73 -233.33,-521.06 -521.06,-521.06 -287.73,0 -521.07,233.33 -521.07,521.06 0,287.73 233.34,521.06 521.07,521.06 287.73,0 521.06,-233.33 521.06,-521.06z"/>
     <path class="fil1" d="M25528.58 16677.45c0,-287.73 -233.33,-521.06 -521.06,-521.06 -287.73,0 -521.07,233.33 -521.07,521.06 0,287.73 233.34,521.06 521.07,521.06 287.73,0 521.06,-233.33 521.06,-521.06z"/>
     <path class="fil1" d="M27612.83 16677.45c0,-287.73 -233.33,-521.06 -521.07,-521.06 -287.73,0 -521.06,233.33 -521.06,521.06 0,287.73 233.33,521.06 521.06,521.06 287.74,0 521.07,-233.33 521.07,-521.06z"/>
     <path class="fil1" d="M29697.08 16677.45c0,-287.73 -233.34,-521.06 -521.07,-521.06 -287.73,0 -521.06,233.33 -521.06,521.06 0,287.73 233.33,521.06 521.06,521.06 287.73,0 521.07,-233.33 521.07,-521.06z"/>
     <path class="fil1" d="M3643.97 17719.58c0,-287.74 -233.34,-521.07 -521.07,-521.07 -287.73,0 -521.06,233.33 -521.06,521.07 0,287.73 233.33,521.06 521.06,521.06 287.73,0 521.07,-233.33 521.07,-521.06z"/>
     <path class="fil1" d="M7812.46 17719.58c0,-287.74 -233.33,-521.07 -521.06,-521.07 -287.73,0 -521.06,233.33 -521.06,521.07 0,287.73 233.33,521.06 521.06,521.06 287.73,0 521.06,-233.33 521.06,-521.06z"/>
     <path class="fil1" d="M8854.59 17719.58c0,-287.74 -233.33,-521.07 -521.06,-521.07 -287.74,0 -521.07,233.33 -521.07,521.07 0,287.73 233.33,521.06 521.07,521.06 287.73,0 521.06,-233.33 521.06,-521.06z"/>
     <path class="fil1" d="M9896.71 17719.58c0,-287.74 -233.33,-521.07 -521.06,-521.07 -287.73,0 -521.06,233.33 -521.06,521.07 0,287.73 233.33,521.06 521.06,521.06 287.73,0 521.06,-233.33 521.06,-521.06z"/>
     <path class="fil1" d="M11980.96 17719.58c0,-287.74 -233.33,-521.07 -521.06,-521.07 -287.73,0 -521.06,233.33 -521.06,521.07 0,287.73 233.33,521.06 521.06,521.06 287.73,0 521.06,-233.33 521.06,-521.06z"/>
     <path class="fil1" d="M14065.21 17719.58c0,-287.74 -233.33,-521.07 -521.06,-521.07 -287.73,0 -521.07,233.33 -521.07,521.07 0,287.73 233.34,521.06 521.07,521.06 287.73,0 521.06,-233.33 521.06,-521.06z"/>
     <path class="fil1" d="M17191.58 17719.58c0,-287.74 -233.33,-521.07 -521.06,-521.07 -287.73,0 -521.06,233.33 -521.06,521.07 0,287.73 233.33,521.06 521.06,521.06 287.73,0 521.06,-233.33 521.06,-521.06z"/>
     <path class="fil1" d="M18233.71 17719.58c0,-287.74 -233.33,-521.07 -521.07,-521.07 -287.73,0 -521.06,233.33 -521.06,521.07 0,287.73 233.33,521.06 521.06,521.06 287.74,0 521.07,-233.33 521.07,-521.06z"/>
     <path class="fil1" d="M19275.83 17719.58c0,-287.74 -233.33,-521.07 -521.06,-521.07 -287.73,0 -521.06,233.33 -521.06,521.07 0,287.73 233.33,521.06 521.06,521.06 287.73,0 521.06,-233.33 521.06,-521.06z"/>
     <path class="fil1" d="M20317.96 17719.58c0,-287.74 -233.34,-521.07 -521.07,-521.07 -287.73,0 -521.06,233.33 -521.06,521.07 0,287.73 233.33,521.06 521.06,521.06 287.73,0 521.07,-233.33 521.07,-521.06z"/>
     <path class="fil1" d="M22402.2 17719.58c0,-287.74 -233.33,-521.07 -521.06,-521.07 -287.73,0 -521.06,233.33 -521.06,521.07 0,287.73 233.33,521.06 521.06,521.06 287.73,0 521.06,-233.33 521.06,-521.06z"/>
     <path class="fil1" d="M26570.7 17719.58c0,-287.74 -233.33,-521.07 -521.06,-521.07 -287.73,0 -521.06,233.33 -521.06,521.07 0,287.73 233.33,521.06 521.06,521.06 287.73,0 521.06,-233.33 521.06,-521.06z"/>
     <path class="fil1" d="M31781.32 17719.58c0,-287.74 -233.33,-521.07 -521.06,-521.07 -287.73,0 -521.06,233.33 -521.06,521.07 0,287.73 233.33,521.06 521.06,521.06 287.73,0 521.06,-233.33 521.06,-521.06z"/>
     <path class="fil1" d="M32823.45 17719.58c0,-287.74 -233.33,-521.07 -521.06,-521.07 -287.73,0 -521.07,233.33 -521.07,521.07 0,287.73 233.34,521.06 521.07,521.06 287.73,0 521.06,-233.33 521.06,-521.06z"/>
     <path class="fil1" d="M10938.84 18761.7c0,-287.73 -233.34,-521.06 -521.07,-521.06 -287.73,0 -521.06,233.33 -521.06,521.06 0,287.73 233.33,521.06 521.06,521.06 287.73,0 521.07,-233.33 521.07,-521.06z"/>
     <path class="fil1" d="M13023.08 18761.7c0,-287.73 -233.33,-521.06 -521.06,-521.06 -287.73,0 -521.06,233.33 -521.06,521.06 0,287.73 233.33,521.06 521.06,521.06 287.73,0 521.06,-233.33 521.06,-521.06z"/>
     <path class="fil1" d="M14065.21 18761.7c0,-287.73 -233.33,-521.06 -521.06,-521.06 -287.73,0 -521.07,233.33 -521.07,521.06 0,287.73 233.34,521.06 521.07,521.06 287.73,0 521.06,-233.33 521.06,-521.06z"/>
     <path class="fil1" d="M16149.46 18761.7c0,-287.73 -233.33,-521.06 -521.06,-521.06 -287.73,0 -521.07,233.33 -521.07,521.06 0,287.73 233.34,521.06 521.07,521.06 287.73,0 521.06,-233.33 521.06,-521.06z"/>
     <path class="fil1" d="M17191.58 18761.7c0,-287.73 -233.33,-521.06 -521.06,-521.06 -287.73,0 -521.06,233.33 -521.06,521.06 0,287.73 233.33,521.06 521.06,521.06 287.73,0 521.06,-233.33 521.06,-521.06z"/>
     <path class="fil1" d="M18233.71 18761.7c0,-287.73 -233.33,-521.06 -521.07,-521.06 -287.73,0 -521.06,233.33 -521.06,521.06 0,287.73 233.33,521.06 521.06,521.06 287.74,0 521.07,-233.33 521.07,-521.06z"/>
     <path class="fil1" d="M23444.33 18761.7c0,-287.73 -233.33,-521.06 -521.06,-521.06 -287.73,0 -521.07,233.33 -521.07,521.06 0,287.73 233.34,521.06 521.07,521.06 287.73,0 521.06,-233.33 521.06,-521.06z"/>
     <path class="fil1" d="M24486.45 18761.7c0,-287.73 -233.33,-521.06 -521.06,-521.06 -287.73,0 -521.06,233.33 -521.06,521.06 0,287.73 233.33,521.06 521.06,521.06 287.73,0 521.06,-233.33 521.06,-521.06z"/>
     <path class="fil1" d="M25528.58 18761.7c0,-287.73 -233.33,-521.06 -521.06,-521.06 -287.73,0 -521.07,233.33 -521.07,521.06 0,287.73 233.34,521.06 521.07,521.06 287.73,0 521.06,-233.33 521.06,-521.06z"/>
     <path class="fil1" d="M26570.7 18761.7c0,-287.73 -233.33,-521.06 -521.06,-521.06 -287.73,0 -521.06,233.33 -521.06,521.06 0,287.73 233.33,521.06 521.06,521.06 287.73,0 521.06,-233.33 521.06,-521.06z"/>
     <path class="fil1" d="M27612.83 18761.7c0,-287.73 -233.33,-521.06 -521.07,-521.06 -287.73,0 -521.06,233.33 -521.06,521.06 0,287.73 233.33,521.06 521.06,521.06 287.74,0 521.07,-233.33 521.07,-521.06z"/>
     <path class="fil1" d="M32823.45 18761.7c0,-287.73 -233.33,-521.06 -521.06,-521.06 -287.73,0 -521.07,233.33 -521.07,521.06 0,287.73 233.34,521.06 521.07,521.06 287.73,0 521.06,-233.33 521.06,-521.06z"/>
     <path class="fil1" d="M4686.09 19803.82c0,-287.73 -233.33,-521.06 -521.06,-521.06 -287.73,0 -521.06,233.33 -521.06,521.06 0,287.73 233.33,521.07 521.06,521.07 287.73,0 521.06,-233.34 521.06,-521.07z"/>
     <path class="fil1" d="M5728.21 19803.82c0,-287.73 -233.33,-521.06 -521.06,-521.06 -287.73,0 -521.06,233.33 -521.06,521.06 0,287.73 233.33,521.07 521.06,521.07 287.73,0 521.06,-233.34 521.06,-521.07z"/>
     <path class="fil1" d="M7812.46 19803.82c0,-287.73 -233.33,-521.06 -521.06,-521.06 -287.73,0 -521.06,233.33 -521.06,521.06 0,287.73 233.33,521.07 521.06,521.07 287.73,0 521.06,-233.34 521.06,-521.07z"/>
     <path class="fil1" d="M9896.71 19803.82c0,-287.73 -233.33,-521.06 -521.06,-521.06 -287.73,0 -521.06,233.33 -521.06,521.06 0,287.73 233.33,521.07 521.06,521.07 287.73,0 521.06,-233.34 521.06,-521.07z"/>
     <path class="fil1" d="M10938.84 19803.82c0,-287.73 -233.34,-521.06 -521.07,-521.06 -287.73,0 -521.06,233.33 -521.06,521.06 0,287.73 233.33,521.07 521.06,521.07 287.73,0 521.07,-233.34 521.07,-521.07z"/>
     <path class="fil1" d="M13023.08 19803.82c0,-287.73 -233.33,-521.06 -521.06,-521.06 -287.73,0 -521.06,233.33 -521.06,521.06 0,287.73 233.33,521.07 521.06,521.07 287.73,0 521.06,-233.34 521.06,-521.07z"/>
     <path class="fil1" d="M14065.21 19803.82c0,-287.73 -233.33,-521.06 -521.06,-521.06 -287.73,0 -521.07,233.33 -521.07,521.06 0,287.73 233.34,521.07 521.07,521.07 287.73,0 521.06,-233.34 521.06,-521.07z"/>
     <path class="fil1" d="M18233.71 19803.82c0,-287.73 -233.33,-521.06 -521.07,-521.06 -287.73,0 -521.06,233.33 -521.06,521.06 0,287.73 233.33,521.07 521.06,521.07 287.74,0 521.07,-233.34 521.07,-521.07z"/>
     <path class="fil1" d="M19275.83 19803.82c0,-287.73 -233.33,-521.06 -521.06,-521.06 -287.73,0 -521.06,233.33 -521.06,521.06 0,287.73 233.33,521.07 521.06,521.07 287.73,0 521.06,-233.34 521.06,-521.07z"/>
     <path class="fil1" d="M20317.96 19803.82c0,-287.73 -233.34,-521.06 -521.07,-521.06 -287.73,0 -521.06,233.33 -521.06,521.06 0,287.73 233.33,521.07 521.06,521.07 287.73,0 521.07,-233.34 521.07,-521.07z"/>
     <path class="fil1" d="M22402.2 19803.82c0,-287.73 -233.33,-521.06 -521.06,-521.06 -287.73,0 -521.06,233.33 -521.06,521.06 0,287.73 233.33,521.07 521.06,521.07 287.73,0 521.06,-233.34 521.06,-521.07z"/>
     <path class="fil1" d="M23444.33 19803.82c0,-287.73 -233.33,-521.06 -521.06,-521.06 -287.73,0 -521.07,233.33 -521.07,521.06 0,287.73 233.34,521.07 521.07,521.07 287.73,0 521.06,-233.34 521.06,-521.07z"/>
     <path class="fil1" d="M24486.45 19803.82c0,-287.73 -233.33,-521.06 -521.06,-521.06 -287.73,0 -521.06,233.33 -521.06,521.06 0,287.73 233.33,521.07 521.06,521.07 287.73,0 521.06,-233.34 521.06,-521.07z"/>
     <path class="fil1" d="M25528.58 19803.82c0,-287.73 -233.33,-521.06 -521.06,-521.06 -287.73,0 -521.07,233.33 -521.07,521.06 0,287.73 233.34,521.07 521.07,521.07 287.73,0 521.06,-233.34 521.06,-521.07z"/>
     <path class="fil1" d="M31781.32 19803.82c0,-287.73 -233.33,-521.06 -521.06,-521.06 -287.73,0 -521.06,233.33 -521.06,521.06 0,287.73 233.33,521.07 521.06,521.07 287.73,0 521.06,-233.34 521.06,-521.07z"/>
     <path class="fil1" d="M32823.45 19803.82c0,-287.73 -233.33,-521.06 -521.06,-521.06 -287.73,0 -521.07,233.33 -521.07,521.06 0,287.73 233.34,521.07 521.07,521.07 287.73,0 521.06,-233.34 521.06,-521.07z"/>
     <path class="fil1" d="M4686.09 20845.95c0,-287.73 -233.33,-521.06 -521.06,-521.06 -287.73,0 -521.06,233.33 -521.06,521.06 0,287.73 233.33,521.06 521.06,521.06 287.73,0 521.06,-233.33 521.06,-521.06z"/>
     <path class="fil1" d="M6770.34 20845.95c0,-287.73 -233.33,-521.06 -521.06,-521.06 -287.73,0 -521.07,233.33 -521.07,521.06 0,287.73 233.34,521.06 521.07,521.06 287.73,0 521.06,-233.33 521.06,-521.06z"/>
     <path class="fil1" d="M7812.46 20845.95c0,-287.73 -233.33,-521.06 -521.06,-521.06 -287.73,0 -521.06,233.33 -521.06,521.06 0,287.73 233.33,521.06 521.06,521.06 287.73,0 521.06,-233.33 521.06,-521.06z"/>
     <path class="fil1" d="M8854.59 20845.95c0,-287.73 -233.33,-521.06 -521.06,-521.06 -287.74,0 -521.07,233.33 -521.07,521.06 0,287.73 233.33,521.06 521.07,521.06 287.73,0 521.06,-233.33 521.06,-521.06z"/>
     <path class="fil1" d="M10938.84 20845.95c0,-287.73 -233.34,-521.06 -521.07,-521.06 -287.73,0 -521.06,233.33 -521.06,521.06 0,287.73 233.33,521.06 521.06,521.06 287.73,0 521.07,-233.33 521.07,-521.06z"/>
     <path class="fil1" d="M13023.08 20845.95c0,-287.73 -233.33,-521.06 -521.06,-521.06 -287.73,0 -521.06,233.33 -521.06,521.06 0,287.73 233.33,521.06 521.06,521.06 287.73,0 521.06,-233.33 521.06,-521.06z"/>
     <path class="fil1" d="M14065.21 20845.95c0,-287.73 -233.33,-521.06 -521.06,-521.06 -287.73,0 -521.07,233.33 -521.07,521.06 0,287.73 233.34,521.06 521.07,521.06 287.73,0 521.06,-233.33 521.06,-521.06z"/>
     <path class="fil1" d="M16149.46 20845.95c0,-287.73 -233.33,-521.06 -521.06,-521.06 -287.73,0 -521.07,233.33 -521.07,521.06 0,287.73 233.34,521.06 521.07,521.06 287.73,0 521.06,-233.33 521.06,-521.06z"/>
     <path class="fil1" d="M17191.58 20845.95c0,-287.73 -233.33,-521.06 -521.06,-521.06 -287.73,0 -521.06,233.33 -521.06,521.06 0,287.73 233.33,521.06 521.06,521.06 287.73,0 521.06,-233.33 521.06,-521.06z"/>
     <path class="fil1" d="M19275.83 20845.95c0,-287.73 -233.33,-521.06 -521.06,-521.06 -287.73,0 -521.06,233.33 -521.06,521.06 0,287.73 233.33,521.06 521.06,521.06 287.73,0 521.06,-233.33 521.06,-521.06z"/>
     <path class="fil1" d="M22402.2 20845.95c0,-287.73 -233.33,-521.06 -521.06,-521.06 -287.73,0 -521.06,233.33 -521.06,521.06 0,287.73 233.33,521.06 521.06,521.06 287.73,0 521.06,-233.33 521.06,-521.06z"/>
     <path class="fil1" d="M27612.83 20845.95c0,-287.73 -233.33,-521.06 -521.07,-521.06 -287.73,0 -521.06,233.33 -521.06,521.06 0,287.73 233.33,521.06 521.06,521.06 287.74,0 521.07,-233.33 521.07,-521.06z"/>
     <path class="fil1" d="M29697.08 20845.95c0,-287.73 -233.34,-521.06 -521.07,-521.06 -287.73,0 -521.06,233.33 -521.06,521.06 0,287.73 233.33,521.06 521.06,521.06 287.73,0 521.07,-233.33 521.07,-521.06z"/>
     <path class="fil1" d="M30739.2 20845.95c0,-287.73 -233.33,-521.06 -521.06,-521.06 -287.73,0 -521.06,233.33 -521.06,521.06 0,287.73 233.33,521.06 521.06,521.06 287.73,0 521.06,-233.33 521.06,-521.06z"/>
     <path class="fil1" d="M31781.32 20845.95c0,-287.73 -233.33,-521.06 -521.06,-521.06 -287.73,0 -521.06,233.33 -521.06,521.06 0,287.73 233.33,521.06 521.06,521.06 287.73,0 521.06,-233.33 521.06,-521.06z"/>
     <path class="fil1" d="M32823.45 20845.95c0,-287.73 -233.33,-521.06 -521.06,-521.06 -287.73,0 -521.07,233.33 -521.07,521.06 0,287.73 233.34,521.06 521.07,521.06 287.73,0 521.06,-233.33 521.06,-521.06z"/>
     <path class="fil1" d="M3643.97 21888.07c0,-287.73 -233.34,-521.06 -521.07,-521.06 -287.73,0 -521.06,233.33 -521.06,521.06 0,287.73 233.33,521.07 521.06,521.07 287.73,0 521.07,-233.34 521.07,-521.07z"/>
     <path class="fil1" d="M5728.21 21888.07c0,-287.73 -233.33,-521.06 -521.06,-521.06 -287.73,0 -521.06,233.33 -521.06,521.06 0,287.73 233.33,521.07 521.06,521.07 287.73,0 521.06,-233.34 521.06,-521.07z"/>
     <path class="fil1" d="M6770.34 21888.07c0,-287.73 -233.33,-521.06 -521.06,-521.06 -287.73,0 -521.07,233.33 -521.07,521.06 0,287.73 233.34,521.07 521.07,521.07 287.73,0 521.06,-233.34 521.06,-521.07z"/>
     <path class="fil1" d="M7812.46 21888.07c0,-287.73 -233.33,-521.06 -521.06,-521.06 -287.73,0 -521.06,233.33 -521.06,521.06 0,287.73 233.33,521.07 521.06,521.07 287.73,0 521.06,-233.34 521.06,-521.07z"/>
     <path class="fil1" d="M9896.71 21888.07c0,-287.73 -233.33,-521.06 -521.06,-521.06 -287.73,0 -521.06,233.33 -521.06,521.06 0,287.73 233.33,521.07 521.06,521.07 287.73,0 521.06,-233.34 521.06,-521.07z"/>
     <path class="fil1" d="M11980.96 21888.07c0,-287.73 -233.33,-521.06 -521.06,-521.06 -287.73,0 -521.06,233.33 -521.06,521.06 0,287.73 233.33,521.07 521.06,521.07 287.73,0 521.06,-233.34 521.06,-521.07z"/>
     <path class="fil1" d="M16149.46 21888.07c0,-287.73 -233.33,-521.06 -521.06,-521.06 -287.73,0 -521.07,233.33 -521.07,521.06 0,287.73 233.34,521.07 521.07,521.07 287.73,0 521.06,-233.34 521.06,-521.07z"/>
     <path class="fil1" d="M17191.58 21888.07c0,-287.73 -233.33,-521.06 -521.06,-521.06 -287.73,0 -521.06,233.33 -521.06,521.06 0,287.73 233.33,521.07 521.06,521.07 287.73,0 521.06,-233.34 521.06,-521.07z"/>
     <path class="fil1" d="M19275.83 21888.07c0,-287.73 -233.33,-521.06 -521.06,-521.06 -287.73,0 -521.06,233.33 -521.06,521.06 0,287.73 233.33,521.07 521.06,521.07 287.73,0 521.06,-233.34 521.06,-521.07z"/>
     <path class="fil1" d="M20317.96 21888.07c0,-287.73 -233.34,-521.06 -521.07,-521.06 -287.73,0 -521.06,233.33 -521.06,521.06 0,287.73 233.33,521.07 521.06,521.07 287.73,0 521.07,-233.34 521.07,-521.07z"/>
     <path class="fil1" d="M22402.2 21888.07c0,-287.73 -233.33,-521.06 -521.06,-521.06 -287.73,0 -521.06,233.33 -521.06,521.06 0,287.73 233.33,521.07 521.06,521.07 287.73,0 521.06,-233.34 521.06,-521.07z"/>
     <path class="fil1" d="M24486.45 21888.07c0,-287.73 -233.33,-521.06 -521.06,-521.06 -287.73,0 -521.06,233.33 -521.06,521.06 0,287.73 233.33,521.07 521.06,521.07 287.73,0 521.06,-233.34 521.06,-521.07z"/>
     <path class="fil1" d="M25528.58 21888.07c0,-287.73 -233.33,-521.06 -521.06,-521.06 -287.73,0 -521.07,233.33 -521.07,521.06 0,287.73 233.34,521.07 521.07,521.07 287.73,0 521.06,-233.34 521.06,-521.07z"/>
     <path class="fil1" d="M27612.83 21888.07c0,-287.73 -233.33,-521.06 -521.07,-521.06 -287.73,0 -521.06,233.33 -521.06,521.06 0,287.73 233.33,521.07 521.06,521.07 287.74,0 521.07,-233.34 521.07,-521.07z"/>
     <path class="fil1" d="M29697.08 21888.07c0,-287.73 -233.34,-521.06 -521.07,-521.06 -287.73,0 -521.06,233.33 -521.06,521.06 0,287.73 233.33,521.07 521.06,521.07 287.73,0 521.07,-233.34 521.07,-521.07z"/>
     <path class="fil1" d="M31781.32 21888.07c0,-287.73 -233.33,-521.06 -521.06,-521.06 -287.73,0 -521.06,233.33 -521.06,521.06 0,287.73 233.33,521.07 521.06,521.07 287.73,0 521.06,-233.34 521.06,-521.07z"/>
     <path class="fil1" d="M32823.45 21888.07c0,-287.73 -233.33,-521.06 -521.06,-521.06 -287.73,0 -521.07,233.33 -521.07,521.06 0,287.73 233.34,521.07 521.07,521.07 287.73,0 521.06,-233.34 521.06,-521.07z"/>
     <path class="fil1" d="M6770.34 22930.2c0,-287.73 -233.33,-521.06 -521.06,-521.06 -287.73,0 -521.07,233.33 -521.07,521.06 0,287.73 233.34,521.06 521.07,521.06 287.73,0 521.06,-233.33 521.06,-521.06z"/>
     <path class="fil1" d="M8854.59 22930.2c0,-287.73 -233.33,-521.06 -521.06,-521.06 -287.74,0 -521.07,233.33 -521.07,521.06 0,287.73 233.33,521.06 521.07,521.06 287.73,0 521.06,-233.33 521.06,-521.06z"/>
     <path class="fil1" d="M10938.84 22930.2c0,-287.73 -233.34,-521.06 -521.07,-521.06 -287.73,0 -521.06,233.33 -521.06,521.06 0,287.73 233.33,521.06 521.06,521.06 287.73,0 521.07,-233.33 521.07,-521.06z"/>
     <path class="fil1" d="M15107.33 22930.2c0,-287.73 -233.33,-521.06 -521.06,-521.06 -287.73,0 -521.06,233.33 -521.06,521.06 0,287.73 233.33,521.06 521.06,521.06 287.73,0 521.06,-233.33 521.06,-521.06z"/>
     <path class="fil1" d="M16149.46 22930.2c0,-287.73 -233.33,-521.06 -521.06,-521.06 -287.73,0 -521.07,233.33 -521.07,521.06 0,287.73 233.34,521.06 521.07,521.06 287.73,0 521.06,-233.33 521.06,-521.06z"/>
     <path class="fil1" d="M21360.08 22930.2c0,-287.73 -233.33,-521.06 -521.06,-521.06 -287.73,0 -521.06,233.33 -521.06,521.06 0,287.73 233.33,521.06 521.06,521.06 287.73,0 521.06,-233.33 521.06,-521.06z"/>
     <path class="fil1" d="M22402.2 22930.2c0,-287.73 -233.33,-521.06 -521.06,-521.06 -287.73,0 -521.06,233.33 -521.06,521.06 0,287.73 233.33,521.06 521.06,521.06 287.73,0 521.06,-233.33 521.06,-521.06z"/>
     <path class="fil1" d="M23444.33 22930.2c0,-287.73 -233.33,-521.06 -521.06,-521.06 -287.73,0 -521.07,233.33 -521.07,521.06 0,287.73 233.34,521.06 521.07,521.06 287.73,0 521.06,-233.33 521.06,-521.06z"/>
     <path class="fil1" d="M28654.95 22930.2c0,-287.73 -233.33,-521.06 -521.06,-521.06 -287.73,0 -521.06,233.33 -521.06,521.06 0,287.73 233.33,521.06 521.06,521.06 287.73,0 521.06,-233.33 521.06,-521.06z"/>
     <path class="fil1" d="M29697.08 22930.2c0,-287.73 -233.34,-521.06 -521.07,-521.06 -287.73,0 -521.06,233.33 -521.06,521.06 0,287.73 233.33,521.06 521.06,521.06 287.73,0 521.07,-233.33 521.07,-521.06z"/>
     <path class="fil1" d="M3643.97 23972.32c0,-287.73 -233.34,-521.06 -521.07,-521.06 -287.73,0 -521.06,233.33 -521.06,521.06 0,287.73 233.33,521.06 521.06,521.06 287.73,0 521.07,-233.33 521.07,-521.06z"/>
     <path class="fil1" d="M5728.21 23972.32c0,-287.73 -233.33,-521.06 -521.06,-521.06 -287.73,0 -521.06,233.33 -521.06,521.06 0,287.73 233.33,521.06 521.06,521.06 287.73,0 521.06,-233.33 521.06,-521.06z"/>
     <path class="fil1" d="M6770.34 23972.32c0,-287.73 -233.33,-521.06 -521.06,-521.06 -287.73,0 -521.07,233.33 -521.07,521.06 0,287.73 233.34,521.06 521.07,521.06 287.73,0 521.06,-233.33 521.06,-521.06z"/>
     <path class="fil1" d="M7812.46 23972.32c0,-287.73 -233.33,-521.06 -521.06,-521.06 -287.73,0 -521.06,233.33 -521.06,521.06 0,287.73 233.33,521.06 521.06,521.06 287.73,0 521.06,-233.33 521.06,-521.06z"/>
     <path class="fil1" d="M9896.71 23972.32c0,-287.73 -233.33,-521.06 -521.06,-521.06 -287.73,0 -521.06,233.33 -521.06,521.06 0,287.73 233.33,521.06 521.06,521.06 287.73,0 521.06,-233.33 521.06,-521.06z"/>
     <path class="fil1" d="M14065.21 23972.32c0,-287.73 -233.33,-521.06 -521.06,-521.06 -287.73,0 -521.07,233.33 -521.07,521.06 0,287.73 233.34,521.06 521.07,521.06 287.73,0 521.06,-233.33 521.06,-521.06z"/>
     <path class="fil1" d="M17191.58 23972.32c0,-287.73 -233.33,-521.06 -521.06,-521.06 -287.73,0 -521.06,233.33 -521.06,521.06 0,287.73 233.33,521.06 521.06,521.06 287.73,0 521.06,-233.33 521.06,-521.06z"/>
     <path class="fil1" d="M18233.71 23972.32c0,-287.73 -233.33,-521.06 -521.07,-521.06 -287.73,0 -521.06,233.33 -521.06,521.06 0,287.73 233.33,521.06 521.06,521.06 287.74,0 521.07,-233.33 521.07,-521.06z"/>
     <path class="fil1" d="M22402.2 23972.32c0,-287.73 -233.33,-521.06 -521.06,-521.06 -287.73,0 -521.06,233.33 -521.06,521.06 0,287.73 233.33,521.06 521.06,521.06 287.73,0 521.06,-233.33 521.06,-521.06z"/>
     <path class="fil1" d="M30739.2 23972.32c0,-287.73 -233.33,-521.06 -521.06,-521.06 -287.73,0 -521.06,233.33 -521.06,521.06 0,287.73 233.33,521.06 521.06,521.06 287.73,0 521.06,-233.33 521.06,-521.06z"/>
     <path class="fil1" d="M31781.32 23972.32c0,-287.73 -233.33,-521.06 -521.06,-521.06 -287.73,0 -521.06,233.33 -521.06,521.06 0,287.73 233.33,521.06 521.06,521.06 287.73,0 521.06,-233.33 521.06,-521.06z"/>
     <path class="fil1" d="M32823.45 23972.32c0,-287.73 -233.33,-521.06 -521.06,-521.06 -287.73,0 -521.07,233.33 -521.07,521.06 0,287.73 233.34,521.06 521.07,521.06 287.73,0 521.06,-233.33 521.06,-521.06z"/>
     <path class="fil1" d="M11980.96 25014.45c0,-287.73 -233.33,-521.07 -521.06,-521.07 -287.73,0 -521.06,233.34 -521.06,521.07 0,287.73 233.33,521.06 521.06,521.06 287.73,0 521.06,-233.33 521.06,-521.06z"/>
     <path class="fil1" d="M13023.08 25014.45c0,-287.73 -233.33,-521.07 -521.06,-521.07 -287.73,0 -521.06,233.34 -521.06,521.07 0,287.73 233.33,521.06 521.06,521.06 287.73,0 521.06,-233.33 521.06,-521.06z"/>
     <path class="fil1" d="M16149.46 25014.45c0,-287.73 -233.33,-521.07 -521.06,-521.07 -287.73,0 -521.07,233.34 -521.07,521.07 0,287.73 233.34,521.06 521.07,521.06 287.73,0 521.06,-233.33 521.06,-521.06z"/>
     <path class="fil1" d="M20317.96 25014.45c0,-287.73 -233.34,-521.07 -521.07,-521.07 -287.73,0 -521.06,233.34 -521.06,521.07 0,287.73 233.33,521.06 521.06,521.06 287.73,0 521.07,-233.33 521.07,-521.06z"/>
     <path class="fil1" d="M31781.32 25014.45c0,-287.73 -233.33,-521.07 -521.06,-521.07 -287.73,0 -521.06,233.34 -521.06,521.07 0,287.73 233.33,521.06 521.06,521.06 287.73,0 521.06,-233.33 521.06,-521.06z"/>
     <path class="fil1" d="M32823.45 25014.45c0,-287.73 -233.33,-521.07 -521.06,-521.07 -287.73,0 -521.07,233.34 -521.07,521.07 0,287.73 233.34,521.06 521.07,521.06 287.73,0 521.06,-233.33 521.06,-521.06z"/>
     <path class="fil1" d="M13023.08 26056.57c0,-287.73 -233.33,-521.06 -521.06,-521.06 -287.73,0 -521.06,233.33 -521.06,521.06 0,287.73 233.33,521.06 521.06,521.06 287.73,0 521.06,-233.33 521.06,-521.06z"/>
     <path class="fil1" d="M17191.58 26056.57c0,-287.73 -233.33,-521.06 -521.06,-521.06 -287.73,0 -521.06,233.33 -521.06,521.06 0,287.73 233.33,521.06 521.06,521.06 287.73,0 521.06,-233.33 521.06,-521.06z"/>
     <path class="fil1" d="M18233.71 26056.57c0,-287.73 -233.33,-521.06 -521.07,-521.06 -287.73,0 -521.06,233.33 -521.06,521.06 0,287.73 233.33,521.06 521.06,521.06 287.74,0 521.07,-233.33 521.07,-521.06z"/>
     <path class="fil1" d="M20317.96 26056.57c0,-287.73 -233.34,-521.06 -521.07,-521.06 -287.73,0 -521.06,233.33 -521.06,521.06 0,287.73 233.33,521.06 521.06,521.06 287.73,0 521.07,-233.33 521.07,-521.06z"/>
     <path class="fil1" d="M21360.08 26056.57c0,-287.73 -233.33,-521.06 -521.06,-521.06 -287.73,0 -521.06,233.33 -521.06,521.06 0,287.73 233.33,521.06 521.06,521.06 287.73,0 521.06,-233.33 521.06,-521.06z"/>
     <path class="fil1" d="M22402.2 26056.57c0,-287.73 -233.33,-521.06 -521.06,-521.06 -287.73,0 -521.06,233.33 -521.06,521.06 0,287.73 233.33,521.06 521.06,521.06 287.73,0 521.06,-233.33 521.06,-521.06z"/>
     <path class="fil1" d="M29697.08 26056.57c0,-287.73 -233.34,-521.06 -521.07,-521.06 -287.73,0 -521.06,233.33 -521.06,521.06 0,287.73 233.33,521.06 521.06,521.06 287.73,0 521.07,-233.33 521.07,-521.06z"/>
     <path class="fil1" d="M30739.2 26056.57c0,-287.73 -233.33,-521.06 -521.06,-521.06 -287.73,0 -521.06,233.33 -521.06,521.06 0,287.73 233.33,521.06 521.06,521.06 287.73,0 521.06,-233.33 521.06,-521.06z"/>
     <path class="fil1" d="M14065.21 27098.69c0,-287.73 -233.33,-521.06 -521.06,-521.06 -287.73,0 -521.07,233.33 -521.07,521.06 0,287.74 233.34,521.07 521.07,521.07 287.73,0 521.06,-233.33 521.06,-521.07z"/>
     <path class="fil1" d="M19275.83 27098.69c0,-287.73 -233.33,-521.06 -521.06,-521.06 -287.73,0 -521.06,233.33 -521.06,521.06 0,287.74 233.33,521.07 521.06,521.07 287.73,0 521.06,-233.33 521.06,-521.07z"/>
     <path class="fil1" d="M20317.96 27098.69c0,-287.73 -233.34,-521.06 -521.07,-521.06 -287.73,0 -521.06,233.33 -521.06,521.06 0,287.74 233.33,521.07 521.06,521.07 287.73,0 521.07,-233.33 521.07,-521.07z"/>
     <path class="fil1" d="M21360.08 27098.69c0,-287.73 -233.33,-521.06 -521.06,-521.06 -287.73,0 -521.06,233.33 -521.06,521.06 0,287.74 233.33,521.07 521.06,521.07 287.73,0 521.06,-233.33 521.06,-521.07z"/>
     <path class="fil1" d="M30739.2 27098.69c0,-287.73 -233.33,-521.06 -521.06,-521.06 -287.73,0 -521.06,233.33 -521.06,521.06 0,287.74 233.33,521.07 521.06,521.07 287.73,0 521.06,-233.33 521.06,-521.07z"/>
     <path class="fil1" d="M13023.08 28140.82c0,-287.73 -233.33,-521.06 -521.06,-521.06 -287.73,0 -521.06,233.33 -521.06,521.06 0,287.73 233.33,521.06 521.06,521.06 287.73,0 521.06,-233.33 521.06,-521.06z"/>
     <path class="fil1" d="M15107.33 28140.82c0,-287.73 -233.33,-521.06 -521.06,-521.06 -287.73,0 -521.06,233.33 -521.06,521.06 0,287.73 233.33,521.06 521.06,521.06 287.73,0 521.06,-233.33 521.06,-521.06z"/>
     <path class="fil1" d="M16149.46 28140.82c0,-287.73 -233.33,-521.06 -521.06,-521.06 -287.73,0 -521.07,233.33 -521.07,521.06 0,287.73 233.34,521.06 521.07,521.06 287.73,0 521.06,-233.33 521.06,-521.06z"/>
     <path class="fil1" d="M18233.71 28140.82c0,-287.73 -233.33,-521.06 -521.07,-521.06 -287.73,0 -521.06,233.33 -521.06,521.06 0,287.73 233.33,521.06 521.06,521.06 287.74,0 521.07,-233.33 521.07,-521.06z"/>
     <path class="fil1" d="M19275.83 28140.82c0,-287.73 -233.33,-521.06 -521.06,-521.06 -287.73,0 -521.06,233.33 -521.06,521.06 0,287.73 233.33,521.06 521.06,521.06 287.73,0 521.06,-233.33 521.06,-521.06z"/>
     <path class="fil1" d="M22402.2 28140.82c0,-287.73 -233.33,-521.06 -521.06,-521.06 -287.73,0 -521.06,233.33 -521.06,521.06 0,287.73 233.33,521.06 521.06,521.06 287.73,0 521.06,-233.33 521.06,-521.06z"/>
     <path class="fil1" d="M29697.08 28140.82c0,-287.73 -233.34,-521.06 -521.07,-521.06 -287.73,0 -521.06,233.33 -521.06,521.06 0,287.73 233.33,521.06 521.06,521.06 287.73,0 521.07,-233.33 521.07,-521.06z"/>
     <path class="fil1" d="M31781.32 28140.82c0,-287.73 -233.33,-521.06 -521.06,-521.06 -287.73,0 -521.06,233.33 -521.06,521.06 0,287.73 233.33,521.06 521.06,521.06 287.73,0 521.06,-233.33 521.06,-521.06z"/>
     <path class="fil1" d="M32823.45 28140.82c0,-287.73 -233.33,-521.06 -521.06,-521.06 -287.73,0 -521.07,233.33 -521.07,521.06 0,287.73 233.34,521.06 521.07,521.06 287.73,0 521.06,-233.33 521.06,-521.06z"/>
     <path class="fil1" d="M11980.96 29182.94c0,-287.73 -233.33,-521.06 -521.06,-521.06 -287.73,0 -521.06,233.33 -521.06,521.06 0,287.73 233.33,521.07 521.06,521.07 287.73,0 521.06,-233.34 521.06,-521.07z"/>
     <path class="fil1" d="M13023.08 29182.94c0,-287.73 -233.33,-521.06 -521.06,-521.06 -287.73,0 -521.06,233.33 -521.06,521.06 0,287.73 233.33,521.07 521.06,521.07 287.73,0 521.06,-233.34 521.06,-521.07z"/>
     <path class="fil1" d="M17191.58 29182.94c0,-287.73 -233.33,-521.06 -521.06,-521.06 -287.73,0 -521.06,233.33 -521.06,521.06 0,287.73 233.33,521.07 521.06,521.07 287.73,0 521.06,-233.34 521.06,-521.07z"/>
     <path class="fil1" d="M19275.83 29182.94c0,-287.73 -233.33,-521.06 -521.06,-521.06 -287.73,0 -521.06,233.33 -521.06,521.06 0,287.73 233.33,521.07 521.06,521.07 287.73,0 521.06,-233.34 521.06,-521.07z"/>
     <path class="fil1" d="M22402.2 29182.94c0,-287.73 -233.33,-521.06 -521.06,-521.06 -287.73,0 -521.06,233.33 -521.06,521.06 0,287.73 233.33,521.07 521.06,521.07 287.73,0 521.06,-233.34 521.06,-521.07z"/>
     <path class="fil1" d="M23444.33 29182.94c0,-287.73 -233.33,-521.06 -521.06,-521.06 -287.73,0 -521.07,233.33 -521.07,521.06 0,287.73 233.34,521.07 521.07,521.07 287.73,0 521.06,-233.34 521.06,-521.07z"/>
     <path class="fil1" d="M24486.45 29182.94c0,-287.73 -233.33,-521.06 -521.06,-521.06 -287.73,0 -521.06,233.33 -521.06,521.06 0,287.73 233.33,521.07 521.06,521.07 287.73,0 521.06,-233.34 521.06,-521.07z"/>
     <path class="fil1" d="M25528.58 29182.94c0,-287.73 -233.33,-521.06 -521.06,-521.06 -287.73,0 -521.07,233.33 -521.07,521.06 0,287.73 233.34,521.07 521.07,521.07 287.73,0 521.06,-233.34 521.06,-521.07z"/>
     <path class="fil1" d="M26570.7 29182.94c0,-287.73 -233.33,-521.06 -521.06,-521.06 -287.73,0 -521.06,233.33 -521.06,521.06 0,287.73 233.33,521.07 521.06,521.07 287.73,0 521.06,-233.34 521.06,-521.07z"/>
     <path class="fil1" d="M28654.95 29182.94c0,-287.73 -233.33,-521.06 -521.06,-521.06 -287.73,0 -521.06,233.33 -521.06,521.06 0,287.73 233.33,521.07 521.06,521.07 287.73,0 521.06,-233.34 521.06,-521.07z"/>
     <path class="fil1" d="M32823.45 29182.94c0,-287.73 -233.33,-521.06 -521.06,-521.06 -287.73,0 -521.07,233.33 -521.07,521.06 0,287.73 233.34,521.07 521.07,521.07 287.73,0 521.06,-233.34 521.06,-521.07z"/>
     <path class="fil1" d="M14065.21 30225.07c0,-287.73 -233.33,-521.06 -521.06,-521.06 -287.73,0 -521.07,233.33 -521.07,521.06 0,287.73 233.34,521.06 521.07,521.06 287.73,0 521.06,-233.33 521.06,-521.06z"/>
     <path class="fil1" d="M15107.33 30225.07c0,-287.73 -233.33,-521.06 -521.06,-521.06 -287.73,0 -521.06,233.33 -521.06,521.06 0,287.73 233.33,521.06 521.06,521.06 287.73,0 521.06,-233.33 521.06,-521.06z"/>
     <path class="fil1" d="M16149.46 30225.07c0,-287.73 -233.33,-521.06 -521.06,-521.06 -287.73,0 -521.07,233.33 -521.07,521.06 0,287.73 233.34,521.06 521.07,521.06 287.73,0 521.06,-233.33 521.06,-521.06z"/>
     <path class="fil1" d="M17191.58 30225.07c0,-287.73 -233.33,-521.06 -521.06,-521.06 -287.73,0 -521.06,233.33 -521.06,521.06 0,287.73 233.33,521.06 521.06,521.06 287.73,0 521.06,-233.33 521.06,-521.06z"/>
     <path class="fil1" d="M21360.08 30225.07c0,-287.73 -233.33,-521.06 -521.06,-521.06 -287.73,0 -521.06,233.33 -521.06,521.06 0,287.73 233.33,521.06 521.06,521.06 287.73,0 521.06,-233.33 521.06,-521.06z"/>
     <path class="fil1" d="M23444.33 30225.07c0,-287.73 -233.33,-521.06 -521.06,-521.06 -287.73,0 -521.07,233.33 -521.07,521.06 0,287.73 233.34,521.06 521.07,521.06 287.73,0 521.06,-233.33 521.06,-521.06z"/>
     <path class="fil1" d="M24486.45 30225.07c0,-287.73 -233.33,-521.06 -521.06,-521.06 -287.73,0 -521.06,233.33 -521.06,521.06 0,287.73 233.33,521.06 521.06,521.06 287.73,0 521.06,-233.33 521.06,-521.06z"/>
     <path class="fil1" d="M28654.95 30225.07c0,-287.73 -233.33,-521.06 -521.06,-521.06 -287.73,0 -521.06,233.33 -521.06,521.06 0,287.73 233.33,521.06 521.06,521.06 287.73,0 521.06,-233.33 521.06,-521.06z"/>
     <path class="fil1" d="M29697.08 30225.07c0,-287.73 -233.34,-521.06 -521.07,-521.06 -287.73,0 -521.06,233.33 -521.06,521.06 0,287.73 233.33,521.06 521.06,521.06 287.73,0 521.07,-233.33 521.07,-521.06z"/>
     <path class="fil1" d="M30739.2 30225.07c0,-287.73 -233.33,-521.06 -521.06,-521.06 -287.73,0 -521.06,233.33 -521.06,521.06 0,287.73 233.33,521.06 521.06,521.06 287.73,0 521.06,-233.33 521.06,-521.06z"/>
     <path class="fil1" d="M32823.45 30225.07c0,-287.73 -233.33,-521.06 -521.06,-521.06 -287.73,0 -521.07,233.33 -521.07,521.06 0,287.73 233.34,521.06 521.07,521.06 287.73,0 521.06,-233.33 521.06,-521.06z"/>
     <path class="fil1" d="M13023.08 31267.19c0,-287.73 -233.33,-521.06 -521.06,-521.06 -287.73,0 -521.06,233.33 -521.06,521.06 0,287.73 233.33,521.06 521.06,521.06 287.73,0 521.06,-233.33 521.06,-521.06z"/>
     <path class="fil1" d="M15107.33 31267.19c0,-287.73 -233.33,-521.06 -521.06,-521.06 -287.73,0 -521.06,233.33 -521.06,521.06 0,287.73 233.33,521.06 521.06,521.06 287.73,0 521.06,-233.33 521.06,-521.06z"/>
     <path class="fil1" d="M16149.46 31267.19c0,-287.73 -233.33,-521.06 -521.06,-521.06 -287.73,0 -521.07,233.33 -521.07,521.06 0,287.73 233.34,521.06 521.07,521.06 287.73,0 521.06,-233.33 521.06,-521.06z"/>
     <path class="fil1" d="M18233.71 31267.19c0,-287.73 -233.33,-521.06 -521.07,-521.06 -287.73,0 -521.06,233.33 -521.06,521.06 0,287.73 233.33,521.06 521.06,521.06 287.74,0 521.07,-233.33 521.07,-521.06z"/>
     <path class="fil1" d="M22402.2 31267.19c0,-287.73 -233.33,-521.06 -521.06,-521.06 -287.73,0 -521.06,233.33 -521.06,521.06 0,287.73 233.33,521.06 521.06,521.06 287.73,0 521.06,-233.33 521.06,-521.06z"/>
     <path class="fil1" d="M23444.33 31267.19c0,-287.73 -233.33,-521.06 -521.06,-521.06 -287.73,0 -521.07,233.33 -521.07,521.06 0,287.73 233.34,521.06 521.07,521.06 287.73,0 521.06,-233.33 521.06,-521.06z"/>
     <path class="fil1" d="M24486.45 31267.19c0,-287.73 -233.33,-521.06 -521.06,-521.06 -287.73,0 -521.06,233.33 -521.06,521.06 0,287.73 233.33,521.06 521.06,521.06 287.73,0 521.06,-233.33 521.06,-521.06z"/>
     <path class="fil1" d="M26570.7 31267.19c0,-287.73 -233.33,-521.06 -521.06,-521.06 -287.73,0 -521.06,233.33 -521.06,521.06 0,287.73 233.33,521.06 521.06,521.06 287.73,0 521.06,-233.33 521.06,-521.06z"/>
     <path class="fil1" d="M27612.83 31267.19c0,-287.73 -233.33,-521.06 -521.07,-521.06 -287.73,0 -521.06,233.33 -521.06,521.06 0,287.73 233.33,521.06 521.06,521.06 287.74,0 521.07,-233.33 521.07,-521.06z"/>
     <path class="fil1" d="M31781.32 31267.19c0,-287.73 -233.33,-521.06 -521.06,-521.06 -287.73,0 -521.06,233.33 -521.06,521.06 0,287.73 233.33,521.06 521.06,521.06 287.73,0 521.06,-233.33 521.06,-521.06z"/>
     <path class="fil1" d="M14065.21 32309.32c0,-287.73 -233.33,-521.07 -521.06,-521.07 -287.73,0 -521.07,233.34 -521.07,521.07 0,287.73 233.34,521.06 521.07,521.06 287.73,0 521.06,-233.33 521.06,-521.06z"/>
     <path class="fil1" d="M15107.33 32309.32c0,-287.73 -233.33,-521.07 -521.06,-521.07 -287.73,0 -521.06,233.34 -521.06,521.07 0,287.73 233.33,521.06 521.06,521.06 287.73,0 521.06,-233.33 521.06,-521.06z"/>
     <path class="fil1" d="M18233.71 32309.32c0,-287.73 -233.33,-521.07 -521.07,-521.07 -287.73,0 -521.06,233.34 -521.06,521.07 0,287.73 233.33,521.06 521.06,521.06 287.74,0 521.07,-233.33 521.07,-521.06z"/>
     <path class="fil1" d="M19275.83 32309.32c0,-287.73 -233.33,-521.07 -521.06,-521.07 -287.73,0 -521.06,233.34 -521.06,521.07 0,287.73 233.33,521.06 521.06,521.06 287.73,0 521.06,-233.33 521.06,-521.06z"/>
     <path class="fil1" d="M20317.96 32309.32c0,-287.73 -233.34,-521.07 -521.07,-521.07 -287.73,0 -521.06,233.34 -521.06,521.07 0,287.73 233.33,521.06 521.06,521.06 287.73,0 521.07,-233.33 521.07,-521.06z"/>
     <path class="fil1" d="M21360.08 32309.32c0,-287.73 -233.33,-521.07 -521.06,-521.07 -287.73,0 -521.06,233.34 -521.06,521.07 0,287.73 233.33,521.06 521.06,521.06 287.73,0 521.06,-233.33 521.06,-521.06z"/>
     <path class="fil1" d="M24486.45 32309.32c0,-287.73 -233.33,-521.07 -521.06,-521.07 -287.73,0 -521.06,233.34 -521.06,521.07 0,287.73 233.33,521.06 521.06,521.06 287.73,0 521.06,-233.33 521.06,-521.06z"/>
     <path class="fil1" d="M25528.58 32309.32c0,-287.73 -233.33,-521.07 -521.06,-521.07 -287.73,0 -521.07,233.34 -521.07,521.07 0,287.73 233.34,521.06 521.07,521.06 287.73,0 521.06,-233.33 521.06,-521.06z"/>
     <path class="fil1" d="M26570.7 32309.32c0,-287.73 -233.33,-521.07 -521.06,-521.07 -287.73,0 -521.06,233.34 -521.06,521.07 0,287.73 233.33,521.06 521.06,521.06 287.73,0 521.06,-233.33 521.06,-521.06z"/>
     <path class="fil1" d="M28654.95 32309.32c0,-287.73 -233.33,-521.07 -521.06,-521.07 -287.73,0 -521.06,233.34 -521.06,521.07 0,287.73 233.33,521.06 521.06,521.06 287.73,0 521.06,-233.33 521.06,-521.06z"/>
     <path class="fil1" d="M30739.2 32309.32c0,-287.73 -233.33,-521.07 -521.06,-521.07 -287.73,0 -521.06,233.34 -521.06,521.07 0,287.73 233.33,521.06 521.06,521.06 287.73,0 521.06,-233.33 521.06,-521.06z"/>
     <path class="fil1" d="M31781.32 32309.32c0,-287.73 -233.33,-521.07 -521.06,-521.07 -287.73,0 -521.06,233.34 -521.06,521.07 0,287.73 233.33,521.06 521.06,521.06 287.73,0 521.06,-233.33 521.06,-521.06z"/>
    </g>
    <g>
     <path class="fil1" d="M2601.84 2608.77l7294.87 0 0 7294.87 -7294.87 0 0 -7294.87zm2084.25 1042.13l-1042.12 0 0 5210.62 5210.62 0 0 -5210.62 -4168.5 0zm20842.49 -1042.13l7294.87 0 0 7294.87 -7294.87 0 0 -7294.87zm2084.25 1042.13l-1042.13 0 0 5210.62 5210.62 0 0 -5210.62 -4168.49 0zm-4168.5 19800.36l5210.62 0 0 5210.62 -5210.62 0 0 -5210.62zm2084.25 1042.12l-1042.13 0 0 3126.38 3126.38 0 0 -3126.38 -2084.25 0zm-22926.74 1042.13l7294.87 0 0 7294.87 -7294.87 0 0 -7294.87zm2084.25 1042.12l-1042.12 0 0 5210.62 5210.62 0 0 -5210.62 -4168.5 0z"/>
    </g>
    <g>
     <path class="fil1" d="M4686.09 4693.02l3126.37 0 0 3126.37 -3126.37 0 0 -3126.37zm22926.74 0l3126.37 0 0 3126.37 -3126.37 0 0 -3126.37zm-2084.25 20842.49l1042.12 0 0 1042.12 -1042.12 0 0 -1042.12zm-20842.49 2084.25l3126.37 0 0 3126.37 -3126.37 0 0 -3126.37z"/>
    </g>
   </g>
  </g>
 </g>
</svg>
