<svg width="477" height="8" viewBox="0 0 477 8" fill="none" xmlns="http://www.w3.org/2000/svg">
<path d="M336 9.74544e-06L477 1.29296e-06C477 4.41829 473.418 8.00001 469 8.00001L344 8.00002C339.582 8.00002 336 4.41829 336 9.74544e-06Z" fill="#FFA155"/>
<path d="M111 9.74544e-06L352 0C352 4.41828 348.418 8.00002 344 8.00002L119 8.00002C114.582 8.00002 111 4.41829 111 9.74544e-06Z" fill="#FFD3AF"/>
<path d="M0 9.74544e-06L123.175 2.3311e-06C123.175 4.41828 119.593 8.00001 115.175 8.00001L7.99999 8.00002C3.58171 8.00002 5.65262e-07 4.41829 0 9.74544e-06Z" fill="#444CFC"/>
</svg>
