<svg width="577" height="108" viewBox="0 0 577 108" fill="none" xmlns="http://www.w3.org/2000/svg">
<g filter="url(#filter0_d_481_87)">
<path d="M73.8862 30L527 30C527 34.4182 523.418 37.9999 519 37.9999L81.8862 38C77.4679 38 73.8862 34.4183 73.8862 30Z" fill="#FFA155"/>
<path d="M73.6318 30.0117L402.054 30.0117C402.054 34.4231 398.477 37.9992 394.066 37.9992L81.6193 37.9992C77.208 37.9992 73.6318 34.4231 73.6318 30.0117Z" fill="#FFD3AF"/>
<path d="M50 30L173.175 30C173.175 34.4183 169.593 38 165.175 38L58 38C53.5817 38 50 34.4183 50 30Z" fill="#FFA155"/>
</g>
<defs>
<filter id="filter0_d_481_87" x="0" y="0" width="577" height="108" filterUnits="userSpaceOnUse" color-interpolation-filters="sRGB">
<feFlood flood-opacity="0" result="BackgroundImageFix"/>
<feColorMatrix in="SourceAlpha" type="matrix" values="0 0 0 0 0 0 0 0 0 0 0 0 0 0 0 0 0 0 127 0" result="hardAlpha"/>
<feOffset dy="20"/>
<feGaussianBlur stdDeviation="25"/>
<feColorMatrix type="matrix" values="0 0 0 0 0 0 0 0 0 0 0 0 0 0 0 0 0 0 0.1 0"/>
<feBlend mode="normal" in2="BackgroundImageFix" result="effect1_dropShadow_481_87"/>
<feBlend mode="normal" in="SourceGraphic" in2="effect1_dropShadow_481_87" result="shape"/>
</filter>
</defs>
</svg>
