<svg width="142" height="35" viewBox="0 0 142 35" fill="none" xmlns="http://www.w3.org/2000/svg">
<g clip-path="url(#clip0_481_321)">
<path fill-rule="evenodd" clip-rule="evenodd" d="M0.397461 25.4414L5.45905 21.5645C8.1469 25.0737 11.0013 26.6908 14.182 26.6908C17.3451 26.6908 20.121 25.0923 22.6884 21.6109L27.8197 25.395C24.118 30.4146 19.5126 33.0665 14.182 33.0665C8.86905 33.0665 4.22094 30.4332 0.397461 25.4414Z" fill="url(#paint0_linear_481_321)"/>
<path fill-rule="evenodd" clip-rule="evenodd" d="M14.1658 8.59179L5.157 16.3545L0.995117 11.5246L14.1837 0.160156L27.2698 11.5334L23.0874 16.3457L14.1658 8.59179Z" fill="url(#paint1_linear_481_321)"/>
<path d="M62.3706 6.71289H57.27V27.9653H62.3706V6.71289Z" fill="black"/>
<path fill-rule="evenodd" clip-rule="evenodd" d="M46.9618 28.0589C43.955 28.0589 41.4494 27.0845 39.417 25.1356C37.3846 23.1589 36.3823 20.6254 36.3823 17.5351C36.3823 14.4169 37.4125 11.8556 39.4448 9.85106C41.505 7.81866 44.0107 6.81641 46.9897 6.81641C50.6645 6.81641 53.922 8.40331 55.815 10.8812L52.502 14.3613C50.915 12.663 49.1891 11.7999 47.3237 11.7999C45.7368 11.7999 44.4283 12.3289 43.3425 13.4147C42.2846 14.5005 41.7556 15.8647 41.7556 17.5073C41.7556 19.0942 42.2846 20.4305 43.3425 21.5163C44.4283 22.5743 45.7368 23.1032 47.2959 23.1032C49.3283 23.1032 51.11 22.2123 52.5855 20.4584L56.038 23.7714C55.0915 25.0242 53.8105 26.0543 52.2235 26.8617C50.637 27.6691 48.8828 28.0589 46.9618 28.0589Z" fill="black"/>
<path fill-rule="evenodd" clip-rule="evenodd" d="M70.021 8.41319C70.021 9.93909 68.7845 11.176 67.2585 11.176C65.7325 11.176 64.4955 9.93909 64.4955 8.41319C64.4955 6.88734 65.7325 5.65039 67.2585 5.65039C68.7845 5.65039 70.021 6.88734 70.021 8.41319ZM69.8085 12.4511H64.708V27.9654H69.8085V12.4511Z" fill="black"/>
<path fill-rule="evenodd" clip-rule="evenodd" d="M79.668 28.088C77.246 28.088 75.297 27.3363 73.766 25.8329C72.2625 24.3295 71.5105 22.4085 71.5105 20.042C71.5105 17.6756 72.2625 15.7545 73.7935 14.2512C75.325 12.7478 77.3015 11.9961 79.7515 11.9961C82.9535 11.9961 85.765 13.5551 87.0735 16.4784L83.148 18.5386C82.3685 17.2301 81.283 16.5619 79.863 16.5619C78.833 16.5619 77.9975 16.896 77.3295 17.5642C76.689 18.2324 76.355 19.0676 76.355 20.042C76.355 22.0744 77.8305 23.5778 79.8075 23.5778C81.227 23.5778 82.5355 22.7982 83.0925 21.6011L87.018 23.9397C85.6815 26.5011 82.9255 28.088 79.668 28.088Z" fill="black"/>
<path fill-rule="evenodd" clip-rule="evenodd" d="M93.3994 6.71289H88.299V27.9653H93.3994V22.555L93.9969 21.9976L98.6594 27.9653H104.593L97.4294 18.7967L104.234 12.451H98.0019L93.3994 16.7432V6.71289Z" fill="black"/>
<path fill-rule="evenodd" clip-rule="evenodd" d="M105.513 19.9344V6.71289H110.826V19.6384C110.826 21.9492 112.173 23.0628 114.12 23.0628C116.039 23.0628 117.414 21.8935 117.414 19.6384V6.71289H122.727V19.9344C122.727 26.0037 118.466 28.2866 114.12 28.2866C109.802 28.2866 105.513 26.0037 105.513 19.9344Z" fill="black"/>
<path fill-rule="evenodd" clip-rule="evenodd" d="M134.204 28.3901C138.312 28.3901 141.643 24.7744 141.643 20.3142C141.643 15.854 138.312 12.2383 134.204 12.2383C132.53 12.2383 130.985 12.839 129.741 13.8528V12.4508H124.853V34.3408H129.741V26.7756C130.985 27.7894 132.53 28.3901 134.204 28.3901ZM129.741 20.3225V20.3059C129.746 18.3143 131.314 16.7013 133.248 16.7013C135.185 16.7013 136.755 18.3188 136.755 20.3142C136.755 22.3095 135.185 23.9271 133.248 23.9271C131.314 23.9271 129.746 22.314 129.741 20.3225Z" fill="black"/>
</g>
<defs>
<linearGradient id="paint0_linear_481_321" x1="0.397461" y1="35.1376" x2="27.8197" y2="35.1376" gradientUnits="userSpaceOnUse">
<stop stop-color="#8930FD"/>
<stop offset="1" stop-color="#49CCF9"/>
</linearGradient>
<linearGradient id="paint1_linear_481_321" x1="0.995117" y1="19.2705" x2="27.2698" y2="19.2705" gradientUnits="userSpaceOnUse">
<stop stop-color="#FF02F0"/>
<stop offset="1" stop-color="#FFC800"/>
</linearGradient>
<clipPath id="clip0_481_321">
<rect width="142" height="34.5" fill="white"/>
</clipPath>
</defs>
</svg>
