<svg width="138" height="32" viewBox="0 0 138 32" fill="none" xmlns="http://www.w3.org/2000/svg">
<g clip-path="url(#clip0_481_245)">
<path d="M38.7126 6.80469H45.3701C51.0713 6.80469 54.6759 10.4828 54.6759 16.2208C54.6759 21.9587 51.0897 25.6369 45.3701 25.6369H38.7126V6.80469ZM45.223 22.1978C48.8092 22.1978 50.777 19.8989 50.777 16.2392C50.777 12.561 48.8092 10.2622 45.223 10.2622H42.6115V22.1978H45.223Z" fill="#007EE5"/>
<path d="M64.7724 15.6874C64.2574 15.3748 63.577 15.2276 62.8597 15.2276C61.5724 15.2276 60.5241 15.9081 60.2482 17.1587V25.6552H56.4597V11.9357H60.2666V13.2782C60.8551 12.3035 61.977 11.623 63.3379 11.623C63.9816 11.623 64.5701 11.7518 64.7724 11.8621V15.6874Z" fill="#007EE5"/>
<path d="M72.3679 25.9679C68.3771 25.9679 65.6368 23.0253 65.6368 18.8139C65.6368 14.584 68.3771 11.623 72.3679 11.623C76.3587 11.623 79.0805 14.5656 79.0805 18.8139C79.0805 23.0253 76.3587 25.9679 72.3679 25.9679ZM72.3679 14.8598C70.4552 14.8598 69.4253 16.515 69.4253 18.8139C69.4253 21.0759 70.4736 22.7495 72.3679 22.7495C74.2621 22.7495 75.3104 21.0943 75.3104 18.8139C75.3104 16.515 74.2621 14.8598 72.3679 14.8598Z" fill="#007EE5"/>
<path d="M84.5242 30.7303H80.7173V11.9349H84.5242V13.0751C85.1311 12.3395 86.492 11.6406 87.9633 11.6406C91.9541 11.6406 94.2161 14.951 94.2161 18.8314C94.2161 22.6935 91.9541 25.9855 87.9633 25.9855C86.492 25.9855 85.1311 25.2866 84.5242 24.551V30.7303ZM84.5242 21.0567C84.984 22.013 85.9954 22.6567 87.0989 22.6567C89.1587 22.6567 90.3908 21.0015 90.3908 18.813C90.3908 16.6061 89.1587 14.951 87.0989 14.951C85.9587 14.951 84.984 15.6314 84.5242 16.551V21.0567Z" fill="#007EE5"/>
<path d="M99.6966 25.6552H95.8529V5.70117H99.6966V13.0759C100.303 12.3403 101.664 11.6414 103.136 11.6414C107.126 11.6414 109.37 14.8966 109.37 18.8322C109.37 22.7678 107.126 25.9862 103.136 25.9862C101.664 25.9862 100.303 25.2874 99.6966 24.5517V25.6552ZM99.6966 21.0575C100.12 22.0138 101.131 22.6575 102.271 22.6575C104.331 22.6575 105.563 21.0023 105.563 18.8138C105.563 16.6069 104.331 14.9517 102.271 14.9517C101.168 14.9517 100.12 15.6322 99.6966 16.5517V21.0575Z" fill="#007EE5"/>
<path d="M117.462 26.005C113.471 26.005 110.731 23.0625 110.731 18.851C110.731 14.6211 113.471 11.6602 117.462 11.6602C121.453 11.6602 124.175 14.6027 124.175 18.851C124.175 23.0625 121.435 26.005 117.462 26.005ZM117.462 14.8969C115.549 14.8969 114.52 16.5521 114.52 18.851C114.52 21.113 115.568 22.7866 117.462 22.7866C119.356 22.7866 120.405 21.1314 120.405 18.851C120.405 16.5521 119.356 14.8969 117.462 14.8969Z" fill="#007EE5"/>
<path d="M132.726 18.5738L137.729 25.6727H133.517L130.575 21.3692L127.595 25.6727H123.605L128.552 18.6658L123.899 11.9531H128.11L130.759 15.852L133.444 11.9531H137.435L132.726 18.5738Z" fill="#007EE5"/>
<path d="M10.0966 0.349609L0.18396 6.73122L7.04373 12.2668L17.0115 6.10593L10.0966 0.349609Z" fill="#007EE5"/>
<path d="M0.18396 17.6745L10.0966 24.1848L17.0115 18.4285L7.04373 12.2676L0.18396 17.6745Z" fill="#007EE5"/>
<path d="M17.0116 18.4285L23.9265 24.1848L33.8024 17.748L26.961 12.2676L17.0116 18.4285Z" fill="#007EE5"/>
<path d="M33.8024 6.78639L23.9265 0.349609L17.0116 6.10593L26.961 12.2668L33.8024 6.78639Z" fill="#007EE5"/>
<path d="M17.03 19.6602L10.0966 25.4165L7.11731 23.4854V25.6556L17.03 31.5958L26.9242 25.6556V23.4854L23.9633 25.4165L17.03 19.6602Z" fill="#007EE5"/>
</g>
<defs>
<clipPath id="clip0_481_245">
<rect width="137.931" height="32" fill="white"/>
</clipPath>
</defs>
</svg>
