<svg width="187" height="64" viewBox="0 0 187 64" fill="none" xmlns="http://www.w3.org/2000/svg">
<g clip-path="url(#clip0_481_108)">
<path d="M64.0186 33.411C64.0246 30.8133 63.2275 28.2772 61.7358 26.1503C60.2445 24.0234 58.1317 22.4096 55.6874 21.5301C55.91 20.3964 56.022 19.2437 56.0223 18.0883C56.0246 14.2639 54.8138 10.5373 52.5645 7.44428C50.3152 4.35129 47.1431 2.05121 43.504 0.874752C39.8653 -0.301708 35.9469 -0.293955 32.3126 0.896896C28.6783 2.08775 25.5152 4.40037 23.2782 7.50221C21.6278 6.22329 19.6055 5.51702 17.5177 5.49049C15.4299 5.46396 13.3903 6.11855 11.7079 7.35509C10.0255 8.59166 8.79193 10.3428 8.19401 12.3434C7.59613 14.3439 7.66649 16.4848 8.39446 18.4417C5.94434 19.3348 3.82649 20.9568 2.32574 23.0895C0.825001 25.2222 0.0133782 27.7633 4.2899e-05 30.3711C-0.00675572 32.9778 0.794683 35.5225 2.29402 37.6548C3.79334 39.7872 5.91684 41.4025 8.37213 42.278C8.15479 43.4114 8.04391 44.5623 8.04097 45.7162C8.03732 49.5361 9.24692 53.2585 11.4953 56.3469C13.7438 59.4349 16.9148 61.7292 20.5513 62.8991C24.1878 64.0685 28.1018 64.0533 31.729 62.8548C35.3562 61.6566 38.509 59.3374 40.733 56.2315C42.3788 57.5137 44.3974 58.2241 46.4834 58.2553C48.5693 58.2866 50.6084 57.6365 52.2914 56.4042C53.9747 55.1714 55.21 53.4237 55.8099 51.4259C56.41 49.4278 56.3423 47.289 55.6167 45.3329C58.0681 44.4414 60.1875 42.8198 61.6889 40.687C63.1907 38.5541 64.0022 36.0121 64.0149 33.4036" fill="white"/>
<path d="M25.1685 27.4639L39.1778 33.8602L53.3173 21.4769C53.5208 20.4552 53.6221 19.4156 53.6187 18.3737C53.618 15.0007 52.5378 11.7164 50.5359 9.00151C48.5344 6.28661 45.7166 4.2836 42.4942 3.28556C39.2723 2.28753 35.8155 2.34686 32.6297 3.45489C29.4439 4.56293 26.6963 6.66146 24.7889 9.44345L22.4336 21.6258L25.1685 27.4639Z" fill="#FEC514"/>
<path d="M10.668 42.2994C10.4614 43.3372 10.358 44.3928 10.3591 45.4511C10.3592 48.8382 11.445 52.1361 13.4571 54.8605C15.4692 57.5854 18.3017 59.5932 21.5389 60.5897C24.7761 61.5861 28.2474 61.5188 31.4435 60.3973C34.6396 59.2762 37.392 57.1597 39.2968 54.359L41.6298 42.2027L38.5154 36.2492L24.454 29.8418L10.668 42.2994Z" fill="#00BFB3"/>
<path d="M10.5824 18.0591L20.1825 20.3251L22.2848 9.40791C20.979 8.4178 19.3877 7.8773 17.7491 7.86733C16.1104 7.85732 14.5126 8.37844 13.1949 9.35258C11.8772 10.3267 10.9105 11.7014 10.4396 13.271C9.96861 14.8405 10.0187 16.5204 10.5824 18.0591Z" fill="#F04E98"/>
<path d="M9.74893 20.3438C7.64258 21.0545 5.8101 22.4041 4.50636 24.2046C3.2026 26.0052 2.49239 28.1673 2.47449 30.3903C2.47298 32.5387 3.12541 34.6367 4.34506 36.4053C5.56467 38.1741 7.29375 39.5296 9.30242 40.2917L22.7722 28.1168L20.2978 22.8331L9.74893 20.3438Z" fill="#1BA9F5"/>
<path d="M41.76 54.3593C43.0638 55.3442 44.6512 55.8815 46.285 55.89C47.9189 55.8986 49.5118 55.3788 50.8257 54.4076C52.1399 53.4365 53.1044 52.066 53.5758 50.5014C54.0469 48.9371 53.9993 47.262 53.44 45.7267L43.8474 43.4941L41.76 54.3593Z" fill="#93C90E"/>
<path d="M43.7098 40.9685L54.2698 43.4355C56.3774 42.7267 58.211 41.3778 59.5152 39.5765C60.8194 37.7756 61.5286 35.6125 61.5442 33.389C61.5424 31.2451 60.8886 29.1525 59.67 27.3888C58.451 25.625 56.7249 24.2736 54.72 23.5137L40.908 35.6067L43.7098 40.9685Z" fill="#0077CC"/>
<path d="M89.5107 44.8011L90.7907 44.6709L90.88 47.2755C88.0316 47.7057 85.1576 47.9419 82.2772 47.9825C79.1022 47.9825 76.8521 47.0634 75.5275 45.2253C74.2028 43.3872 73.5416 40.5269 73.5442 36.6448C73.5442 28.9127 76.6177 25.0455 82.7647 25.043C85.7414 25.043 87.9617 25.874 89.4251 27.536C90.8889 29.198 91.6231 31.8027 91.6279 35.3499L91.453 37.8653H76.8968C76.8968 40.3062 77.3384 42.1146 78.2214 43.2904C79.1048 44.4662 80.64 45.0541 82.8279 45.0541C85.021 45.0616 87.2484 44.9771 89.5107 44.8011ZM88.32 35.2309C88.32 32.5245 87.8873 30.6132 87.0214 29.4969C86.1555 28.3806 84.7442 27.8213 82.787 27.8188C80.8298 27.8188 79.3589 28.4067 78.374 29.5825C77.3894 30.7583 76.8819 32.6411 76.8521 35.2309H88.32Z" fill="#1C1E23"/>
<path d="M96.2419 47.8065V18.7832H99.5499V47.8065H96.2419Z" fill="#1C1E23"/>
<path d="M120.383 32.1423V43.2679C120.383 44.3842 123.129 44.3246 123.129 44.3246L122.962 47.2493C120.636 47.2493 118.713 47.4428 117.559 46.3228C115.061 47.4324 112.355 47.9968 109.622 47.9786C107.595 47.9786 106.051 47.4045 104.99 46.2558C103.928 45.1072 103.398 43.4566 103.401 41.3032C103.401 39.1552 103.945 37.5738 105.034 36.5591C106.123 35.5445 107.829 34.9243 110.151 34.6986L117.075 34.04V32.1423C117.075 30.6539 116.753 29.5799 116.108 28.92C115.754 28.5883 115.338 28.3315 114.882 28.1653C114.427 27.999 113.943 27.9267 113.459 27.9526H104.766V25.0391H113.239C115.739 25.0391 117.555 25.6133 118.686 26.7619C119.818 27.9104 120.383 29.7039 120.383 32.1423ZM106.791 41.1395C106.791 43.8458 107.907 45.1991 110.139 45.1991C112.154 45.1968 114.153 44.8534 116.052 44.1832L117.064 43.8298V36.5516L110.549 37.1693C109.224 37.2884 108.268 37.6705 107.68 38.3153C107.092 38.9602 106.795 39.9016 106.791 41.1395Z" fill="#1C1E23"/>
<path d="M133.299 27.997C130.091 27.997 128.487 29.1133 128.487 31.3459C128.487 32.3778 128.86 33.1059 129.604 33.53C130.348 33.9542 132.024 34.3958 134.631 34.8547C137.25 35.3136 139.103 35.9536 140.19 36.7747C141.276 37.5959 141.821 39.1386 141.823 41.4035C141.823 43.6707 141.095 45.3328 139.639 46.3896C138.183 47.4463 136.058 47.9758 133.265 47.9784C131.442 47.9784 125.354 47.3012 125.354 47.3012L125.533 44.4361C129.031 44.771 131.557 45.0203 133.265 45.0203C134.973 45.0203 136.272 44.7486 137.168 44.2054C138.065 43.6621 138.512 42.7505 138.512 41.4705C138.512 40.1905 138.14 39.3235 137.366 38.8659C136.592 38.4082 134.925 37.9766 132.339 37.5635C129.753 37.1505 127.911 36.5477 126.824 35.7552C125.738 34.9626 125.191 33.4891 125.191 31.3421C125.191 29.1952 125.935 27.6212 127.464 26.5793C128.993 25.5375 130.869 25.0352 133.131 25.0352C134.925 25.0352 141.15 25.4928 141.15 25.4928V28.3766C137.864 28.2314 135.178 27.997 133.299 27.997Z" fill="#1C1E23"/>
<path d="M157.767 28.3473H150.753V38.8924C150.753 41.42 150.937 43.081 151.304 43.8747C151.676 44.671 152.547 45.0654 153.927 45.0654L157.853 44.8012L158.076 47.5361C156.59 47.8111 155.085 47.9737 153.574 48.0235C151.282 48.0235 149.694 47.4643 148.811 46.3454C147.928 45.2265 147.488 43.0944 147.49 39.9491V28.3473H144.372V25.4822H147.505V18.7324H150.768V25.4822H157.767V28.3473Z" fill="#1C1E23"/>
<path d="M162.366 22.6642V18.8242H165.674V22.6642H162.366ZM162.366 47.8065V25.481H165.674V47.8065H162.366Z" fill="#1C1E23"/>
<path d="M180.004 25.0391C181.656 25.1096 183.301 25.2873 184.93 25.5712L185.987 25.7014L185.857 28.3916C184.128 28.1726 182.39 28.041 180.648 27.9972C178.147 27.9972 176.449 28.5926 175.554 29.7832C174.658 30.9739 174.209 33.1792 174.207 36.3991C174.207 39.624 174.626 41.8662 175.464 43.1265C176.303 44.3868 178.051 45.0193 180.711 45.0242L185.92 44.6298L186.054 47.3646C184.026 47.7081 181.978 47.9146 179.922 47.9823C176.484 47.9823 174.11 47.0993 172.8 45.333C171.49 43.5667 170.835 40.5899 170.835 36.4028C170.835 32.213 171.541 29.2723 172.953 27.5805C174.364 25.8887 176.715 25.0416 180.004 25.0391Z" fill="#1C1E23"/>
</g>
<defs>
<clipPath id="clip0_481_108">
<rect width="186.047" height="64" fill="white"/>
</clipPath>
</defs>
</svg>
